<svg width="8" height="7" viewBox="0 0 8 7" fill="none" xmlns="http://www.w3.org/2000/svg">
<path d="M3.64978 1.94995C3.43697 2.13763 3.26653 2.36845 3.14978 2.62708C3.03303 2.8857 2.97266 3.1662 2.97266 3.44995C2.97266 3.7337 3.03303 4.01421 3.14978 4.27283C3.26653 4.53145 3.43697 4.76227 3.64978 4.94995" stroke="white" stroke-width="0.5" stroke-miterlimit="10"/>
<path d="M2.93991 1.21997C2.60693 1.4939 2.33873 1.83817 2.1546 2.22806C1.97048 2.61795 1.875 3.0438 1.875 3.47498C1.875 3.90616 1.97048 4.33197 2.1546 4.72186C2.33873 5.11175 2.60693 5.45602 2.93991 5.72995" stroke="white" stroke-width="0.5" stroke-miterlimit="10"/>
<path d="M2.09988 0.27002C1.63808 0.645068 1.26574 1.11841 1.01001 1.65555C0.754275 2.19269 0.621582 2.78012 0.621582 3.37503C0.621582 3.96994 0.754275 4.55737 1.01001 5.09451C1.26574 5.63165 1.63808 6.10496 2.09988 6.48001" stroke="white" stroke-width="0.5" stroke-miterlimit="10"/>
<path d="M4.6499 4.99997C4.87117 4.81222 5.04895 4.57856 5.17087 4.31522C5.29279 4.05188 5.35593 3.76517 5.35593 3.47498C5.35593 3.18478 5.29279 2.89805 5.17087 2.6347C5.04895 2.37136 4.87117 2.1377 4.6499 1.94995" stroke="white" stroke-width="0.5" stroke-miterlimit="10"/>
<path d="M5.40967 5.70996C5.74265 5.43603 6.01082 5.09177 6.19495 4.70187C6.37907 4.31198 6.47458 3.88614 6.47458 3.45496C6.47458 3.02378 6.37907 2.59796 6.19495 2.20807C6.01082 1.81818 5.74265 1.47388 5.40967 1.19995" stroke="white" stroke-width="0.5" stroke-miterlimit="10"/>
<path d="M6.25 6.70999C6.7118 6.33494 7.08411 5.8616 7.33984 5.32446C7.59558 4.78732 7.7283 4.19989 7.7283 3.60498C7.7283 3.01007 7.59558 2.42267 7.33984 1.88553C7.08411 1.34839 6.7118 0.875048 6.25 0.5" stroke="white" stroke-width="0.5" stroke-miterlimit="10"/>
</svg>
