<svg width="9" height="10" viewBox="0 0 9 10" fill="none" xmlns="http://www.w3.org/2000/svg">
<path d="M1.35994 7.16001C1.29817 7.15178 1.23959 7.12766 1.18994 7.09C1.15907 7.06886 1.13383 7.0405 1.11641 7.00739C1.09898 6.97428 1.08989 6.93742 1.08993 6.9C0.969931 5.52 3.96993 2.95 4.08993 2.84C5.08993 2.13 7.48993 0.520004 8.58993 0.840004C8.65093 0.854368 8.70432 0.891114 8.73951 0.942971C8.7747 0.994828 8.78912 1.05801 8.77993 1.12C8.64993 2.06 5.60993 4.47002 5.47993 4.57002C2.86993 6.71002 1.79993 7.1 1.38993 7.15L1.35994 7.16001ZM8.25993 0.970009C7.07993 0.970009 4.88993 2.48001 4.19993 2.97001C4.19993 2.97001 1.19993 5.58001 1.24993 6.88001C1.24993 6.88001 1.24993 6.94002 1.24993 6.95002C1.27566 6.96006 1.30422 6.96006 1.32994 6.95002C1.63994 6.95002 2.65994 6.60001 5.32994 4.41001C5.32994 4.41001 6.12993 3.79001 6.91993 3.06001C8.22993 1.86001 8.53994 1.32001 8.57994 1.06001C8.58041 1.03661 8.57266 1.01379 8.55804 0.995522C8.54342 0.97725 8.52286 0.964675 8.49993 0.96C8.41849 0.962408 8.33775 0.975873 8.25993 1.00001V0.970009Z" fill="#F1F2F2" stroke="#F1F2F2" stroke-width="0.25" stroke-miterlimit="10"/>
<path d="M1.25992 6.44C1.24861 6.44143 1.23712 6.44042 1.22623 6.43704C1.21534 6.43366 1.2053 6.42799 1.19678 6.42041C1.18826 6.41283 1.18145 6.40355 1.17682 6.39313C1.17219 6.38271 1.16983 6.37139 1.16992 6.35998C1.16979 6.33775 1.17789 6.31627 1.19266 6.29965C1.20743 6.28303 1.22783 6.27246 1.24993 6.26999C2.06993 6.16999 3.76993 4.82999 4.45993 4.26999L5.31993 3.57999C7.67993 1.73999 7.87993 0.909993 7.87993 0.899993C7.88225 0.889315 7.88672 0.879241 7.89308 0.87036C7.89945 0.86148 7.90758 0.853979 7.91695 0.848357C7.92632 0.842735 7.93674 0.839115 7.94757 0.837676C7.95841 0.836237 7.96941 0.837015 7.97992 0.839995C7.99937 0.844764 8.01633 0.856657 8.02744 0.873321C8.03855 0.889984 8.043 0.910203 8.03992 0.929992C8.03992 0.929992 7.85992 1.81999 5.42992 3.70999L4.56993 4.39999C3.69993 5.11999 2.09993 6.33999 1.26993 6.39999L1.25992 6.44Z" fill="#F1F2F2" stroke="#F1F2F2" stroke-width="0.25" stroke-miterlimit="10"/>
<path d="M3.26019 3.82001C3.24377 3.81891 3.22788 3.81375 3.21393 3.80503C3.19997 3.79631 3.18838 3.78427 3.18019 3.77C3.11313 3.62293 3.07572 3.4641 3.07008 3.30256C3.06445 3.14102 3.09072 2.97997 3.14737 2.82859C3.20402 2.67721 3.28995 2.53848 3.40025 2.42033C3.51056 2.30218 3.64305 2.20693 3.79019 2.14002C3.99018 2.05127 4.20996 2.01656 4.42757 2.03938C4.64517 2.06219 4.85297 2.1417 5.0302 2.27C5.03871 2.2775 5.04553 2.28675 5.0502 2.2971C5.05487 2.30744 5.05728 2.31864 5.05728 2.32999C5.05728 2.34134 5.05487 2.35258 5.0502 2.36292C5.04553 2.37327 5.03871 2.38251 5.0302 2.39002C5.0137 2.40478 4.99234 2.41291 4.9702 2.41291C4.94806 2.41291 4.9267 2.40478 4.9102 2.39002C4.68336 2.2245 4.4001 2.15574 4.12262 2.19886C3.84514 2.24198 3.5961 2.39345 3.43019 2.62C3.31378 2.76834 3.24169 2.94658 3.22223 3.13413C3.20277 3.32169 3.23674 3.51092 3.32021 3.68C3.32497 3.69042 3.32744 3.70175 3.32745 3.7132C3.32747 3.72466 3.32502 3.73598 3.32028 3.74641C3.31554 3.75684 3.30861 3.76614 3.29997 3.77366C3.29133 3.78118 3.28119 3.78676 3.2702 3.79002L3.26019 3.82001Z" fill="#F1F2F2" stroke="#F1F2F2" stroke-width="0.25" stroke-miterlimit="10"/>
<path d="M3.30996 2.78C3.30058 2.78444 3.29034 2.78674 3.27996 2.78674C3.26958 2.78674 3.25934 2.78444 3.24996 2.78L3.12996 2.64001C3.06036 2.53401 3.03105 2.40654 3.04738 2.28079C3.06372 2.15503 3.12461 2.03931 3.21898 1.95462C3.31336 1.86992 3.43498 1.82186 3.56176 1.81918C3.68854 1.8165 3.81209 1.85937 3.90996 1.94L4.08996 2.13C4.10587 2.14591 4.11481 2.16749 4.11481 2.19C4.11481 2.2125 4.10587 2.23408 4.08996 2.25C4.07404 2.26591 4.05246 2.27484 4.02996 2.27484C4.00745 2.27484 3.98587 2.26591 3.96996 2.25L3.78995 2.05999C3.75651 2.02643 3.71677 1.9998 3.67301 1.98163C3.62925 1.96346 3.58234 1.9541 3.53496 1.9541C3.48758 1.9541 3.44066 1.96346 3.3969 1.98163C3.35314 1.9998 3.3134 2.02643 3.27996 2.05999C3.21454 2.12878 3.17806 2.22007 3.17806 2.315C3.17806 2.40992 3.21454 2.50122 3.27996 2.57L3.39995 2.70999C3.40847 2.7175 3.41529 2.72674 3.41996 2.73709C3.42463 2.74743 3.42704 2.75864 3.42704 2.76999C3.42704 2.78134 3.42463 2.79257 3.41996 2.80291C3.41529 2.81326 3.40847 2.82248 3.39995 2.82998L3.30996 2.78Z" fill="#F1F2F2" stroke="#F1F2F2" stroke-width="0.25" stroke-miterlimit="10"/>
<path d="M3.12006 2.20001C3.11068 2.20446 3.10044 2.20676 3.09006 2.20676C3.07968 2.20676 3.06944 2.20446 3.06006 2.20001L2.42006 1.44C2.3938 1.40848 2.37399 1.37211 2.36179 1.33295C2.34958 1.29378 2.34523 1.25259 2.34894 1.21173C2.35266 1.17087 2.36437 1.13114 2.38344 1.09482C2.40251 1.05849 2.42855 1.02626 2.46007 0.999999C2.49159 0.973734 2.52796 0.953945 2.56713 0.941741C2.6063 0.929537 2.64748 0.925148 2.68834 0.928862C2.7292 0.932577 2.76893 0.94431 2.80525 0.963378C2.84158 0.982445 2.87379 1.00849 2.90006 1.04001L3.55007 1.79999C3.56483 1.81649 3.57299 1.83785 3.57299 1.85998C3.57299 1.88212 3.56483 1.90351 3.55007 1.92001C3.54256 1.92852 3.53333 1.93533 3.52298 1.94C3.51264 1.94467 3.50142 1.94708 3.49007 1.94708C3.47872 1.94708 3.4675 1.94467 3.45716 1.94C3.44681 1.93533 3.43756 1.92852 3.43006 1.92001L2.78006 1.16C2.76772 1.14525 2.75248 1.13317 2.73528 1.12457C2.71807 1.11597 2.69927 1.111 2.68006 1.10998C2.66437 1.10279 2.64733 1.09909 2.63007 1.09909C2.61281 1.09909 2.59575 1.10279 2.58007 1.10998C2.56705 1.12215 2.55666 1.13689 2.54956 1.15323C2.54247 1.16957 2.53881 1.18717 2.53881 1.20499C2.53881 1.2228 2.54247 1.24043 2.54956 1.25677C2.55666 1.27312 2.56705 1.28782 2.58007 1.29999L3.22007 2.06C3.23482 2.0765 3.24298 2.09786 3.24298 2.11999C3.24298 2.14213 3.23482 2.16349 3.22007 2.17999L3.12006 2.20001Z" fill="#F1F2F2" stroke="#F1F2F2" stroke-width="0.25" stroke-miterlimit="10"/>
<path d="M6.92995 6.07999C6.91887 6.08466 6.90698 6.0871 6.89496 6.0871C6.88294 6.0871 6.87103 6.08466 6.85995 6.07999L5.51996 4.47C5.50589 4.45514 5.49805 4.43547 5.49805 4.41501C5.49805 4.39455 5.50589 4.37484 5.51996 4.35999C5.52747 4.35147 5.5367 4.34467 5.54704 4.34C5.55739 4.33533 5.56861 4.33292 5.57996 4.33292C5.59131 4.33292 5.60252 4.33533 5.61287 4.34C5.62321 4.34467 5.63245 4.35147 5.63995 4.35999L6.99995 6C7.00827 6.00655 7.015 6.01492 7.01962 6.02444C7.02425 6.03397 7.02666 6.0444 7.02666 6.05499C7.02666 6.06558 7.02425 6.07604 7.01962 6.08557C7.015 6.0951 7.00827 6.10343 6.99995 6.10999C6.99995 6.10999 6.99995 6.07999 6.92995 6.07999Z" fill="#F1F2F2" stroke="#F1F2F2" stroke-width="0.25" stroke-miterlimit="10"/>
<path d="M6.45976 6.44C6.45039 6.44445 6.44013 6.44675 6.42975 6.44675C6.41937 6.44675 6.40913 6.44445 6.39975 6.44L5.06976 4.82999C5.0557 4.81513 5.04785 4.79545 5.04785 4.77499C5.04785 4.75453 5.0557 4.73486 5.06976 4.72C5.08395 4.70864 5.10157 4.70245 5.11975 4.70245C5.13793 4.70245 5.15557 4.70864 5.16975 4.72L6.48976 6.32999C6.50452 6.34649 6.51268 6.36788 6.51268 6.39001C6.51268 6.41215 6.50452 6.43351 6.48976 6.45001H6.42975L6.45976 6.44Z" fill="#F1F2F2" stroke="#F1F2F2" stroke-width="0.25" stroke-miterlimit="10"/>
<path d="M6.99973 7.28999C6.86086 7.28998 6.72513 7.24865 6.60981 7.17128C6.49449 7.09391 6.4048 6.98401 6.35212 6.85552C6.29945 6.72702 6.28617 6.58575 6.314 6.44969C6.34183 6.31364 6.4095 6.18896 6.5084 6.09148C6.6073 5.99399 6.73297 5.92811 6.86941 5.90224C7.00585 5.87637 7.1469 5.89167 7.27462 5.94618C7.40234 6.0007 7.51095 6.09197 7.58665 6.20839C7.66235 6.32481 7.70171 6.46114 7.69973 6.59999C7.69974 6.69145 7.68156 6.78201 7.64626 6.86638C7.61096 6.95075 7.55925 7.02724 7.49412 7.09145C7.42898 7.15565 7.35173 7.20629 7.26685 7.24037C7.18198 7.27445 7.09118 7.29132 6.99973 7.28999ZM6.99973 6.06999C6.9306 6.06998 6.86214 6.08373 6.79839 6.11049C6.73464 6.13725 6.67688 6.17647 6.62846 6.22582C6.58004 6.27517 6.54195 6.33366 6.51641 6.3979C6.49088 6.46215 6.4784 6.53087 6.47973 6.59999C6.47973 6.7379 6.53452 6.87015 6.63204 6.96767C6.72956 7.06519 6.86182 7.11998 6.99973 7.11998C7.06886 7.12131 7.13756 7.10884 7.20181 7.0833C7.26605 7.05776 7.32456 7.01969 7.37391 6.97127C7.42326 6.92285 7.46247 6.86507 7.48922 6.80132C7.51598 6.73757 7.52975 6.66913 7.52973 6.59999C7.52973 6.45943 7.4739 6.3246 7.37451 6.22521C7.27511 6.12581 7.1403 6.06999 6.99973 6.06999Z" fill="#F1F2F2" stroke="#F1F2F2" stroke-width="0.25" stroke-miterlimit="10"/>
<path d="M6.99973 6.88C6.92626 6.87751 6.85648 6.84721 6.8045 6.79523C6.75252 6.74325 6.72222 6.67347 6.71973 6.60001C6.71973 6.52575 6.74923 6.45452 6.80174 6.40201C6.85425 6.3495 6.92546 6.32001 6.99973 6.32001C7.07399 6.32001 7.1452 6.3495 7.19771 6.40201C7.25022 6.45452 7.27972 6.52575 7.27972 6.60001C7.27972 6.67427 7.25022 6.74549 7.19771 6.798C7.1452 6.85051 7.07399 6.88 6.99973 6.88ZM6.99973 6.48001C6.9844 6.47995 6.96923 6.48308 6.95518 6.48923C6.94114 6.49537 6.92854 6.50436 6.91818 6.51566C6.90783 6.52695 6.89995 6.54032 6.89505 6.55484C6.89015 6.56936 6.88833 6.58474 6.88972 6.60001C6.88972 6.62918 6.90131 6.65717 6.92194 6.6778C6.94257 6.69842 6.97055 6.70999 6.99973 6.70999C7.02926 6.70806 7.05725 6.69612 7.07907 6.67612C7.10089 6.65612 7.11523 6.62926 7.11972 6.60001C7.11972 6.56818 7.10708 6.53764 7.08458 6.51514C7.06208 6.49263 7.03155 6.48001 6.99973 6.48001Z" fill="#F1F2F2" stroke="#F1F2F2" stroke-width="0.25" stroke-miterlimit="10"/>
<path d="M7.35013 8.93H6.71013C6.69882 8.93142 6.68732 8.93041 6.67642 8.92703C6.66553 8.92366 6.6555 8.91801 6.64698 8.91043C6.63845 8.90286 6.63165 8.89354 6.62702 8.88312C6.62239 8.8727 6.62003 8.86141 6.62012 8.85001V7.10999C6.62012 7.08612 6.62961 7.06324 6.64649 7.04636C6.66337 7.02948 6.68626 7.01999 6.71013 7.01999C6.72153 7.0199 6.73282 7.02226 6.74324 7.02689C6.75366 7.03152 6.76296 7.03832 6.77054 7.04685C6.77812 7.05537 6.78378 7.0654 6.78716 7.0763C6.79053 7.08719 6.79154 7.09867 6.79012 7.10999V8.76001H7.27013V7.10999C7.26999 7.08775 7.27808 7.06627 7.29285 7.04965C7.30762 7.03304 7.32803 7.02246 7.35013 7.01999C7.374 7.01999 7.39688 7.02948 7.41376 7.04636C7.43064 7.06324 7.44013 7.08612 7.44013 7.10999V8.85001C7.44022 8.86141 7.43786 8.8727 7.43323 8.88312C7.4286 8.89354 7.42179 8.90286 7.41327 8.91043C7.40475 8.91801 7.39471 8.92366 7.38382 8.92703C7.37293 8.93041 7.36144 8.93142 7.35013 8.93Z" fill="#F1F2F2" stroke="#F1F2F2" stroke-width="0.25" stroke-miterlimit="10"/>
</svg>
