<svg width="9" height="10" viewBox="0 0 9 10" fill="none" xmlns="http://www.w3.org/2000/svg">
<path d="M1.27351 7.36158C1.21174 7.35335 1.15316 7.32923 1.10351 7.29157C1.07265 7.27043 1.04741 7.24207 1.02998 7.20896C1.01255 7.17585 1.00346 7.13899 1.00351 7.10157C0.883505 5.72157 3.88351 3.15157 4.00351 3.04157C5.00351 2.33157 7.40351 0.721573 8.50351 1.04157C8.56451 1.05594 8.6179 1.09268 8.65309 1.14454C8.68828 1.1964 8.7027 1.25958 8.69351 1.32157C8.56351 2.26157 5.5235 4.67158 5.3935 4.77158C2.7835 6.91158 1.71351 7.30157 1.30351 7.35157L1.27351 7.36158ZM8.1735 1.17158C6.9935 1.17158 4.80351 2.68158 4.11351 3.17158C4.11351 3.17158 1.11351 5.78158 1.16351 7.08158C1.16351 7.08158 1.16351 7.14159 1.16351 7.15159C1.18923 7.16163 1.21779 7.16163 1.24351 7.15159C1.55351 7.15159 2.57351 6.80158 5.24351 4.61158C5.24351 4.61158 6.04351 3.99157 6.83351 3.26157C8.14351 2.06157 8.45351 1.52157 8.49351 1.26157C8.49398 1.23818 8.48623 1.21536 8.47161 1.19709C8.457 1.17882 8.43644 1.16624 8.41351 1.16157C8.33207 1.16398 8.25132 1.17744 8.1735 1.20158V1.17158Z" fill="#F1F2F2" stroke="#BDBDBD" stroke-width="0.25" stroke-miterlimit="10"/>
<path d="M1.17349 6.64157C1.16218 6.643 1.1507 6.64199 1.1398 6.63861C1.12891 6.63523 1.11888 6.62955 1.11035 6.62198C1.10183 6.6144 1.09503 6.60512 1.0904 6.5947C1.08576 6.58427 1.08341 6.57296 1.0835 6.56155C1.08336 6.53932 1.09146 6.51784 1.10623 6.50122C1.12101 6.4846 1.1414 6.47403 1.1635 6.47156C1.9835 6.37156 3.68351 5.03156 4.37351 4.47156L5.23351 3.78155C7.59351 1.94155 7.79351 1.11156 7.79351 1.10156C7.79582 1.09088 7.80029 1.08081 7.80666 1.07193C7.81303 1.06305 7.82115 1.05555 7.83052 1.04993C7.83989 1.0443 7.85032 1.04068 7.86115 1.03924C7.87198 1.03781 7.88298 1.03858 7.8935 1.04156C7.91295 1.04633 7.9299 1.05823 7.94101 1.07489C7.95212 1.09155 7.95657 1.11177 7.95349 1.13156C7.95349 1.13156 7.77349 2.02156 5.34349 3.91156L4.48351 4.60156C3.61351 5.32156 2.0135 6.54156 1.1835 6.60156L1.17349 6.64157Z" fill="#F1F2F2" stroke="#BDBDBD" stroke-width="0.25" stroke-miterlimit="10"/>
<path d="M3.17377 4.02158C3.15735 4.02048 3.14146 4.01532 3.1275 4.0066C3.11355 3.99788 3.10196 3.98584 3.09376 3.97157C3.0267 3.8245 2.98929 3.66566 2.98366 3.50413C2.97802 3.34259 3.00429 3.18154 3.06094 3.03016C3.1176 2.87878 3.20352 2.74004 3.31383 2.62189C3.42413 2.50374 3.55663 2.4085 3.70377 2.34159C3.90375 2.25284 4.12354 2.21813 4.34114 2.24094C4.55874 2.26376 4.76654 2.34327 4.94377 2.47156C4.95228 2.47907 4.95911 2.48832 4.96378 2.49866C4.96845 2.50901 4.97086 2.52021 4.97086 2.53156C4.97086 2.54291 4.96845 2.55415 4.96378 2.56449C4.95911 2.57484 4.95228 2.58408 4.94377 2.59159C4.92727 2.60635 4.90591 2.61448 4.88377 2.61448C4.86164 2.61448 4.84028 2.60635 4.82378 2.59159C4.59693 2.42607 4.31367 2.35731 4.03619 2.40043C3.75871 2.44355 3.50968 2.59502 3.34376 2.82157C3.22736 2.96991 3.15527 3.14815 3.1358 3.3357C3.11634 3.52326 3.15031 3.71249 3.23378 3.88157C3.23855 3.89199 3.24101 3.90332 3.24103 3.91477C3.24104 3.92623 3.2386 3.93755 3.23386 3.94797C3.22912 3.9584 3.22219 3.96771 3.21355 3.97523C3.2049 3.98275 3.19476 3.98833 3.18378 3.99158L3.17377 4.02158Z" fill="#F1F2F2" stroke="#BDBDBD" stroke-width="0.25" stroke-miterlimit="10"/>
<path d="M3.22353 2.98156C3.21416 2.98601 3.20391 2.98831 3.19353 2.98831C3.18316 2.98831 3.17291 2.98601 3.16353 2.98156L3.04354 2.84158C2.97393 2.73558 2.94462 2.60811 2.96096 2.48236C2.97729 2.3566 3.03818 2.24088 3.13256 2.15619C3.22694 2.07149 3.34855 2.02343 3.47533 2.02075C3.60211 2.01807 3.72566 2.06094 3.82354 2.14157L4.00353 2.33157C4.01944 2.34748 4.02839 2.36906 4.02839 2.39157C4.02839 2.41407 4.01944 2.43565 4.00353 2.45157C3.98762 2.46748 3.96604 2.47641 3.94353 2.47641C3.92103 2.47641 3.89945 2.46748 3.88354 2.45157L3.70353 2.26156C3.67008 2.228 3.63034 2.20136 3.58658 2.18319C3.54283 2.16502 3.49592 2.15567 3.44854 2.15567C3.40116 2.15567 3.35423 2.16502 3.31048 2.18319C3.26672 2.20136 3.22698 2.228 3.19353 2.26156C3.12811 2.33034 3.09163 2.42164 3.09163 2.51657C3.09163 2.61149 3.12811 2.70279 3.19353 2.77157L3.31353 2.91156C3.32204 2.91906 3.32886 2.92831 3.33353 2.93866C3.3382 2.949 3.34061 2.9602 3.34061 2.97155C3.34061 2.9829 3.3382 2.99414 3.33353 3.00448C3.32886 3.01483 3.32204 3.02404 3.31353 3.03155L3.22353 2.98156Z" fill="#F1F2F2" stroke="#BDBDBD" stroke-width="0.25" stroke-miterlimit="10"/>
<path d="M3.03363 2.40158C3.02426 2.40603 3.01401 2.40832 3.00363 2.40832C2.99326 2.40832 2.98301 2.40603 2.97364 2.40158L2.33364 1.64157C2.30737 1.61005 2.28757 1.57368 2.27536 1.53451C2.26316 1.49534 2.2588 1.45416 2.26252 1.4133C2.26623 1.37244 2.27795 1.33271 2.29702 1.29639C2.31608 1.26006 2.34213 1.22783 2.37364 1.20157C2.40516 1.1753 2.44153 1.15551 2.4807 1.14331C2.51987 1.13111 2.56106 1.12672 2.60192 1.13043C2.64277 1.13415 2.6825 1.14588 2.71883 1.16495C2.75516 1.18401 2.78737 1.21006 2.81363 1.24158L3.46364 2.00156C3.4784 2.01806 3.48656 2.03941 3.48656 2.06155C3.48656 2.08369 3.4784 2.10508 3.46364 2.12158C3.45613 2.13009 3.4469 2.1369 3.43656 2.14157C3.42621 2.14624 3.41499 2.14865 3.40364 2.14865C3.39229 2.14865 3.38108 2.14624 3.37073 2.14157C3.36039 2.1369 3.35114 2.13009 3.34363 2.12158L2.69364 1.36157C2.6813 1.34681 2.66606 1.33474 2.64885 1.32614C2.63165 1.31754 2.61284 1.31257 2.59363 1.31155C2.57794 1.30436 2.5609 1.30066 2.54364 1.30066C2.52639 1.30066 2.50933 1.30436 2.49364 1.31155C2.48062 1.32372 2.47024 1.33845 2.46314 1.3548C2.45604 1.37114 2.45238 1.38874 2.45238 1.40655C2.45238 1.42437 2.45604 1.442 2.46314 1.45834C2.47024 1.47468 2.48062 1.48939 2.49364 1.50156L3.13364 2.26156C3.1484 2.27807 3.15656 2.29942 3.15656 2.32156C3.15656 2.3437 3.1484 2.36506 3.13364 2.38156L3.03363 2.40158Z" fill="#F1F2F2" stroke="#BDBDBD" stroke-width="0.25" stroke-miterlimit="10"/>
<path d="M6.84352 6.28156C6.83244 6.28623 6.82056 6.28867 6.80853 6.28867C6.79651 6.28867 6.78461 6.28623 6.77353 6.28156L5.43353 4.67157C5.41947 4.65671 5.41162 4.63704 5.41162 4.61658C5.41162 4.59612 5.41947 4.57641 5.43353 4.56155C5.44104 4.55304 5.45027 4.54623 5.46062 4.54156C5.47096 4.5369 5.48218 4.53448 5.49353 4.53448C5.50488 4.53448 5.5161 4.5369 5.52644 4.54156C5.53679 4.54623 5.54602 4.55304 5.55353 4.56155L6.91353 6.20157C6.92185 6.20812 6.92857 6.21649 6.9332 6.22601C6.93782 6.23554 6.94023 6.24597 6.94023 6.25656C6.94023 6.26715 6.93782 6.27761 6.9332 6.28714C6.92857 6.29667 6.92185 6.305 6.91353 6.31155C6.91353 6.31155 6.91352 6.28156 6.84352 6.28156Z" fill="#F1F2F2" stroke="#BDBDBD" stroke-width="0.25" stroke-miterlimit="10"/>
<path d="M6.37334 6.64157C6.36396 6.64602 6.3537 6.64832 6.34332 6.64832C6.33295 6.64832 6.3227 6.64602 6.31332 6.64157L4.98334 5.03156C4.96927 5.0167 4.96143 4.99702 4.96143 4.97656C4.96143 4.9561 4.96927 4.93643 4.98334 4.92157C4.99753 4.91021 5.01515 4.90402 5.03333 4.90402C5.0515 4.90402 5.06914 4.91021 5.08333 4.92157L6.40334 6.53156C6.41809 6.54806 6.42625 6.56945 6.42625 6.59158C6.42625 6.61372 6.41809 6.63508 6.40334 6.65158H6.34332L6.37334 6.64157Z" fill="#F1F2F2" stroke="#BDBDBD" stroke-width="0.25" stroke-miterlimit="10"/>
<path d="M6.91331 7.49156C6.77444 7.49155 6.63871 7.45022 6.52339 7.37285C6.40806 7.29548 6.31837 7.18558 6.26569 7.05708C6.21302 6.92859 6.19975 6.78731 6.22758 6.65126C6.25541 6.51521 6.32308 6.39053 6.42198 6.29305C6.52087 6.19556 6.64654 6.12968 6.78298 6.10381C6.91942 6.07794 7.06047 6.09323 7.1882 6.14775C7.31592 6.20227 7.42452 6.29354 7.50022 6.40996C7.57592 6.52638 7.61529 6.6627 7.61331 6.80156C7.61331 6.89302 7.59514 6.98358 7.55984 7.06795C7.52454 7.15232 7.47283 7.22881 7.40769 7.29302C7.34256 7.35722 7.2653 7.40786 7.18043 7.44194C7.09556 7.47602 7.00476 7.49289 6.91331 7.49156ZM6.91331 6.27156C6.84417 6.27155 6.77572 6.2853 6.71197 6.31206C6.64822 6.33881 6.59045 6.37803 6.54203 6.42738C6.49361 6.47673 6.45552 6.53522 6.42999 6.59947C6.40445 6.66372 6.39197 6.73244 6.3933 6.80156C6.3933 6.93947 6.4481 7.07172 6.54562 7.16924C6.64314 7.26675 6.7754 7.32155 6.91331 7.32155C6.98243 7.32288 7.05113 7.3104 7.11538 7.28487C7.17963 7.25933 7.23813 7.22126 7.28748 7.17284C7.33684 7.12442 7.37604 7.06663 7.4028 7.00288C7.42955 6.93913 7.44332 6.8707 7.44331 6.80156C7.44331 6.661 7.38747 6.52617 7.28808 6.42677C7.18869 6.32738 7.05387 6.27156 6.91331 6.27156Z" fill="#F1F2F2" stroke="#BDBDBD" stroke-width="0.25" stroke-miterlimit="10"/>
<path d="M6.9133 7.08157C6.83983 7.07908 6.77006 7.04878 6.71808 6.9968C6.6661 6.94482 6.63579 6.87504 6.6333 6.80157C6.6333 6.72731 6.66281 6.65609 6.71532 6.60358C6.76783 6.55107 6.83904 6.52158 6.9133 6.52158C6.98756 6.52158 7.05877 6.55107 7.11128 6.60358C7.16379 6.65609 7.1933 6.72731 7.1933 6.80157C7.1933 6.87584 7.16379 6.94706 7.11128 6.99957C7.05877 7.05208 6.98756 7.08157 6.9133 7.08157ZM6.9133 6.68158C6.89797 6.68152 6.8828 6.68465 6.86876 6.6908C6.85472 6.69694 6.84211 6.70593 6.83176 6.71722C6.8214 6.72852 6.81352 6.74189 6.80862 6.75641C6.80372 6.77093 6.80191 6.78631 6.8033 6.80157C6.8033 6.83075 6.81488 6.85874 6.83551 6.87936C6.85614 6.89999 6.88413 6.91156 6.9133 6.91156C6.94284 6.90963 6.97083 6.89769 6.99265 6.87769C7.01447 6.85768 7.0288 6.83083 7.03329 6.80157C7.03329 6.76975 7.02066 6.73921 6.99815 6.71671C6.97565 6.6942 6.94513 6.68158 6.9133 6.68158Z" fill="#F1F2F2" stroke="#BDBDBD" stroke-width="0.25" stroke-miterlimit="10"/>
<path d="M7.2637 9.13156H6.62371C6.61239 9.13299 6.60089 9.13198 6.59 9.1286C6.57911 9.12523 6.56907 9.11958 6.56055 9.112C6.55203 9.10443 6.54522 9.09511 6.54059 9.08469C6.53596 9.07427 6.5336 9.06298 6.53369 9.05158V7.31156C6.53369 7.28769 6.54318 7.26481 6.56006 7.24793C6.57694 7.23105 6.59984 7.22156 6.62371 7.22156C6.63511 7.22147 6.6464 7.22383 6.65682 7.22846C6.66724 7.23309 6.67654 7.23989 6.68412 7.24842C6.69169 7.25694 6.69735 7.26697 6.70073 7.27787C6.70411 7.28876 6.70512 7.30024 6.70369 7.31156V8.96158H7.1837V7.31156C7.18357 7.28932 7.19165 7.26784 7.20642 7.25122C7.2212 7.23461 7.24161 7.22403 7.2637 7.22156C7.28757 7.22156 7.31046 7.23105 7.32733 7.24793C7.34421 7.26481 7.3537 7.28769 7.3537 7.31156V9.05158C7.35379 9.06298 7.35143 9.07427 7.3468 9.08469C7.34217 9.09511 7.33537 9.10443 7.32685 9.112C7.31832 9.11958 7.30829 9.12523 7.2974 9.1286C7.2865 9.13198 7.27502 9.13299 7.2637 9.13156Z" fill="#F1F2F2" stroke="#BDBDBD" stroke-width="0.25" stroke-miterlimit="10"/>
</svg>
