<svg width="9" height="10" viewBox="0 0 9 10" fill="none" xmlns="http://www.w3.org/2000/svg">
<path d="M6.07992 3.19994C6.12428 3.10251 6.14812 2.99699 6.14993 2.88994C6.15214 2.72819 6.09486 2.57124 5.98898 2.44893C5.8831 2.32663 5.73599 2.2475 5.57559 2.22652C5.41518 2.20555 5.25264 2.2442 5.11886 2.33516C4.98509 2.42613 4.8894 2.56305 4.84994 2.71993H4.57992C3.98896 2.72072 3.41758 2.93168 2.96786 3.31508C2.51815 3.69848 2.21942 4.22934 2.12515 4.81273C2.03088 5.39613 2.1472 5.99403 2.45327 6.49956C2.75935 7.00509 3.23523 7.38528 3.79586 7.57216C4.3565 7.75904 4.96534 7.74042 5.51352 7.51964C6.06169 7.29886 6.51349 6.89031 6.78811 6.36702C7.06273 5.84374 7.14227 5.23987 7.01254 4.66332C6.88281 4.08677 6.55222 3.57514 6.07992 3.21993V3.19994ZM5.47995 2.45995C5.56499 2.45995 5.64813 2.48515 5.71884 2.5324C5.78955 2.57965 5.84468 2.64682 5.87722 2.72539C5.90977 2.80396 5.91829 2.89042 5.9017 2.97384C5.88511 3.05725 5.8441 3.13385 5.78396 3.19399C5.72383 3.25413 5.64722 3.29507 5.56381 3.31167C5.4804 3.32826 5.39397 3.31974 5.3154 3.28719C5.23682 3.25464 5.16965 3.19955 5.1224 3.12883C5.07515 3.05812 5.04995 2.97499 5.04995 2.88994C5.0525 2.7767 5.09858 2.6688 5.17868 2.5887C5.25877 2.50861 5.3667 2.4625 5.47995 2.45995ZM4.57992 7.45995C4.26848 7.48061 3.95614 7.43709 3.6622 7.33211C3.36825 7.22713 3.09895 7.06291 2.87106 6.84963C2.64317 6.63635 2.46151 6.37856 2.33731 6.09221C2.2131 5.80586 2.14901 5.49705 2.14901 5.18493C2.14901 4.8728 2.2131 4.56402 2.33731 4.27767C2.46151 3.99132 2.64317 3.7335 2.87106 3.52022C3.09895 3.30695 3.36825 3.14275 3.6622 3.03777C3.95614 2.93279 4.26848 2.88927 4.57992 2.90993H4.82992C4.83764 3.07707 4.90953 3.23479 5.03061 3.35027C5.15168 3.46575 5.31263 3.53011 5.47995 3.52993C5.64548 3.52908 5.80521 3.46876 5.92996 3.35994C6.31195 3.64468 6.59467 4.04238 6.73806 4.49672C6.88146 4.95107 6.87824 5.43904 6.72891 5.89147C6.57957 6.3439 6.29166 6.73786 5.90597 7.01757C5.52028 7.29728 5.05636 7.44855 4.57992 7.44994V7.45995Z" fill="white"/>
<path d="M4.57986 3.93994C4.28297 3.94289 3.99684 4.05144 3.77267 4.24612C3.5485 4.44081 3.40092 4.70892 3.35641 5.00247C3.3119 5.29602 3.37338 5.59585 3.52975 5.84824C3.68612 6.10063 3.92719 6.28911 4.20987 6.37994C4.23506 6.49636 4.29947 6.6006 4.3923 6.67523C4.48513 6.74986 4.60077 6.79035 4.71987 6.78995C4.86044 6.78995 4.99524 6.7341 5.09463 6.6347C5.19403 6.53531 5.24984 6.40051 5.24984 6.25995C5.48328 6.1184 5.66353 5.90377 5.76254 5.64935C5.86154 5.39494 5.8738 5.11495 5.79745 4.85284C5.7211 4.59074 5.56038 4.36115 5.34024 4.19971C5.12009 4.03826 4.8528 3.954 4.57986 3.95996V3.93994ZM4.71987 6.56995C4.65094 6.5572 4.58863 6.52072 4.54379 6.46683C4.49895 6.41294 4.47439 6.34504 4.47439 6.27493C4.47439 6.20483 4.49895 6.13696 4.54379 6.08307C4.58863 6.02918 4.65094 5.9927 4.71987 5.97995C4.76316 5.97195 4.80766 5.97355 4.85025 5.98468C4.89283 5.99581 4.93244 6.01619 4.96627 6.04434C5.00011 6.0725 5.02736 6.10773 5.04605 6.14758C5.06473 6.18744 5.07443 6.23092 5.07443 6.27493C5.07443 6.31895 5.06473 6.36243 5.04605 6.40228C5.02736 6.44214 5.00011 6.4774 4.96627 6.50555C4.93244 6.53371 4.89283 6.55409 4.85025 6.56522C4.80766 6.57634 4.76316 6.57795 4.71987 6.56995ZM5.1799 6.02994C5.13793 5.94424 5.07232 5.87234 4.99081 5.82272C4.9093 5.77311 4.81528 5.74785 4.71987 5.74994C4.60259 5.75078 4.48886 5.79053 4.39657 5.86292C4.30428 5.9353 4.23863 6.03623 4.20987 6.14993C4.04696 6.08026 3.90551 5.96857 3.79995 5.82626C3.6944 5.68396 3.62856 5.51614 3.60916 5.34003C3.58975 5.16391 3.61744 4.98582 3.68948 4.82394C3.76152 4.66207 3.8753 4.52224 4.01913 4.41876C4.16296 4.31529 4.3317 4.25189 4.50808 4.23505C4.68446 4.2182 4.8621 4.24852 5.02291 4.32291C5.18372 4.39729 5.32193 4.51307 5.42331 4.65839C5.52468 4.8037 5.5856 4.97333 5.59988 5.14993C5.61206 5.32613 5.58003 5.5026 5.50668 5.66327C5.43333 5.82394 5.32101 5.96373 5.1799 6.06995V6.02994Z" fill="white"/>
<path d="M3.14985 1.39996C3.05377 1.26276 2.92711 1.14979 2.77985 1.06997C2.54015 0.928107 2.25459 0.885292 1.98383 0.950649C1.71307 1.01601 1.47843 1.18439 1.32984 1.41998C1.20145 1.61162 1.1433 1.84174 1.16517 2.07138C1.18704 2.30101 1.28758 2.516 1.44983 2.67996C1.35526 2.79054 1.26838 2.90749 1.18982 3.02996C0.681552 3.83389 0.476417 4.79262 0.611151 5.73416C0.745884 6.67569 1.21171 7.53842 1.92505 8.16754C2.6384 8.79665 3.55256 9.15099 4.50355 9.16699C5.45454 9.18298 6.38011 8.85956 7.1142 8.25479C7.84829 7.65002 8.34284 6.80347 8.50916 5.867C8.67548 4.93053 8.50269 3.96543 8.02173 3.14486C7.54078 2.3243 6.78317 1.70197 5.88483 1.38952C4.98649 1.07707 4.00622 1.09496 3.11988 1.43997L3.14985 1.39996ZM1.66987 1.56997C1.74207 1.45662 1.84625 1.3672 1.96924 1.31301C2.09224 1.25883 2.22853 1.2423 2.36091 1.26553C2.49328 1.28876 2.61582 1.35069 2.71302 1.44351C2.81022 1.53633 2.87775 1.65588 2.90705 1.78704C2.93635 1.91821 2.92609 2.05512 2.87763 2.18048C2.82917 2.30584 2.74468 2.41404 2.63477 2.49139C2.52486 2.56874 2.3945 2.6118 2.26014 2.61511C2.12578 2.61842 1.99341 2.58183 1.87983 2.50997C1.80421 2.46214 1.73882 2.39986 1.68732 2.32669C1.63582 2.25351 1.59923 2.17088 1.57972 2.08355C1.56021 1.99623 1.55815 1.90591 1.57361 1.81778C1.58908 1.72964 1.62179 1.64544 1.66987 1.56997ZM7.59986 6.98999C7.34903 7.38986 7.02191 7.7364 6.63715 8.00985C6.25239 8.2833 5.81754 8.47828 5.35743 8.58367C4.42818 8.79653 3.45243 8.63153 2.64484 8.12497C1.83726 7.6184 1.26401 6.81178 1.05115 5.88253C0.838299 4.95329 1.00327 3.97756 1.50983 3.16998L1.73987 2.83996C1.85341 2.90649 1.97895 2.94998 2.10932 2.96789C2.23969 2.9858 2.3723 2.97781 2.49958 2.94436C2.62685 2.91092 2.7463 2.8527 2.85102 2.77301C2.95574 2.69332 3.04371 2.59373 3.10987 2.47998C3.24561 2.25873 3.29871 1.99662 3.25983 1.73999C3.78106 1.54168 4.34105 1.46646 4.89612 1.52023C5.4512 1.574 5.98637 1.75532 6.45984 2.04998C6.85956 2.29904 7.20621 2.62452 7.47993 3.00778C7.75364 3.39103 7.94904 3.82451 8.05494 4.28341C8.16084 4.74231 8.17515 5.21759 8.09705 5.68203C8.01896 6.14647 7.85002 6.59096 7.59986 6.98999Z" fill="white"/>
</svg>
