<svg width="446" height="446" viewBox="0 0 446 446" fill="none" xmlns="http://www.w3.org/2000/svg">
<g clip-path="url(#clip0_1390_444)">
<path d="M223 446C346.16 446 446 346.16 446 223C446 99.8405 346.16 0 223 0C99.8405 0 0 99.8405 0 223C0 346.16 99.8405 446 223 446Z" fill="#FFD983"/>
<path d="M130.083 148.667C154.031 148.667 173.444 129.253 173.444 105.306C173.444 81.3579 154.031 61.9445 130.083 61.9445C106.136 61.9445 86.7222 81.3579 86.7222 105.306C86.7222 129.253 106.136 148.667 130.083 148.667Z" fill="#FFCC4D"/>
<path d="M247.778 247.778C268.304 247.778 284.944 231.138 284.944 210.611C284.944 190.084 268.304 173.444 247.778 173.444C227.251 173.444 210.611 190.084 210.611 210.611C210.611 231.138 227.251 247.778 247.778 247.778Z" fill="#FFCC4D"/>
<path d="M303.528 396.444C327.476 396.444 346.889 377.031 346.889 353.083C346.889 329.136 327.476 309.722 303.528 309.722C279.58 309.722 260.167 329.136 260.167 353.083C260.167 377.031 279.58 396.444 303.528 396.444Z" fill="#FFCC4D"/>
<path d="M272.556 86.7222C286.24 86.7222 297.333 75.6288 297.333 61.9444C297.333 48.26 286.24 37.1666 272.556 37.1666C258.871 37.1666 247.778 48.26 247.778 61.9444C247.778 75.6288 258.871 86.7222 272.556 86.7222Z" fill="#FFCC4D"/>
<path d="M37.1667 235.389C44.0089 235.389 49.5556 229.842 49.5556 223C49.5556 216.158 44.0089 210.611 37.1667 210.611C30.3245 210.611 24.7778 216.158 24.7778 223C24.7778 229.842 30.3245 235.389 37.1667 235.389Z" fill="#FFCC4D"/>
<path d="M371.667 123.889C378.509 123.889 384.056 118.342 384.056 111.5C384.056 104.658 378.509 99.1111 371.667 99.1111C364.825 99.1111 359.278 104.658 359.278 111.5C359.278 118.342 364.825 123.889 371.667 123.889Z" fill="#FFCC4D"/>
<path d="M185.833 396.444C192.676 396.444 198.222 390.898 198.222 384.056C198.222 377.213 192.676 371.667 185.833 371.667C178.991 371.667 173.445 377.213 173.445 384.056C173.445 390.898 178.991 396.444 185.833 396.444Z" fill="#FFCC4D"/>
<path d="M396.445 260.167C410.129 260.167 421.222 249.073 421.222 235.389C421.222 221.704 410.129 210.611 396.445 210.611C382.76 210.611 371.667 221.704 371.667 235.389C371.667 249.073 382.76 260.167 396.445 260.167Z" fill="#FFCC4D"/>
<path d="M123.889 309.722C137.573 309.722 148.667 298.629 148.667 284.944C148.667 271.26 137.573 260.167 123.889 260.167C110.204 260.167 99.1111 271.26 99.1111 284.944C99.1111 298.629 110.204 309.722 123.889 309.722Z" fill="#FFCC4D"/>
</g>
<defs>
<clipPath id="clip0_1390_444">
<rect width="446" height="446" fill="white"/>
</clipPath>
</defs>
</svg>
