<svg width="8" height="8" viewBox="0 0 8 8" fill="none" xmlns="http://www.w3.org/2000/svg">
<path d="M7.03 2.22C7.11051 2.22004 7.18788 2.18874 7.24574 2.13275C7.30359 2.07676 7.3374 2.00045 7.34 1.91998C7.34002 1.87973 7.33194 1.83989 7.31625 1.80283C7.30055 1.76576 7.27755 1.73225 7.24863 1.70425C7.2197 1.67626 7.18543 1.65437 7.14787 1.63989C7.11031 1.62542 7.07023 1.61865 7.03 1.62H6.36L5.88 0.899994C5.76666 0.742834 5.61577 0.616562 5.44109 0.532715C5.26641 0.448868 5.07351 0.410107 4.88 0.419983H3.98V0.309998C3.98 0.22778 3.94733 0.148926 3.8892 0.0907898C3.83106 0.0326535 3.75222 0 3.67 0C3.58778 0 3.50893 0.0326535 3.45079 0.0907898C3.39265 0.148926 3.36 0.22778 3.36 0.309998V0.410004H2.46C2.26649 0.400128 2.07358 0.438889 1.8989 0.522736C1.72422 0.606582 1.57333 0.732824 1.46 0.889984L0.969994 1.60999H0.309998C0.269768 1.60864 0.229676 1.61544 0.192116 1.62991C0.154556 1.64439 0.120295 1.66625 0.0913697 1.69424C0.0624443 1.72224 0.0394482 1.75578 0.0237504 1.79285C0.00805247 1.82991 -2.23225e-05 1.86975 4.63476e-08 1.91C0.00259724 1.99048 0.0363964 2.06678 0.0942536 2.12277C0.152111 2.17876 0.229484 2.21003 0.309998 2.20999C0.229484 2.20995 0.152111 2.24125 0.0942536 2.29724C0.0363964 2.35323 0.00259724 2.42954 4.63476e-08 2.51001C-2.23225e-05 2.55026 0.00805247 2.5901 0.0237504 2.62717C0.0394482 2.66423 0.0624443 2.69775 0.0913697 2.72574C0.120295 2.75373 0.154556 2.77563 0.192116 2.7901C0.229676 2.80457 0.269768 2.81134 0.309998 2.81H0.969994L1.46 3.53C1.57333 3.68716 1.72422 3.81343 1.8989 3.89728C2.07358 3.98112 2.26649 4.01989 2.46 4.01001H3.36V4.81L1.77 6.73001C1.7402 6.75629 1.71634 6.78859 1.7 6.8248C1.68365 6.86101 1.6752 6.90028 1.6752 6.94C1.6752 6.97973 1.68365 7.019 1.7 7.05521C1.71634 7.09141 1.7402 7.12372 1.77 7.14999C1.83403 7.1994 1.91484 7.22184 1.99517 7.21249C2.07551 7.20315 2.14901 7.16279 2.2 7.10001L3.3 5.76999V6.91C3.3 6.99222 3.33266 7.07108 3.39079 7.12921C3.44893 7.18735 3.52778 7.22 3.61 7.22C3.69222 7.22 3.77106 7.18735 3.8292 7.12921C3.88734 7.07108 3.92 6.99222 3.92 6.91V5.76999L5.02 7.10001C5.08565 7.16809 5.17545 7.20759 5.27 7.20999C5.338 7.21005 5.40436 7.18909 5.46 7.14999C5.48844 7.12291 5.51108 7.09033 5.52655 7.05423C5.54202 7.01813 5.55 6.97928 5.55 6.94C5.55 6.90073 5.54202 6.86187 5.52655 6.82578C5.51108 6.78968 5.48844 6.7571 5.46 6.73001L3.87 4.81V4.01001H4.78C4.96377 4.01169 5.14522 3.96892 5.30889 3.88535C5.47256 3.80177 5.6136 3.67985 5.71999 3.53L6.21 2.81H6.87C6.91023 2.81134 6.95032 2.80457 6.98788 2.7901C7.02544 2.77563 7.0597 2.75373 7.08862 2.72574C7.11755 2.69775 7.14054 2.66423 7.15624 2.62717C7.17194 2.5901 7.18002 2.55026 7.18 2.51001C7.1774 2.42954 7.1436 2.35323 7.08574 2.29724C7.02788 2.24125 6.95051 2.20995 6.87 2.20999L7.03 2.22ZM2.03 1.22C2.07726 1.15 2.14147 1.0931 2.21667 1.05463C2.29186 1.01616 2.37558 0.997367 2.46 1H4.88C4.96397 0.999982 5.04675 1.01992 5.12151 1.05817C5.19627 1.09642 5.26088 1.15189 5.31 1.22L5.57 1.60001H1.77L2.03 1.22ZM5.31 3.22C5.26139 3.28938 5.19714 3.34634 5.12244 3.38629C5.04774 3.42625 4.96469 3.44809 4.88 3.45001H2.46C2.37482 3.45063 2.29084 3.42989 2.21573 3.38971C2.14062 3.34953 2.07676 3.2912 2.03 3.22L1.77 2.85001H5.57L5.31 3.22Z" fill="#BDBDBD"/>
</svg>
