<svg width="9" height="9" viewBox="0 0 9 9" fill="none" xmlns="http://www.w3.org/2000/svg">
<path d="M8.26723 7.83002H7.70723C7.6841 7.83019 7.66141 7.82367 7.64189 7.81125C7.62238 7.79883 7.60687 7.78104 7.59723 7.76001L7.26723 6.76001C7.78407 6.15083 8.0986 5.39594 8.16723 4.60001H8.26723C8.31468 4.60836 8.36338 4.60623 8.40992 4.59375C8.45646 4.58127 8.4997 4.55875 8.53661 4.52777C8.57351 4.4968 8.60318 4.45813 8.62354 4.41446C8.6439 4.37079 8.65446 4.32318 8.65446 4.27499C8.65446 4.22681 8.6439 4.17923 8.62354 4.13556C8.60318 4.09189 8.57351 4.05322 8.53661 4.02225C8.4997 3.99127 8.45646 3.96875 8.40992 3.95627C8.36338 3.94379 8.31468 3.94166 8.26723 3.95001H8.13723C8.069 3.16363 7.76194 2.41689 7.25723 1.81L7.34723 1.72C7.40485 1.65727 7.43683 1.57517 7.43683 1.48999C7.43683 1.40481 7.40485 1.32275 7.34723 1.26001C7.31653 1.22887 7.27994 1.20413 7.23959 1.18726C7.19925 1.17038 7.15596 1.16168 7.11223 1.16168C7.0685 1.16168 7.0252 1.17038 6.98486 1.18726C6.94451 1.20413 6.90793 1.22887 6.87723 1.26001L6.78722 1.35001C6.18847 0.836749 5.44315 0.525307 4.65723 0.459991V0.330017C4.65723 0.242496 4.62246 0.158536 4.56057 0.0966492C4.49868 0.0347622 4.41475 0 4.32722 0C4.2397 0 4.15577 0.0347622 4.09388 0.0966492C4.03199 0.158536 3.99723 0.242496 3.99723 0.330017V0.459991C3.20878 0.527228 2.46083 0.838306 1.85722 1.35001L1.76723 1.26001C1.73947 1.22079 1.70348 1.18808 1.66178 1.16422C1.62008 1.14035 1.57367 1.12589 1.52579 1.12183C1.47792 1.11776 1.42974 1.1242 1.38461 1.14069C1.33948 1.15718 1.29849 1.18331 1.26451 1.21729C1.23054 1.25126 1.20439 1.29224 1.1879 1.33737C1.17141 1.3825 1.16498 1.4307 1.16904 1.47858C1.17311 1.52645 1.18758 1.57286 1.21145 1.61456C1.23532 1.65626 1.26801 1.69225 1.30723 1.72L1.39722 1.81C0.885525 2.4136 0.574462 3.16156 0.507225 3.95001H0.38723C0.339779 3.94166 0.291067 3.94379 0.24453 3.95627C0.197992 3.96875 0.154757 3.99127 0.117851 4.02225C0.0809459 4.05322 0.0512664 4.09189 0.0309067 4.13556C0.0105469 4.17923 0 4.22681 0 4.27499C0 4.32318 0.0105469 4.37079 0.0309067 4.41446C0.0512664 4.45813 0.0809459 4.4968 0.117851 4.52777C0.154757 4.55875 0.197992 4.58127 0.24453 4.59375C0.291067 4.60623 0.339779 4.60836 0.38723 4.60001H0.507225C0.57471 5.39807 0.893286 6.15425 1.41723 6.76001L1.07722 7.76001C1.07062 7.78108 1.05724 7.79938 1.03915 7.81204C1.02106 7.8247 0.999284 7.83103 0.977226 7.83002H0.417229C0.329707 7.83002 0.245771 7.86478 0.183884 7.92667C0.121997 7.98855 0.0872269 8.07248 0.0872269 8.16C0.0872269 8.24753 0.121997 8.33145 0.183884 8.39334C0.245771 8.45523 0.329707 8.48999 0.417229 8.48999H0.977226C1.13823 8.49063 1.29516 8.43947 1.42483 8.34402C1.55449 8.24858 1.65 8.11391 1.69723 7.95999L1.95723 7.20001C2.63528 7.75162 3.48314 8.05189 4.35722 8.04999C5.23061 8.04783 6.07717 7.74803 6.75723 7.20001L7.00723 7.95999C7.05771 8.11388 7.15542 8.24796 7.28648 8.34311C7.41754 8.43826 7.57527 8.48964 7.73723 8.48999H8.26723C8.35475 8.48999 8.43869 8.45523 8.50057 8.39334C8.56246 8.33145 8.59723 8.24753 8.59723 8.16C8.59723 8.07248 8.56246 7.98855 8.50057 7.92667C8.43869 7.86478 8.35475 7.83002 8.26723 7.83002ZM4.26723 7.39001C3.63744 7.39199 3.02124 7.20691 2.49676 6.85825C1.97228 6.50958 1.56315 6.01302 1.32122 5.43155C1.0793 4.85007 1.01548 4.20986 1.13786 3.59207C1.26025 2.97428 1.56331 2.40676 2.00864 1.96143C2.45398 1.51609 3.02152 1.21302 3.63931 1.09064C4.25709 0.968255 4.89731 1.03206 5.47879 1.27399C6.06027 1.51591 6.55681 1.92505 6.90547 2.44952C7.25413 2.974 7.4392 3.59021 7.43723 4.22C7.43459 5.05993 7.09976 5.8647 6.50584 6.45862C5.91192 7.05254 5.10715 7.38738 4.26723 7.39001Z" fill="#55DEF6"/>
<path d="M4.26707 1.70001C3.76866 1.70001 3.28145 1.84779 2.86703 2.12469C2.45262 2.4016 2.12963 2.79518 1.93889 3.25565C1.74816 3.71612 1.69826 4.22281 1.79549 4.71164C1.89273 5.20047 2.13274 5.64949 2.48517 6.00192C2.8376 6.35435 3.28661 6.59435 3.77544 6.69159C4.26427 6.78882 4.77097 6.73892 5.23144 6.54819C5.69191 6.35745 6.08548 6.03444 6.36238 5.62003C6.63928 5.20561 6.78707 4.71841 6.78707 4.22C6.78707 3.55166 6.52157 2.91067 6.04898 2.43808C5.57639 1.96549 4.93542 1.70001 4.26707 1.70001ZM4.26707 6.08002C3.8992 6.08002 3.53959 5.97092 3.23371 5.76654C2.92783 5.56216 2.68944 5.27166 2.54866 4.93179C2.40788 4.59192 2.37105 4.21795 2.44282 3.85715C2.51458 3.49634 2.69173 3.16491 2.95186 2.90479C3.21198 2.64466 3.5434 2.46752 3.9042 2.39575C4.26501 2.32398 4.63899 2.36081 4.97887 2.50159C5.31874 2.64237 5.60923 2.88077 5.8136 3.18665C6.01798 3.49252 6.12707 3.85213 6.12707 4.22C6.12707 4.46426 6.07896 4.70613 5.98549 4.93179C5.89201 5.15746 5.75501 5.3625 5.58229 5.53522C5.40957 5.70793 5.20453 5.84494 4.97887 5.93842C4.7532 6.03189 4.51133 6.08002 4.26707 6.08002Z" fill="#55DEF6"/>
</svg>
