<svg width="8" height="8" viewBox="0 0 8 8" fill="none" xmlns="http://www.w3.org/2000/svg">
<path d="M6.96361 2.70999H3.96361V2.13H6.96361C7.0055 2.13789 7.04862 2.13644 7.08989 2.12576C7.13116 2.11508 7.16955 2.09542 7.20236 2.06821C7.23517 2.04099 7.26158 2.0069 7.27971 1.96832C7.29783 1.92974 7.30724 1.88763 7.30724 1.845C7.30724 1.80237 7.29783 1.76026 7.27971 1.72168C7.26158 1.6831 7.23517 1.64901 7.20236 1.6218C7.16955 1.59458 7.13116 1.57492 7.08989 1.56424C7.04862 1.55356 7.0055 1.55212 6.96361 1.56H6.34361L5.85361 0.869995C5.74498 0.72319 5.60324 0.604102 5.4399 0.52243C5.27655 0.440759 5.09624 0.398811 4.91362 0.399994H4.00362V0.309998C4.00362 0.22778 3.97095 0.148926 3.91281 0.0907898C3.85468 0.0326535 3.77584 0 3.69362 0C3.6114 0 3.53255 0.0326535 3.47441 0.0907898C3.41627 0.148926 3.38361 0.22778 3.38361 0.309998V0.399994H2.48361C2.30099 0.398811 2.12068 0.440759 1.95734 0.52243C1.79399 0.604102 1.65223 0.72319 1.54361 0.869995L1.05362 1.56H0.343613C0.301721 1.55212 0.258613 1.55356 0.217346 1.56424C0.176079 1.57492 0.137668 1.59458 0.104858 1.6218C0.0720486 1.64901 0.0456366 1.6831 0.0275116 1.72168C0.00938656 1.76026 0 1.80237 0 1.845C0 1.88763 0.00938656 1.92974 0.0275116 1.96832C0.0456366 2.0069 0.0720486 2.04099 0.104858 2.06821C0.137668 2.09542 0.176079 2.11508 0.217346 2.12576C0.258613 2.13644 0.301721 2.13789 0.343613 2.13H3.34361V2.70999H0.343613C0.305529 2.70999 0.26782 2.71751 0.232635 2.73209C0.197451 2.74666 0.165479 2.76802 0.13855 2.79495C0.111621 2.82188 0.0902575 2.85382 0.0756836 2.88901C0.0611097 2.92419 0.0536194 2.96192 0.0536194 3C0.0536194 3.03808 0.0611097 3.07581 0.0756836 3.11099C0.0902575 3.14618 0.111621 3.17812 0.13855 3.20505C0.165479 3.23198 0.197451 3.25334 0.232635 3.26791C0.26782 3.28249 0.305529 3.29001 0.343613 3.29001H1.00362L1.49361 3.97C1.6005 4.11863 1.74191 4.23905 1.90565 4.32092C2.0694 4.4028 2.25057 4.44367 2.43361 4.44H3.33362V5.25L1.75362 7.10001C1.72695 7.12791 1.70683 7.16141 1.69472 7.19806C1.68261 7.23471 1.67881 7.27359 1.68359 7.31189C1.68838 7.35019 1.70164 7.38692 1.7224 7.41946C1.74316 7.452 1.7709 7.47952 1.80362 7.5C1.86765 7.5494 1.94844 7.57184 2.02878 7.5625C2.10911 7.55316 2.18262 7.51279 2.23361 7.45001L3.33362 6.17001V7.25C3.33362 7.33222 3.36627 7.41107 3.42441 7.46921C3.48254 7.52734 3.5614 7.56 3.64362 7.56C3.72583 7.56 3.80467 7.52734 3.86281 7.46921C3.92094 7.41107 3.95361 7.33222 3.95361 7.25V6.14999L5.05362 7.42999C5.08206 7.46601 5.11865 7.49476 5.16037 7.51389C5.20209 7.53301 5.24776 7.54197 5.29361 7.54001C5.36474 7.54021 5.43433 7.51933 5.49361 7.48001C5.52495 7.4584 5.55136 7.43039 5.57112 7.39786C5.59088 7.36532 5.60354 7.32897 5.60826 7.2912C5.61298 7.25343 5.60967 7.21508 5.59853 7.17868C5.58738 7.14228 5.56867 7.10864 5.54361 7.07999L3.96361 5.25V4.48999H4.86362C5.04765 4.49116 5.2294 4.44928 5.39435 4.36768C5.5593 4.28607 5.70288 4.16699 5.81361 4.01999L6.34361 3.25H7.00362C7.08053 3.25 7.15429 3.21946 7.20868 3.16507C7.26306 3.11068 7.29361 3.0369 7.29361 2.95999C7.29361 2.88308 7.26306 2.80933 7.20868 2.75494C7.15429 2.70056 7.08053 2.67001 7.00362 2.67001L6.96361 2.70999ZM1.96361 1.19C2.01483 1.12487 2.08011 1.07216 2.15457 1.0358C2.22903 0.999433 2.31075 0.980361 2.39362 0.980011H4.82361C4.90647 0.980361 4.98819 0.999433 5.06265 1.0358C5.13711 1.07216 5.20239 1.12487 5.25362 1.19L5.51361 1.56H1.70361L1.96361 1.19ZM5.34361 3.64999C5.29449 3.71811 5.2299 3.77358 5.15514 3.81183C5.08038 3.85008 4.9976 3.87001 4.91362 3.87H2.44362C2.35964 3.87001 2.27685 3.85008 2.20209 3.81183C2.12733 3.77358 2.06273 3.71811 2.01361 3.64999L1.75362 3.29001H5.56361L5.34361 3.64999Z" fill="#BDBDBD"/>
</svg>
