<svg width="9" height="9" viewBox="0 0 9 9" fill="none" xmlns="http://www.w3.org/2000/svg">
<path d="M8.54125 1.22C8.56111 1.16507 8.56111 1.10495 8.54125 1.05002C8.47125 0.280018 5.97125 0 4.27125 0C2.57125 0 0.0712528 0.280018 0.0112528 1.05002C-0.00375093 1.1023 -0.00375093 1.15771 0.0112528 1.20999C0.372652 2.91171 1.14128 4.50044 2.25126 5.84C2.47631 6.12559 2.60264 6.47649 2.61126 6.84C2.60862 7.06609 2.56456 7.28979 2.48125 7.5C2.42695 7.60331 2.39857 7.71827 2.39857 7.83499C2.39857 7.95171 2.42695 8.0667 2.48125 8.17001C2.53092 8.25438 2.6008 8.32505 2.68459 8.37567C2.76839 8.4263 2.86346 8.45527 2.96125 8.45999C3.36125 8.45999 3.79125 8.45999 4.21125 8.45999C4.63125 8.45999 5.07126 8.45999 5.47126 8.45999C5.56776 8.45544 5.66151 8.42646 5.74372 8.37573C5.82593 8.32501 5.89391 8.25422 5.94126 8.17001C6.00264 8.0705 6.03922 7.95769 6.04792 7.84109C6.05662 7.7245 6.03718 7.60752 5.99125 7.5C5.90305 7.29126 5.85881 7.06659 5.86126 6.84C5.86539 6.47566 5.99222 6.12336 6.22126 5.84C7.36059 4.51278 8.15717 2.92648 8.54125 1.22ZM1.43125 4.04001C3.33101 4.40005 5.28149 4.40005 7.18125 4.04001C7.10607 4.18793 7.02261 4.33149 6.93125 4.47C5.19019 4.76334 3.41232 4.76334 1.67126 4.47L1.43125 4.04001ZM8.05125 1.95001C5.61239 2.70986 3.00011 2.70986 0.561256 1.95001C0.561256 1.83001 0.481255 1.70002 0.451255 1.58002C2.95768 2.36646 5.64483 2.36646 8.15125 1.58002C8.12728 1.70569 8.09385 1.82937 8.05125 1.95001ZM4.30125 2.81C5.52957 2.85392 6.75657 2.6917 7.93125 2.33002C7.7723 2.79899 7.58188 3.2567 7.36126 3.70001C5.34556 4.1133 3.26696 4.1133 1.25126 3.70001C1.02638 3.25865 0.835807 2.80064 0.681251 2.33002C1.8525 2.6917 3.07621 2.85394 4.30125 2.81ZM4.30125 0.300018C6.89125 0.300018 8.25125 0.800007 8.30125 1.07001V1.13C8.16125 1.41 6.80125 1.87 4.30125 1.87C1.80125 1.87 0.501246 1.42 0.301246 1.13V1.07001C0.371246 0.800007 1.72125 0.350006 4.30125 0.350006V0.300018ZM5.66125 6.80002C5.23125 6.80002 4.77125 6.85001 4.30125 6.85001C3.83125 6.85001 3.38126 6.85002 2.95126 6.80002C2.94446 6.66894 2.92774 6.53856 2.90125 6.41C3.35125 6.41 3.82125 6.45999 4.30125 6.45999C4.78125 6.45999 5.30125 6.46 5.71125 6.41C5.6799 6.5377 5.66312 6.66855 5.66125 6.80002ZM5.78126 8.04001C5.75722 8.08413 5.7228 8.12176 5.68099 8.14963C5.63918 8.1775 5.59123 8.19479 5.54125 8.20001C4.71901 8.2599 3.89349 8.2599 3.07125 8.20001C3.02127 8.19479 2.97332 8.1775 2.93151 8.14963C2.8897 8.12176 2.8553 8.08413 2.83126 8.04001C2.80184 7.97744 2.78658 7.90914 2.78658 7.84C2.78658 7.77086 2.80184 7.70258 2.83126 7.64001C2.91133 7.46624 2.96201 7.28036 2.98125 7.09C3.41125 7.09 3.86125 7.14001 4.35125 7.14001C4.84125 7.14001 5.28125 7.14 5.71125 7.09C5.73049 7.28036 5.78119 7.46624 5.86126 7.64001C5.88208 7.7081 5.88567 7.78028 5.87171 7.8501C5.85775 7.91991 5.82666 7.98517 5.78126 8.04001ZM5.78126 6.10001C5.27947 6.14943 4.77545 6.17281 4.27125 6.17001C3.76705 6.17235 3.26307 6.14898 2.76125 6.10001C2.69452 5.93722 2.60348 5.78548 2.49125 5.64999C2.27125 5.37666 2.06126 5.09666 1.86126 4.81C3.46328 5.03665 5.08924 5.03665 6.69126 4.81C6.49244 5.10397 6.27882 5.38768 6.05125 5.66C5.95101 5.79469 5.87023 5.94281 5.81126 6.10001H5.78126Z" fill="#BDBDBD"/>
</svg>
