<svg width="11" height="8" viewBox="0 0 11 8" fill="none" xmlns="http://www.w3.org/2000/svg">
<path d="M2.32975 4.97C2.30422 4.97133 2.27978 4.98076 2.25999 4.99695C2.2402 5.01314 2.2261 5.03524 2.21974 5.06C2.21934 5.08864 2.2292 5.11648 2.24754 5.13849C2.26588 5.1605 2.2915 5.17522 2.31974 5.17999H2.41975C2.39031 5.1537 2.367 5.12127 2.35145 5.08499C2.3359 5.04871 2.32849 5.00946 2.32975 4.97Z" fill="#8C8F8F"/>
<path d="M9.21993 6.70004C9.21768 6.75864 9.19408 6.81438 9.15355 6.85675C9.11302 6.89912 9.05836 6.92518 8.99993 6.93002C8.98318 6.97742 8.95199 7.01838 8.91072 7.04709C8.86946 7.0758 8.82021 7.09081 8.76995 7.09003C8.7308 7.1017 8.6891 7.1017 8.64995 7.09003L7.97994 7.63004L7.87993 7.50003L8.52993 6.98004C8.47538 6.93415 8.42819 6.88019 8.38994 6.82004L7.74993 7.34003L7.29995 6.79004L7.95995 6.26004C7.92784 6.24206 7.89972 6.21768 7.87737 6.18845C7.85501 6.15921 7.83888 6.12573 7.82994 6.09003L7.16994 6.63004L7.03994 6.46002V6.28003H6.95995L6.80996 6.47003C6.78024 6.50262 6.74213 6.52641 6.69979 6.53876C6.65745 6.55111 6.61251 6.55155 6.56993 6.54004L5.65993 7.27002C5.29383 7.5649 4.82877 7.70849 4.36016 7.6713C3.89155 7.6341 3.45494 7.41897 3.13994 7.07004L3.71993 7.13004C3.93081 7.1479 4.14091 7.08736 4.30996 6.96002C4.23606 6.93132 4.1656 6.89444 4.09993 6.85004L3.96993 6.90002V6.72003C3.90257 6.67909 3.83899 6.63222 3.77993 6.58002V6.95004L2.70995 6.83002C2.76859 6.72268 2.7993 6.60235 2.7993 6.48004C2.7993 6.35773 2.76859 6.23737 2.70995 6.13004L2.83995 6.03003C2.80766 6.01583 2.77857 5.99521 2.7545 5.96942C2.73044 5.94363 2.71188 5.91323 2.69994 5.88004L2.58995 5.97003C2.50511 5.87828 2.39755 5.81055 2.27816 5.77368C2.15876 5.73681 2.03173 5.73211 1.90993 5.76004L2.05996 4.35004C2.02072 4.35277 1.98145 4.34492 1.94628 4.32733C1.9111 4.30974 1.8813 4.28305 1.85994 4.25003V4.32004L0.639942 2.80002L1.00994 2.50003C1.00334 2.44224 1.01797 2.38401 1.05107 2.33618C1.08418 2.28836 1.13351 2.25419 1.18993 2.24002C1.19665 2.18764 1.22121 2.13917 1.25945 2.10275C1.29769 2.06633 1.34731 2.0442 1.39995 2.04004C1.50082 1.75493 1.69449 1.51194 1.94994 1.35004C1.94084 1.32957 1.93615 1.30743 1.93615 1.28503C1.93615 1.26264 1.94084 1.24049 1.94994 1.22003C1.9821 1.16135 2.02643 1.11021 2.07994 1.07004C1.83669 1.15879 1.6186 1.30523 1.44442 1.49683C1.27024 1.68842 1.14518 1.91946 1.07994 2.17004L0.269947 2.82004C0.194102 2.87917 0.131056 2.95309 0.0846438 3.03732C0.0382312 3.12155 0.00939973 3.21432 -7.30227e-05 3.31003C-0.0183982 3.50085 0.0390764 3.69122 0.159931 3.84003L1.63994 5.67004V5.84003C1.60896 6.13798 1.69649 6.43616 1.88362 6.67007C2.07076 6.90399 2.34246 7.05484 2.63994 7.09003H2.79995L2.87993 7.18002C3.2222 7.59821 3.71576 7.86435 4.25322 7.92053C4.79069 7.97671 5.32858 7.81841 5.74993 7.48004L6.86995 6.58002L7.86995 7.78003H7.93993C7.96264 7.78765 7.98723 7.78765 8.00994 7.78003L9.26995 6.78003C9.25537 6.75211 9.23864 6.72538 9.21993 6.70004ZM0.379932 3.70004C0.335648 3.64816 0.302952 3.58741 0.283985 3.52188C0.265017 3.45636 0.260227 3.38756 0.269947 3.32004C0.275351 3.25165 0.295048 3.18514 0.327777 3.12485C0.360507 3.06456 0.405543 3.01182 0.459949 2.97003L1.02993 3.68002L0.629932 4.00003L0.379932 3.70004ZM0.759937 4.16003L1.15993 3.84003L1.29995 4.02002L0.899951 4.34003L0.759937 4.16003ZM1.75994 5.37003L1.05996 4.50003L1.45995 4.18002L1.83995 4.65002L1.75994 5.37003ZM2.51995 6.82004C2.35275 6.75984 2.20683 6.65199 2.10021 6.50983C1.99358 6.36766 1.93091 6.19739 1.91994 6.02002C2.02228 5.98439 2.13318 5.98164 2.23717 6.01212C2.34116 6.04259 2.43302 6.1048 2.49993 6.19003C2.56907 6.28477 2.60552 6.39942 2.60372 6.51669C2.60191 6.63396 2.56198 6.74747 2.48995 6.84003L2.51995 6.82004Z" fill="#8C8F8F"/>
<path d="M2.84979 4.54002C2.82377 4.53959 2.79846 4.54839 2.77832 4.56487C2.75818 4.58134 2.74453 4.60443 2.73981 4.63002C2.73843 4.64316 2.73965 4.65645 2.74344 4.66911C2.74722 4.68178 2.7535 4.69355 2.76187 4.70378C2.77024 4.71401 2.78054 4.7225 2.79221 4.72871C2.80387 4.73493 2.81665 4.73876 2.8298 4.74001H2.95981C2.92691 4.71779 2.89977 4.68808 2.88065 4.65331C2.86152 4.61853 2.85093 4.5797 2.84979 4.54002Z" fill="#DBDCDC"/>
<path d="M9.74975 6.27997C9.74717 6.33922 9.72181 6.39519 9.67895 6.43619C9.6361 6.47718 9.57908 6.50003 9.51977 6.49997C9.50475 6.54923 9.47428 6.59237 9.43286 6.62299C9.39144 6.6536 9.34126 6.67008 9.28976 6.66998C9.25061 6.68165 9.20891 6.68165 9.16977 6.66998L8.50976 7.19998L8.40976 7.07996L9.04977 6.54996C8.99625 6.50978 8.95193 6.45865 8.91977 6.39996L8.27975 6.91998L7.82977 6.35995L8.47976 5.82996C8.44854 5.81466 8.4214 5.79222 8.40054 5.7644C8.37968 5.73659 8.36571 5.70424 8.35977 5.66998L7.69977 6.19998L7.56976 6.03998V5.91998L7.48977 5.96997C7.43977 6.02997 7.38977 6.09997 7.32977 6.15997C7.3012 6.19095 7.26434 6.21306 7.22357 6.22369C7.1828 6.23433 7.13982 6.23305 7.09976 6.21997L6.17978 6.95996C5.81273 7.25253 5.34819 7.39465 4.88028 7.35751C4.41237 7.32038 3.97606 7.10678 3.65976 6.75998L4.23977 6.81998C4.45237 6.83905 4.66403 6.77446 4.82977 6.63995C4.75626 6.61741 4.68817 6.57998 4.62976 6.52997C4.5917 6.55984 4.54717 6.58038 4.49975 6.58997V6.40997L4.31976 6.26996V6.62997L3.23977 6.51996C3.29842 6.41262 3.32913 6.29229 3.32913 6.16998C3.32913 6.04767 3.29842 5.92731 3.23977 5.81998L3.36978 5.71997C3.33482 5.7073 3.30362 5.68597 3.27914 5.65799C3.25466 5.63001 3.23768 5.59629 3.22976 5.55997L3.11978 5.64996C3.03122 5.56077 2.92138 5.49562 2.80066 5.46063C2.67993 5.42564 2.55231 5.42198 2.42978 5.44998L2.57977 4.03998C2.53992 4.03969 2.50076 4.02946 2.46585 4.01025C2.43093 3.99105 2.40134 3.96346 2.37976 3.92996V4.00998L1.14978 2.48996L1.51977 2.18997C1.51702 2.13287 1.53316 2.07645 1.5657 2.02945C1.59824 1.98245 1.64535 1.94748 1.69977 1.92996C1.70649 1.87758 1.73104 1.82911 1.76928 1.79269C1.80752 1.75627 1.85711 1.73414 1.90976 1.72998C2.01392 1.44671 2.20686 1.20468 2.45978 1.03998C2.45059 0.997132 2.45059 0.952819 2.45978 0.909973C2.49557 0.850833 2.54323 0.799763 2.59976 0.759979C2.35766 0.847775 2.14034 0.992699 1.96624 1.18246C1.79215 1.37223 1.66642 1.60122 1.59976 1.84998L0.789762 2.50998C0.716482 2.56849 0.655714 2.64112 0.611051 2.72357C0.566387 2.80603 0.538729 2.89662 0.529752 2.98996C0.509825 3.18401 0.567332 3.37809 0.689756 3.52997L2.16977 5.35995V5.52997C2.13879 5.82792 2.22632 6.1261 2.41345 6.36002C2.60058 6.59393 2.87228 6.74479 3.16977 6.77997H3.32977L3.39978 6.85995C3.56446 7.07348 3.77061 7.2515 4.00586 7.3833C4.2411 7.5151 4.50058 7.598 4.76867 7.62695C5.03677 7.65591 5.30795 7.63035 5.56592 7.55182C5.82388 7.47329 6.06329 7.34341 6.26977 7.16998L7.38977 6.25998L8.38977 7.45996C8.40084 7.46464 8.41275 7.46704 8.42477 7.46704C8.43679 7.46704 8.4487 7.46464 8.45977 7.45996C8.47194 7.46698 8.48571 7.47067 8.49975 7.47067C8.5138 7.47067 8.5276 7.46698 8.53976 7.45996L9.79977 6.45996C9.77396 6.40288 9.75708 6.34218 9.74975 6.27997ZM0.909757 3.27997C0.822773 3.17323 0.779852 3.0373 0.789762 2.89996C0.809801 2.76453 0.877107 2.64054 0.979764 2.54996L1.54977 3.25998L1.14978 3.57996L0.909757 3.27997ZM1.27975 3.73996L1.67978 3.41998L1.82977 3.59998L1.42978 3.91998L1.27975 3.73996ZM2.27975 4.94998L1.57977 4.07996L1.97976 3.75998L2.35977 4.22998L2.27975 4.94998ZM3.02975 6.39996C2.86697 6.33018 2.72566 6.21843 2.62024 6.07611C2.51482 5.93379 2.4491 5.76602 2.42978 5.58997C2.53226 5.55582 2.64271 5.55382 2.74637 5.5842C2.85002 5.61458 2.94193 5.67591 3.00976 5.75998C3.0844 5.85378 3.12503 5.9701 3.12503 6.08997C3.12503 6.20984 3.0844 6.32618 3.00976 6.41998L3.02975 6.39996Z" fill="#DBDCDC"/>
<path d="M4.88984 1.41004C4.88984 1.41004 4.88984 1.49003 4.88984 1.53003C4.89366 1.55251 4.90439 1.57324 4.92051 1.58936C4.93663 1.60548 4.95736 1.61621 4.97984 1.62003C4.99385 1.6201 5.00774 1.61721 5.02058 1.61158C5.03341 1.60594 5.0449 1.59769 5.05433 1.58731C5.06376 1.57694 5.0709 1.56468 5.07529 1.55136C5.07969 1.53805 5.08124 1.52399 5.07984 1.51004C5.07984 1.46004 5.07984 1.41003 5.07984 1.37003C5.07746 1.35677 5.07242 1.34412 5.06504 1.33286C5.05766 1.32159 5.04808 1.31195 5.03687 1.30448C5.02567 1.29701 5.01306 1.29188 4.99982 1.2894C4.98659 1.28692 4.973 1.28714 4.95985 1.29004C4.94674 1.29217 4.93426 1.29717 4.92332 1.30469C4.91237 1.31221 4.90321 1.32206 4.89652 1.33353C4.88983 1.345 4.88578 1.35781 4.88462 1.37104C4.88346 1.38426 4.88524 1.39758 4.88984 1.41004Z" fill="white"/>
<path d="M3.91992 0.51004C3.91981 0.537561 3.93 0.564108 3.94852 0.584473C3.96703 0.604837 3.99252 0.617524 4.01993 0.620026C4.16823 0.637339 4.31075 0.687643 4.43707 0.767242C4.56339 0.846842 4.67029 0.953708 4.74991 1.08002C4.7581 1.09429 4.76971 1.10633 4.78366 1.11505C4.79762 1.12377 4.81351 1.12893 4.82993 1.13004C4.8393 1.13448 4.84955 1.13678 4.85993 1.13678C4.8703 1.13678 4.88055 1.13448 4.88992 1.13004C4.90825 1.11134 4.91852 1.0862 4.91852 1.06003C4.91852 1.03385 4.90825 1.00871 4.88992 0.990021C4.79328 0.836597 4.66285 0.707291 4.50861 0.611969C4.35436 0.516647 4.18036 0.457844 3.99991 0.440033C3.98134 0.443 3.96401 0.45115 3.94986 0.463531C3.93571 0.475913 3.92533 0.492031 3.91992 0.51004Z" fill="white"/>
<path d="M3.99994 4.01999L3.53995 3.97C3.51343 3.97 3.48799 3.98054 3.46924 3.9993C3.45048 4.01805 3.43994 4.04349 3.43994 4.07001C3.43994 4.09653 3.45048 4.12196 3.46924 4.14072C3.48799 4.15947 3.51343 4.17001 3.53995 4.17001L3.99994 4.22C4.02646 4.22 4.05189 4.20946 4.07065 4.1907C4.0894 4.17195 4.09995 4.14652 4.09995 4.12C4.09995 4.09347 4.0894 4.06804 4.07065 4.04929C4.05189 4.03053 4.02646 4.01999 3.99994 4.01999Z" fill="white"/>
<path d="M10.75 5.5L10.47 5.14999C10.3823 5.04408 10.2604 4.97213 10.1253 4.94656C9.99015 4.921 9.85036 4.94345 9.73003 5.01001L9.55004 4.78H9.66002C9.68477 4.76365 9.7026 4.7387 9.71004 4.70999L10.16 2.86999C10.1646 2.85754 10.1664 2.84422 10.1653 2.83099C10.1641 2.81776 10.16 2.80496 10.1533 2.79349C10.1466 2.78202 10.1375 2.77217 10.1265 2.76465C10.1156 2.75713 10.1032 2.75213 10.09 2.75L9.65004 2.63998C9.51744 2.60926 9.37829 2.62534 9.25618 2.68549C9.13407 2.74563 9.0365 2.84615 8.98003 2.97L7.98003 2.73001H7.77004L7.82003 2.26999C7.83113 2.1646 7.82092 2.05806 7.79 1.9567C7.75907 1.85534 7.70807 1.76124 7.64003 1.67999C7.57519 1.59585 7.49384 1.52586 7.40099 1.47427C7.30813 1.42269 7.20572 1.3906 7.10002 1.38C6.88597 1.3601 6.67256 1.42402 6.50469 1.55832C6.33682 1.69261 6.2276 1.8868 6.20003 2.10001L6.15004 2.64999H5.75002L5.39003 2.20001C5.46987 1.99512 5.50661 1.77597 5.49797 1.55624C5.48934 1.33652 5.4355 1.12093 5.33983 0.922943C5.24416 0.724951 5.1087 0.548791 4.94191 0.405487C4.77513 0.262183 4.58061 0.154792 4.37047 0.0900267C4.16033 0.0252618 3.93909 0.00452962 3.72057 0.0290831C3.50205 0.0536366 3.29092 0.122972 3.10039 0.232757C2.90986 0.342543 2.74403 0.4904 2.61321 0.667145C2.48238 0.843889 2.38939 1.04572 2.34004 1.26001L1.53002 1.91C1.3831 2.03345 1.28989 2.20913 1.27004 2.39999C1.24781 2.58956 1.30176 2.78019 1.42003 2.92999L2.91002 4.76999V4.94C2.89335 5.08778 2.90601 5.2374 2.94728 5.38028C2.98855 5.52316 3.05763 5.65648 3.15053 5.77261C3.24343 5.88874 3.35833 5.98538 3.48867 6.05701C3.619 6.12863 3.76219 6.17383 3.91002 6.19H4.07003L4.14003 6.28C4.3064 6.49052 4.51343 6.6654 4.7488 6.79425C4.98416 6.9231 5.24304 7.00328 5.51003 7.03C6.04822 7.08394 6.58626 6.92612 7.01003 6.59L8.13002 5.67999L9.13002 6.88C9.15259 6.88844 9.17746 6.88844 9.20003 6.88C9.22591 6.88916 9.25414 6.88916 9.28002 6.88L10.75 5.67999C10.7669 5.6718 10.7812 5.65901 10.7912 5.6431C10.8012 5.62718 10.8064 5.60878 10.8064 5.59C10.8064 5.57121 10.8012 5.55281 10.7912 5.5369C10.7812 5.52098 10.7669 5.50819 10.75 5.5ZM8.26003 5.45001L8.35002 4.67001C8.51724 4.66224 8.67796 4.60284 8.81005 4.5C8.85844 4.45831 8.90202 4.41134 8.94002 4.35999L9.34004 4.85001L8.40004 5.60999L8.26003 5.45001ZM7.18004 4.28L6.78002 3.78L6.83004 3.57001L7.01003 3.66H7.16002C7.28231 3.67311 7.40595 3.65592 7.52004 3.60999L7.67003 3.88L7.50002 3.98999L7.18004 4.28ZM7.81005 2.85999C7.82543 2.93251 7.82543 3.00746 7.81005 3.07999C7.78927 3.15019 7.75466 3.21555 7.7083 3.27222C7.66194 3.32888 7.60473 3.37574 7.54003 3.41C7.47049 3.43971 7.39565 3.45502 7.32003 3.45502C7.2444 3.45502 7.16957 3.43971 7.10002 3.41L6.93004 3.32999C7.01335 3.16374 7.14457 3.0263 7.30678 2.93539C7.46899 2.84448 7.65476 2.8043 7.84004 2.82001L7.81005 2.85999ZM8.33004 3.76999C8.17819 3.73981 8.02189 3.73981 7.87004 3.76999L7.70003 3.48999C7.83358 3.39418 7.93195 3.25717 7.98003 3.10001C7.98966 3.0203 7.98966 2.9397 7.98003 2.85999L8.53002 3L8.35002 3.73001L8.33004 3.76999ZM8.33004 3.97C8.50837 3.99145 8.67762 4.06055 8.82003 4.17001L8.70003 4.29999C8.58193 4.39395 8.43139 4.43725 8.28142 4.42038C8.13145 4.40351 7.99431 4.32784 7.90004 4.20999C7.86391 4.16941 7.83665 4.12174 7.82003 4.07001C7.97443 4.0042 8.14432 3.9834 8.31005 4.01001L8.33004 3.97ZM9.56005 4.51999H9.40004L9.80004 2.86999H9.96004L9.56005 4.51999ZM9.04003 3.14999C9.06652 3.15653 9.09449 3.15298 9.11852 3.14004C9.14254 3.12711 9.1609 3.1057 9.17003 3.07999C9.19164 2.98617 9.24805 2.90405 9.32787 2.85022C9.40769 2.79639 9.50495 2.77489 9.60002 2.79001L9.22002 4.32001L9.12004 4.17999C8.98627 4.01777 8.80952 3.89647 8.61003 3.82999L8.79003 3.09L9.04003 3.14999ZM7.16002 2.82001C7.02044 2.90284 6.90094 3.01552 6.81005 3.14999L6.39003 2.63L6.45003 2.03L7.66002 2.16L7.60002 2.66C7.43458 2.69437 7.278 2.76243 7.14003 2.85999L7.16002 2.82001ZM7.16002 1.51001C7.23873 1.51951 7.31472 1.54477 7.38344 1.58429C7.45217 1.62381 7.51224 1.67675 7.56005 1.73999C7.6121 1.80079 7.64969 1.8726 7.67003 1.95001L6.56005 1.82999C6.59873 1.7614 6.64955 1.70041 6.71004 1.64999C6.8253 1.5742 6.96252 1.53901 7.10002 1.54999L7.16002 1.51001ZM6.29003 2.79001L6.74004 3.35001C6.71742 3.40475 6.70065 3.46172 6.69002 3.51999V3.57999L6.03002 2.76001H6.31005L6.29003 2.79001ZM7.08004 4.39999L6.73003 4.69L5.10002 2.69C5.20649 2.57957 5.29736 2.45509 5.37004 2.32001L7.08004 4.39999ZM5.35002 1.69V1.82999C5.18336 1.96954 4.98415 2.06473 4.77086 2.10669C4.55757 2.14865 4.33713 2.13603 4.13002 2.07001C4.13864 1.94059 4.09952 1.81249 4.02004 1.70999C3.92812 1.60374 3.79961 1.53592 3.66002 1.51999H3.59004C3.52893 1.27815 3.54095 1.02362 3.62462 0.788635C3.70829 0.553648 3.85984 0.348803 4.06005 0.200012H4.11003C4.46563 0.254579 4.78657 0.443944 5.00627 0.728821C5.22598 1.0137 5.3276 1.37222 5.29003 1.73001L5.35002 1.69ZM3.61003 1.69C3.65263 1.69239 3.69429 1.70355 3.73238 1.72278C3.77047 1.742 3.80419 1.76887 3.83141 1.80173C3.85863 1.83458 3.87877 1.8727 3.89058 1.9137C3.90239 1.9547 3.90561 1.99771 3.90004 2.04001C3.89587 2.08287 3.88309 2.12443 3.86248 2.16223C3.84186 2.20003 3.81379 2.2333 3.78002 2.26001C3.71181 2.31298 3.62601 2.33798 3.54003 2.32999C3.49861 2.32565 3.45857 2.31277 3.42241 2.29211C3.38626 2.27145 3.35479 2.24347 3.33004 2.20999C3.3018 2.17737 3.28093 2.13904 3.26885 2.09763C3.25677 2.05621 3.25375 2.01269 3.26003 1.97C3.26254 1.92922 3.27363 1.88943 3.29259 1.85324C3.31155 1.81705 3.33795 1.78529 3.37004 1.76001C3.42965 1.74481 3.49248 1.74828 3.55004 1.76999L3.61003 1.69ZM3.75002 0.130005C3.56842 0.306866 3.43672 0.528515 3.36824 0.772583C3.29976 1.01665 3.29694 1.27447 3.36003 1.51999L3.24004 1.60001C3.18651 1.64262 3.1421 1.69555 3.10945 1.75568C3.07681 1.81581 3.05661 1.88191 3.05004 1.95001C3.04037 2.08883 3.07924 2.22669 3.16002 2.34C3.20417 2.39425 3.25881 2.43903 3.32067 2.47168C3.38252 2.50433 3.45034 2.52417 3.52004 2.53C3.58912 2.5399 3.6595 2.53521 3.72667 2.51627C3.79384 2.49732 3.85629 2.46455 3.91002 2.42001C3.97063 2.36825 4.01855 2.30324 4.05004 2.23001C4.14419 2.26274 4.24133 2.28616 4.34004 2.29999C4.64572 2.32511 4.95194 2.25899 5.22002 2.10999C5.11257 2.32162 4.95272 2.50223 4.75569 2.63458C4.55867 2.76693 4.33105 2.84661 4.0945 2.86606C3.85795 2.8855 3.62037 2.84406 3.40438 2.74567C3.18838 2.64727 3.00118 2.4952 2.86061 2.30395C2.72005 2.11271 2.6308 1.88865 2.60137 1.65314C2.57193 1.41762 2.60329 1.17849 2.69246 0.958526C2.78163 0.738565 2.92564 0.545078 3.11077 0.396545C3.29589 0.248012 3.51596 0.14936 3.75002 0.109985V0.130005ZM3.12004 3.31L1.90004 1.79999L2.37004 1.41C2.35509 1.7063 2.42178 2.00101 2.56285 2.26199C2.70393 2.52298 2.91395 2.74019 3.17003 2.88998L3.12004 3.31ZM2.04003 3.11999L2.44002 2.79999L2.59004 2.98001L2.19002 3.29999L2.04003 3.11999ZM1.55004 2.26999C1.56792 2.13665 1.63585 2.0151 1.74004 1.92999L2.31005 2.63998L1.91002 2.95999L1.66002 2.64999C1.57266 2.5708 1.51308 2.46564 1.49004 2.35001L1.55004 2.26999ZM2.32003 3.45999L2.71004 3.13998L3.09004 3.60001L3.02004 4.32999L2.32003 3.45999ZM3.17003 4.97C3.27251 4.93586 3.38299 4.93385 3.48665 4.96423C3.59031 4.99462 3.68218 5.05592 3.75002 5.13998C3.81825 5.23273 3.85506 5.34486 3.85506 5.45999C3.85506 5.57513 3.81825 5.68726 3.75002 5.78C3.58701 5.72808 3.44129 5.63267 3.32851 5.50403C3.21573 5.37539 3.14018 5.21839 3.11003 5.04999L3.17003 4.97ZM3.98003 5.82999C4.03867 5.72265 4.06942 5.60232 4.06942 5.48001C4.06942 5.3577 4.03867 5.23734 3.98003 5.13L4.54003 4.67001L5.15004 4.73999L5.03002 5.94L3.98003 5.82999ZM5.70003 5.39999C5.68746 5.51936 5.63995 5.63236 5.56346 5.72485C5.48698 5.81735 5.38492 5.88526 5.27004 5.92001L5.38002 4.81C5.4911 4.87745 5.57681 4.97968 5.62383 5.10083C5.67084 5.22198 5.67653 5.35529 5.64003 5.48001L5.70003 5.39999ZM6.95003 6.29001C6.58271 6.58367 6.1169 6.72555 5.64824 6.68649C5.17959 6.64744 4.74369 6.4304 4.43004 6.07999L5.01003 6.14999C5.1164 6.16116 5.22392 6.15127 5.32646 6.12088C5.42901 6.09049 5.52458 6.04019 5.60768 5.97287C5.69079 5.90555 5.75982 5.82252 5.81084 5.72852C5.86186 5.63451 5.89385 5.53136 5.90502 5.42499C5.91618 5.31862 5.9063 5.2111 5.8759 5.10855C5.84551 5.00601 5.79522 4.91044 5.72789 4.82733C5.66057 4.74422 5.57754 4.6752 5.48354 4.62418C5.38954 4.57316 5.28641 4.54116 5.18004 4.53L4.63002 4.47L4.75002 3.32999C4.7514 3.31684 4.75017 3.30356 4.74639 3.29089C4.7426 3.27823 4.73635 3.26645 4.72798 3.25623C4.71962 3.246 4.70928 3.23754 4.69762 3.23132C4.68596 3.2251 4.67318 3.22125 4.66002 3.22C4.63449 3.22133 4.61008 3.23076 4.59029 3.24695C4.5705 3.26314 4.55639 3.28523 4.55004 3.31L4.42003 4.51001L3.87004 4.95999C3.78148 4.8708 3.67164 4.80565 3.55092 4.77066C3.4302 4.73567 3.30257 4.732 3.18004 4.76001L3.37004 2.98001C3.50559 3.04224 3.65125 3.07949 3.80004 3.09C4.20724 3.1362 4.61635 3.02135 4.94002 2.76999L6.57003 4.76999L6.29003 4.98999C6.2717 5.00868 6.26143 5.03382 6.26143 5.06C6.26143 5.08617 6.2717 5.11131 6.29003 5.13C6.29846 5.14044 6.30913 5.14885 6.32125 5.15463C6.33336 5.16042 6.34661 5.16342 6.36003 5.16342C6.37346 5.16342 6.38671 5.16042 6.39882 5.15463C6.41093 5.14885 6.4216 5.14044 6.43004 5.13L7.69002 4.13C7.71738 4.18684 7.75093 4.2405 7.79003 4.29001C7.89615 4.42416 8.04394 4.51915 8.21004 4.56L8.13002 5.32999L6.95003 6.29001ZM8.59004 5.69L9.53002 4.92999L9.69002 5.13C9.7113 5.14705 9.73777 5.15631 9.76503 5.15631C9.7923 5.15631 9.81876 5.14705 9.84004 5.13C9.90883 5.06458 10.0001 5.02811 10.095 5.02811C10.1899 5.02811 10.2812 5.06458 10.35 5.13L8.97002 6.28L8.59004 5.69ZM9.27004 6.53L9.16002 6.39999L10.48 5.34L10.58 5.47L9.27004 6.53Z" fill="white"/>
</svg>
