<svg width="22" height="109" viewBox="0 0 22 109" fill="none" xmlns="http://www.w3.org/2000/svg">
<path d="M19.0523 63.5742C18.7611 63.5742 18.5216 63.7903 18.4799 64.0702H13.5039C13.4626 63.8137 13.2418 63.6165 12.9738 63.6165C12.9064 63.6165 12.8422 63.6303 12.7826 63.6533L10.2936 59.3434C10.4274 59.2368 10.515 59.0745 10.515 58.8908C10.515 58.5704 10.2543 58.3099 9.93436 58.3099C9.61446 58.3099 9.35348 58.5706 9.35348 58.8908C9.35348 59.2109 9.61403 59.4716 9.93436 59.4716C10.0097 59.4716 10.0809 59.4561 10.1473 59.4299L12.6354 63.7394C12.5144 63.8383 12.4353 63.987 12.4353 64.1553C12.4353 64.3233 12.5144 64.4718 12.6354 64.5707L10.1473 68.8803C10.0809 68.8542 10.0099 68.8389 9.93436 68.8389C9.64317 68.8389 9.40367 69.055 9.36199 69.3345H4.42823C4.38654 69.055 4.14683 68.8389 3.85565 68.8389C3.78035 68.8389 3.70889 68.8542 3.64253 68.8803L1.1548 64.5707C1.27583 64.4718 1.35495 64.3233 1.35495 64.1553C1.35495 63.8583 1.11333 63.6165 0.816399 63.6165C0.519472 63.6165 0.277848 63.8583 0.277848 64.1553C0.277848 64.4522 0.519472 64.6936 0.816399 64.6936C0.883825 64.6936 0.948059 64.6798 1.00761 64.6566L3.49576 68.9669C3.36219 69.0735 3.27477 69.2358 3.27477 69.4195C3.27477 69.7401 3.53532 70.0006 3.85543 70.0006C4.14683 70.0006 4.38633 69.7843 4.42802 69.5046H9.36156C9.40325 69.7843 9.64275 70.0006 9.93393 70.0006C10.2543 70.0006 10.5146 69.7397 10.5146 69.4195C10.5146 69.2358 10.427 69.0735 10.2932 68.9669L12.782 64.6566C12.8413 64.6793 12.9057 64.6936 12.973 64.6936C13.2407 64.6936 13.4617 64.4966 13.503 64.2403H18.4791C18.5208 64.52 18.7603 64.7361 19.0515 64.7361C19.3718 64.7361 19.6321 64.4754 19.6321 64.1555C19.6334 63.8347 19.3726 63.5742 19.0523 63.5742ZM9.6085 58.8908C9.6085 58.711 9.75484 58.5649 9.93436 58.5649C10.1139 58.5649 10.2602 58.7112 10.2602 58.8908C10.2602 59.0703 10.1143 59.2166 9.93436 59.2166C9.75463 59.2166 9.6085 59.0705 9.6085 58.8908ZM0.448006 64.1553C0.448006 63.9521 0.613062 63.7869 0.816189 63.7869C1.01932 63.7869 1.18458 63.9521 1.18458 64.1553C1.18458 64.3582 1.01953 64.5232 0.816399 64.5232C0.613272 64.5232 0.448006 64.3582 0.448006 64.1553ZM3.85565 69.7456C3.67613 69.7456 3.53001 69.5993 3.53001 69.4195C3.53001 69.2398 3.67634 69.0937 3.85565 69.0937C4.03538 69.0937 4.18171 69.24 4.18171 69.4195C4.18171 69.5991 4.03538 69.7456 3.85565 69.7456ZM9.93436 69.7456C9.75463 69.7456 9.6085 69.5993 9.6085 69.4195C9.6085 69.2398 9.75484 69.0937 9.93436 69.0937C10.1139 69.0937 10.2602 69.24 10.2602 69.4195C10.2602 69.5991 10.1143 69.7456 9.93436 69.7456ZM12.9738 64.5232C12.7707 64.5232 12.6056 64.3582 12.6056 64.1553C12.6056 63.9521 12.7707 63.7869 12.9738 63.7869C13.1769 63.7869 13.342 63.9521 13.342 64.1553C13.342 64.3582 13.1769 64.5232 12.9738 64.5232ZM19.0523 64.4809C18.8726 64.4809 18.7265 64.3346 18.7265 64.1553C18.7265 63.9755 18.8728 63.8292 19.0523 63.8292C19.2318 63.8292 19.3782 63.9755 19.3782 64.1553C19.3782 64.3348 19.232 64.4809 19.0523 64.4809Z" fill="white"/>
<path d="M0.576887 46.4265C0.868071 46.4265 1.10778 46.2099 1.14926 45.9302H6.12513C6.16639 46.1868 6.38717 46.3839 6.65517 46.3839C6.72259 46.3839 6.78683 46.3701 6.84639 46.3469L9.33517 50.6573C9.20117 50.7636 9.11375 50.9261 9.11375 51.1097C9.11375 51.43 9.37452 51.6905 9.69442 51.6905C10.0143 51.6905 10.2753 51.4294 10.2753 51.1097C10.2753 50.79 10.0147 50.529 9.69442 50.529C9.61912 50.529 9.54787 50.5443 9.48151 50.5705L6.99378 46.2612C7.1146 46.1623 7.19372 46.0136 7.19372 45.8454C7.19372 45.6773 7.1146 45.5289 6.99378 45.43L9.48236 41.1203C9.54872 41.1464 9.61976 41.1618 9.69506 41.1618C9.98624 41.1618 10.2257 40.9457 10.2674 40.6662H15.2012C15.2429 40.9457 15.4826 41.1618 15.7738 41.1618C15.8491 41.1618 15.9205 41.1464 15.9869 41.1203L18.4746 45.43C18.3536 45.5289 18.2745 45.6773 18.2745 45.8454C18.2745 46.1423 18.5161 46.3841 18.813 46.3841C19.1099 46.3841 19.3516 46.1423 19.3516 45.8454C19.3516 45.5485 19.1099 45.307 18.813 45.307C18.7456 45.307 18.6813 45.3209 18.6218 45.344L16.1336 41.0337C16.2672 40.9272 16.3546 40.7649 16.3546 40.5811C16.3546 40.2606 16.0941 40 15.774 40C15.4826 40 15.2431 40.2163 15.2014 40.496H10.2679C10.2262 40.2163 9.98666 40 9.69548 40C9.37516 40 9.11481 40.261 9.11481 40.5811C9.11481 40.7649 9.20245 40.9272 9.33623 41.0337L6.84724 45.3438C6.78789 45.3211 6.72344 45.3068 6.65623 45.3068C6.38844 45.3068 6.16766 45.5038 6.12619 45.7601H1.15011C1.10863 45.4804 0.868923 45.2643 0.577738 45.2643C0.257414 45.2643 -0.00271606 45.5251 -0.00271606 45.845C-0.00399208 46.1657 0.256989 46.4265 0.576887 46.4265ZM10.0209 51.1101C10.0209 51.2896 9.87457 51.4357 9.69506 51.4357C9.51554 51.4357 9.3692 51.2894 9.3692 51.1101C9.3692 50.9304 9.51532 50.784 9.69506 50.784C9.87479 50.7838 10.0209 50.9301 10.0209 51.1101ZM19.1814 45.8454C19.1814 46.0485 19.0163 46.2138 18.8132 46.2138C18.6101 46.2138 18.4448 46.0485 18.4448 45.8454C18.4448 45.6425 18.6099 45.4774 18.813 45.4774C19.0161 45.4774 19.1814 45.6425 19.1814 45.8454ZM15.7738 40.2548C15.9533 40.2548 16.0994 40.4011 16.0994 40.5809C16.0994 40.7606 15.9531 40.9067 15.7738 40.9067C15.594 40.9067 15.4477 40.7604 15.4477 40.5809C15.4477 40.4014 15.594 40.2548 15.7738 40.2548ZM9.69506 40.2548C9.87479 40.2548 10.0209 40.4011 10.0209 40.5809C10.0209 40.7606 9.87457 40.9067 9.69506 40.9067C9.51554 40.9067 9.3692 40.7604 9.3692 40.5809C9.3692 40.4014 9.51511 40.2548 9.69506 40.2548ZM6.65581 45.4772C6.85893 45.4772 7.02378 45.6423 7.02378 45.8452C7.02378 46.0483 6.85893 46.2136 6.65581 46.2136C6.45268 46.2136 6.28763 46.0483 6.28763 45.8452C6.2872 45.6425 6.45268 45.4772 6.65581 45.4772ZM0.576887 45.5195C0.756828 45.5195 0.902742 45.6659 0.902742 45.8452C0.902742 46.0247 0.756403 46.1712 0.576887 46.1712C0.397369 46.1712 0.251245 46.0249 0.251245 45.8452C0.251034 45.6659 0.397369 45.5195 0.576887 45.5195Z" fill="white"/>
<path d="M18.8141 5.26429C18.5227 5.26429 18.2832 5.48039 18.2417 5.76009H13.3077C13.2665 5.48039 13.0268 5.26429 12.7356 5.26429C12.6603 5.26429 12.5888 5.27981 12.5225 5.30597L10.0343 0.996279C10.1555 0.897375 10.2347 0.748911 10.2347 0.580667C10.2347 0.28374 9.99304 0.0423273 9.69612 0.0423273C9.42833 0.0423273 9.20734 0.239499 9.16629 0.4958H4.18999C4.14852 0.216102 3.90881 0 3.61762 0C3.2973 0 3.03653 0.260556 3.03653 0.580667C3.03653 0.764438 3.12416 0.92694 3.25816 1.0335L0.791074 5.30597C0.724925 5.27981 0.653457 5.26429 0.578162 5.26429C0.257838 5.26429 -0.00292969 5.52484 -0.00292969 5.84495C-0.00292969 6.16549 0.257838 6.42583 0.578162 6.42583C0.653457 6.42583 0.725137 6.41052 0.791286 6.38436L3.27922 10.6938C3.15819 10.7927 3.07907 10.9414 3.07907 11.1097C3.07907 11.4066 3.3207 11.648 3.61762 11.648C3.88541 11.648 4.1064 11.4508 4.14746 11.1945H9.12375C9.16522 11.474 9.40493 11.6901 9.69612 11.6901C10.0164 11.6901 10.2772 11.4296 10.2772 11.1097C10.2772 10.7891 10.0162 10.5288 9.69612 10.5288C9.40493 10.5288 9.16543 10.7449 9.12375 11.0244H4.14746C4.10619 10.7681 3.88541 10.5709 3.61762 10.5709C3.54999 10.5709 3.48575 10.5847 3.42619 10.6077L0.937836 6.29779C1.07162 6.19123 1.15925 6.02894 1.15925 5.84495C1.15925 5.66097 1.07162 5.49868 0.937623 5.39233L3.40429 1.11986C3.47044 1.14602 3.5419 1.16155 3.61741 1.16155C3.90859 1.16155 4.14809 0.945445 4.18978 0.665959H9.16607C9.20734 0.92226 9.42812 1.11922 9.6959 1.11922C9.76354 1.11922 9.82778 1.10539 9.88712 1.08242L12.3755 5.39233C12.2417 5.49889 12.1541 5.66118 12.1541 5.84495C12.1541 6.16549 12.415 6.42583 12.7352 6.42583C13.0263 6.42583 13.2658 6.20973 13.3075 5.93003H18.2411C18.2828 6.20973 18.5223 6.42583 18.8134 6.42583C19.1338 6.42583 19.3945 6.16506 19.3945 5.84495C19.3945 5.52484 19.1346 5.26429 18.8141 5.26429ZM9.69612 10.7836C9.87606 10.7836 10.022 10.9299 10.022 11.1097C10.022 11.2892 9.87585 11.4353 9.69612 11.4353C9.5166 11.4353 9.37048 11.289 9.37048 11.1097C9.37048 10.9299 9.5166 10.7836 9.69612 10.7836ZM3.9858 11.1097C3.9858 11.3126 3.82054 11.4774 3.61741 11.4774C3.41428 11.4774 3.24902 11.3126 3.24902 11.1097C3.24902 10.9065 3.41428 10.7415 3.61741 10.7415C3.82054 10.7415 3.9858 10.9065 3.9858 11.1097ZM0.252308 5.84495C0.252308 5.66544 0.398432 5.51931 0.578162 5.51931C0.757892 5.51931 0.904016 5.66565 0.904016 5.84495C0.904016 6.02468 0.757892 6.17102 0.578162 6.17102C0.398432 6.17102 0.252308 6.02468 0.252308 5.84495ZM3.61741 0.906521C3.43768 0.906521 3.29156 0.760184 3.29156 0.580667C3.29156 0.40115 3.43768 0.255026 3.61741 0.255026C3.79714 0.255026 3.94326 0.401362 3.94326 0.580667C3.94326 0.760397 3.79714 0.906521 3.61741 0.906521ZM9.32794 0.580667C9.32794 0.377753 9.4932 0.212698 9.69612 0.212698C9.89924 0.212698 10.0645 0.377753 10.0645 0.580667C10.0645 0.783794 9.89924 0.948848 9.69612 0.948848C9.49299 0.948848 9.32794 0.783794 9.32794 0.580667ZM12.7356 6.17102C12.5558 6.17102 12.4097 6.02468 12.4097 5.84495C12.4097 5.66544 12.5561 5.51931 12.7356 5.51931C12.9151 5.51931 13.0614 5.66565 13.0614 5.84495C13.061 6.02468 12.9151 6.17102 12.7356 6.17102ZM18.8141 6.17102C18.6343 6.17102 18.4882 6.02468 18.4882 5.84495C18.4882 5.66544 18.6346 5.51931 18.8141 5.51931C18.9936 5.51931 19.1399 5.66565 19.1399 5.84495C19.1399 6.02468 18.9938 6.17102 18.8141 6.17102Z" fill="white"/>
<path d="M0.858307 103.736C1.1497 103.736 1.3892 103.52 1.43068 103.24H6.36464C6.4059 103.52 6.64562 103.736 6.9368 103.736C7.01209 103.736 7.08356 103.72 7.14993 103.694L9.63807 108.004C9.51683 108.103 9.43771 108.251 9.43771 108.419C9.43771 108.716 9.67933 108.958 9.97626 108.958C10.244 108.958 10.465 108.76 10.5061 108.504H15.4824C15.5239 108.784 15.7636 109 16.0548 109C16.3751 109 16.6358 108.739 16.6358 108.419C16.6358 108.236 16.5482 108.073 16.4142 107.966L18.8813 103.694C18.9475 103.72 19.0189 103.736 19.0942 103.736C19.4145 103.736 19.6753 103.475 19.6753 103.155C19.6753 102.835 19.4145 102.574 19.0942 102.574C19.0189 102.574 18.9472 102.589 18.8811 102.616L16.3932 98.3062C16.5142 98.2073 16.5933 98.0586 16.5933 97.8903C16.5933 97.5934 16.3517 97.352 16.0548 97.352C15.787 97.352 15.566 97.5492 15.5249 97.8055H10.5486C10.5072 97.526 10.2674 97.3099 9.97626 97.3099C9.65594 97.3099 9.39517 97.5704 9.39517 97.8903C9.39517 98.2109 9.65615 98.4712 9.97626 98.4712C10.2674 98.4712 10.5069 98.2551 10.5486 97.9756H15.5249C15.5662 98.2319 15.787 98.4291 16.0548 98.4291C16.1224 98.4291 16.1866 98.4153 16.2462 98.3923L18.7345 102.702C18.6008 102.809 18.5131 102.971 18.5131 103.155C18.5131 103.339 18.6008 103.501 18.7348 103.608L16.2681 107.88C16.2019 107.854 16.1305 107.838 16.055 107.838C15.7638 107.838 15.5243 108.055 15.4826 108.334H10.5063C10.465 108.078 10.2443 107.881 9.97648 107.881C9.90884 107.881 9.8446 107.895 9.78526 107.918L7.2969 103.608C7.43069 103.501 7.51832 103.339 7.51832 103.155C7.51832 102.835 7.25734 102.574 6.93723 102.574C6.64604 102.574 6.40654 102.79 6.36485 103.07H1.43131C1.38962 102.79 1.15013 102.574 0.858944 102.574C0.538621 102.574 0.277852 102.835 0.277852 103.155C0.277852 103.475 0.53777 103.736 0.858307 103.736ZM9.97626 98.2164C9.79632 98.2164 9.65041 98.0701 9.65041 97.8903C9.65041 97.7108 9.79653 97.5647 9.97626 97.5647C10.1558 97.5647 10.3019 97.711 10.3019 97.8903C10.3019 98.0701 10.1558 98.2164 9.97626 98.2164ZM15.6866 97.8903C15.6866 97.6874 15.8518 97.5226 16.055 97.5226C16.2581 97.5226 16.4234 97.6874 16.4234 97.8903C16.4234 98.0935 16.2581 98.2585 16.055 98.2585C15.8518 98.2585 15.6866 98.0935 15.6866 97.8903ZM19.4201 103.155C19.4201 103.335 19.2739 103.481 19.0942 103.481C18.9145 103.481 18.7684 103.334 18.7684 103.155C18.7684 102.975 18.9145 102.829 19.0942 102.829C19.2739 102.829 19.4201 102.975 19.4201 103.155ZM16.055 108.093C16.2347 108.093 16.3808 108.24 16.3808 108.419C16.3808 108.599 16.2347 108.745 16.055 108.745C15.8752 108.745 15.7291 108.599 15.7291 108.419C15.7291 108.24 15.8752 108.093 16.055 108.093ZM10.3444 108.419C10.3444 108.622 10.1792 108.787 9.97626 108.787C9.77314 108.787 9.60787 108.622 9.60787 108.419C9.60787 108.216 9.77314 108.051 9.97626 108.051C10.1794 108.051 10.3444 108.216 10.3444 108.419ZM6.9368 102.829C7.11653 102.829 7.26265 102.975 7.26265 103.155C7.26265 103.335 7.11632 103.481 6.9368 103.481C6.75728 103.481 6.61095 103.334 6.61095 103.155C6.61137 102.975 6.75728 102.829 6.9368 102.829ZM0.858307 102.829C1.03804 102.829 1.18416 102.975 1.18416 103.155C1.18416 103.335 1.03782 103.481 0.858307 103.481C0.67879 103.481 0.532452 103.334 0.532452 103.155C0.532452 102.975 0.678576 102.829 0.858307 102.829Z" fill="white"/>
<path d="M20.6334 20C20.2834 20 19.9993 20.2913 19.9993 20.6494C19.9993 20.8557 20.0955 21.0378 20.2424 21.157L17.984 25.1897C17.9256 25.1695 17.8639 25.1559 17.7988 25.1559C17.514 25.1559 17.2758 25.3653 17.2227 25.6415L12.7 25.6538C12.6509 25.3454 12.3911 25.1087 12.0766 25.1087C11.9906 25.1087 11.9088 25.1265 11.8345 25.1583L9.59082 21.2011C9.74677 21.0827 9.8492 20.8944 9.8492 20.6807C9.8492 20.3224 9.56463 20.0313 9.21494 20.0313C8.89654 20.0313 8.63469 20.2738 8.59019 20.5876L4.07256 20.6002C4.03363 20.3068 3.78961 20.0788 3.49253 20.0788C3.16857 20.0788 2.90462 20.349 2.90462 20.6809C2.90462 20.864 2.98666 21.0264 3.11272 21.137L0.862361 25.1548C0.790524 25.1258 0.712893 25.1087 0.631323 25.1087C0.281407 25.1087 -0.00292969 25.4003 -0.00292969 25.7583C-0.00292969 26.1168 0.281638 26.4081 0.631323 26.4081C0.705941 26.4081 0.77662 26.3927 0.843127 26.368L3.1162 30.3774C2.98782 30.4878 2.90462 30.6514 2.90462 30.8366C2.90462 31.1685 3.16857 31.4387 3.49253 31.4387C3.78011 31.4387 4.01926 31.2257 4.06955 30.9458L8.59042 30.933C8.63631 31.245 8.8977 31.4857 9.21494 31.4857C9.56486 31.4857 9.8492 31.1944 9.8492 30.8366C9.8492 30.63 9.75303 30.4479 9.60611 30.3287L10.4315 28.855C10.4962 28.88 10.5657 28.8959 10.6392 28.8959C10.9631 28.8959 11.2271 28.6254 11.2271 28.2935C11.2271 27.9616 10.9631 27.6914 10.6392 27.6914C10.315 27.6914 10.051 27.9616 10.051 28.2935C10.051 28.4823 10.1382 28.6492 10.2714 28.7598L9.44621 30.2328C9.37415 30.2039 9.29651 30.1868 9.21494 30.1868C8.89654 30.1868 8.63469 30.4292 8.59019 30.743L4.07256 30.7561C4.0334 30.4624 3.78961 30.2345 3.49253 30.2345C3.41536 30.2345 3.3419 30.2506 3.27424 30.2786L1.00696 26.2792C1.16292 26.1607 1.26535 25.9722 1.26535 25.7585C1.26535 25.5522 1.16918 25.3701 1.02226 25.2509L3.2696 21.2377C3.33843 21.2669 3.41328 21.2833 3.4923 21.2833C3.77965 21.2833 4.0188 21.0703 4.06931 20.7902L8.59019 20.7776C8.63631 21.0898 8.89747 21.3305 9.21471 21.3305C9.28933 21.3305 9.36024 21.3149 9.42675 21.2904L11.6762 25.2583C11.5344 25.3775 11.4417 25.5562 11.4417 25.7583C11.4417 26.1168 11.7262 26.4081 12.0759 26.4081C12.3971 26.4081 12.6601 26.1617 12.7014 25.8438L17.2174 25.8314C17.2531 26.1289 17.4985 26.3606 17.7981 26.3606C18.1221 26.3606 18.386 26.0902 18.386 25.7581C18.386 25.5608 18.2919 25.387 18.148 25.277L20.4021 21.2527C20.4742 21.2816 20.5516 21.2987 20.6331 21.2987C20.9828 21.2987 21.2669 21.0072 21.2669 20.6491C21.2671 20.2911 20.983 20 20.6334 20ZM10.6389 27.8814C10.8609 27.8814 11.0415 28.0661 11.0415 28.2933C11.0415 28.5207 10.8609 28.7055 10.6389 28.7055C10.4169 28.7055 10.2364 28.5207 10.2364 28.2933C10.2364 28.0661 10.4169 27.8814 10.6389 27.8814ZM9.21494 30.4712C9.41145 30.4712 9.57135 30.635 9.57135 30.8364C9.57135 31.0375 9.41145 31.201 9.21494 31.201C9.01844 31.201 8.85877 31.0375 8.85877 30.8364C8.85877 30.635 9.01844 30.4712 9.21494 30.4712ZM3.89482 30.8364C3.89482 31.0636 3.71453 31.248 3.49253 31.248C3.27053 31.248 3.09024 31.0636 3.09024 30.8364C3.09024 30.6089 3.27053 30.4239 3.49253 30.4239C3.71453 30.4239 3.89482 30.6089 3.89482 30.8364ZM0.274918 25.7583C0.274918 25.557 0.434814 25.3934 0.631323 25.3934C0.827833 25.3934 0.987497 25.557 0.987497 25.7583C0.987497 25.9596 0.827833 26.1237 0.631323 26.1237C0.434814 26.1237 0.274918 25.9596 0.274918 25.7583ZM3.4923 21.0931C3.2703 21.0931 3.09001 20.9082 3.09001 20.6807C3.09001 20.4535 3.2703 20.2688 3.4923 20.2688C3.7143 20.2688 3.89459 20.4535 3.89459 20.6807C3.89482 20.9082 3.7143 21.0931 3.4923 21.0931ZM8.85877 20.6807C8.85877 20.4796 9.01844 20.316 9.21494 20.316C9.41145 20.316 9.57135 20.4796 9.57135 20.6807C9.57135 20.882 9.41145 21.0459 9.21494 21.0459C9.01844 21.0459 8.85877 20.8818 8.85877 20.6807ZM12.0759 26.1237C11.8794 26.1237 11.7197 25.9601 11.7197 25.7585C11.7197 25.557 11.8794 25.3936 12.0759 25.3936C12.2727 25.3936 12.4321 25.5572 12.4321 25.7585C12.4321 25.9599 12.2727 26.1237 12.0759 26.1237ZM17.7988 26.1709C17.5768 26.1709 17.3965 25.986 17.3965 25.7585C17.3965 25.5311 17.5768 25.3464 17.7988 25.3464C18.0208 25.3464 18.2011 25.5311 18.2011 25.7585C18.2011 25.9857 18.0208 26.1709 17.7988 26.1709ZM20.6334 21.0143C20.4368 21.0143 20.2772 20.8507 20.2772 20.6494C20.2772 20.4483 20.4368 20.2847 20.6334 20.2847C20.8299 20.2847 20.9895 20.4483 20.9895 20.6494C20.9895 20.8507 20.8299 21.0143 20.6334 21.0143Z" fill="white"/>
<path d="M0.911583 88.7956C1.2615 88.7956 1.54561 88.5043 1.54561 88.1462C1.54561 87.9399 1.44943 87.7578 1.30251 87.6386L3.56099 83.6059C3.61938 83.6261 3.68102 83.6397 3.74614 83.6397C4.03094 83.6397 4.26916 83.4302 4.32223 83.1541L8.84496 83.1418C8.89409 83.4502 9.15386 83.6869 9.46832 83.6869C9.5543 83.6869 9.6361 83.6691 9.71048 83.6373L11.9541 87.5945C11.7982 87.7129 11.6957 87.9012 11.6957 88.1149C11.6957 88.4732 11.9803 88.7643 12.33 88.7643C12.6484 88.7643 12.9103 88.5218 12.9547 88.208L17.4724 88.1954C17.5113 88.4888 17.7553 88.7168 18.0524 88.7168C18.3764 88.7168 18.6403 88.4466 18.6403 88.1147C18.6403 87.9316 18.5583 87.7692 18.4322 87.6586L20.6826 83.6408C20.7544 83.6698 20.832 83.6869 20.9136 83.6869C21.2635 83.6869 21.5479 83.3953 21.5479 83.0373C21.5479 82.6788 21.2633 82.3875 20.9136 82.3875C20.839 82.3875 20.7683 82.4029 20.7018 82.4276L18.4287 78.4182C18.5571 78.3078 18.6403 78.1442 18.6403 77.959C18.6403 77.6271 18.3764 77.3569 18.0524 77.3569C17.7648 77.3569 17.5257 77.5699 17.4754 77.8498L12.9545 77.8626C12.9086 77.5506 12.6472 77.3099 12.33 77.3099C11.9801 77.3099 11.6957 77.6012 11.6957 77.959C11.6957 78.1656 11.7919 78.3477 11.9388 78.4669L11.1134 79.9406C11.0487 79.9156 10.9792 79.8997 10.9058 79.8997C10.5818 79.8997 10.3179 80.1702 10.3179 80.5021C10.3179 80.834 10.5818 81.1042 10.9058 81.1042C11.23 81.1042 11.4939 80.834 11.4939 80.5021C11.4939 80.3133 11.4068 80.1464 11.2735 80.0358L12.0987 78.5628C12.1708 78.5917 12.2484 78.6088 12.33 78.6088C12.6484 78.6088 12.9103 78.3664 12.9547 78.0526L17.4724 78.0395C17.5115 78.3332 17.7553 78.5611 18.0524 78.5611C18.1296 78.5611 18.203 78.545 18.2707 78.517L20.538 82.5164C20.382 82.6349 20.2796 82.8234 20.2796 83.0371C20.2796 83.2434 20.3758 83.4255 20.5227 83.5447L18.2753 87.5579C18.2065 87.5287 18.1317 87.5123 18.0526 87.5123C17.7653 87.5123 17.5261 87.7253 17.4756 88.0054L12.9547 88.018C12.9086 87.7058 12.6475 87.4651 12.3302 87.4651C12.2556 87.4651 12.1847 87.4807 12.1182 87.5052L9.86876 83.5373C10.0106 83.4181 10.1033 83.2394 10.1033 83.0373C10.1033 82.6788 9.8187 82.3875 9.46902 82.3875C9.14784 82.3875 8.88482 82.6339 8.84357 82.9518L4.32756 82.9642C4.29187 82.6667 4.04647 82.435 3.74683 82.435C3.42287 82.435 3.15893 82.7054 3.15893 83.0375C3.15893 83.2348 3.25301 83.4086 3.39692 83.5186L1.14285 87.5429C1.07078 87.514 0.993384 87.4969 0.911812 87.4969C0.562129 87.4969 0.278023 87.7884 0.278023 88.1465C0.277791 88.5045 0.561898 88.7956 0.911583 88.7956ZM10.906 80.9142C10.684 80.9142 10.5035 80.7295 10.5035 80.5023C10.5035 80.2749 10.684 80.0901 10.906 80.0901C11.128 80.0901 11.3085 80.2749 11.3085 80.5023C11.3085 80.7295 11.128 80.9142 10.906 80.9142ZM12.33 78.3244C12.1335 78.3244 11.9736 78.1606 11.9736 77.9592C11.9736 77.7581 12.1335 77.5946 12.33 77.5946C12.5265 77.5946 12.6862 77.7581 12.6862 77.9592C12.6862 78.1606 12.5265 78.3244 12.33 78.3244ZM17.6501 77.9592C17.6501 77.732 17.8304 77.5475 18.0524 77.5475C18.2744 77.5475 18.4547 77.732 18.4547 77.9592C18.4547 78.1867 18.2744 78.3716 18.0524 78.3716C17.8304 78.3716 17.6501 78.1867 17.6501 77.9592ZM21.27 83.0373C21.27 83.2386 21.1101 83.4022 20.9136 83.4022C20.7171 83.4022 20.5574 83.2386 20.5574 83.0373C20.5574 82.836 20.7171 82.6719 20.9136 82.6719C21.1101 82.6719 21.27 82.836 21.27 83.0373ZM18.0526 87.7025C18.2746 87.7025 18.4549 87.8874 18.4549 88.1149C18.4549 88.3421 18.2746 88.5268 18.0526 88.5268C17.8306 88.5268 17.6504 88.3421 17.6504 88.1149C17.6501 87.8874 17.8306 87.7025 18.0526 87.7025ZM12.6862 88.1149C12.6862 88.316 12.5265 88.4796 12.33 88.4796C12.1335 88.4796 11.9736 88.316 11.9736 88.1149C11.9736 87.9136 12.1335 87.7497 12.33 87.7497C12.5265 87.7497 12.6862 87.9138 12.6862 88.1149ZM9.46902 82.6719C9.66553 82.6719 9.82519 82.8355 9.82519 83.0371C9.82519 83.2386 9.66553 83.402 9.46902 83.402C9.27228 83.402 9.11284 83.2384 9.11284 83.0371C9.11284 82.8357 9.27228 82.6719 9.46902 82.6719ZM3.74614 82.6247C3.96814 82.6247 4.14843 82.8096 4.14843 83.0371C4.14843 83.2645 3.96814 83.4492 3.74614 83.4492C3.52414 83.4492 3.34385 83.2645 3.34385 83.0371C3.34385 82.8098 3.52414 82.6247 3.74614 82.6247ZM0.911583 87.7813C1.10809 87.7813 1.26775 87.9449 1.26775 88.1462C1.26775 88.3473 1.10809 88.5109 0.911583 88.5109C0.715073 88.5109 0.555409 88.3473 0.555409 88.1462C0.555409 87.9449 0.715073 87.7813 0.911583 87.7813Z" fill="white"/>
</svg>
