<svg width="83" height="84" viewBox="0 0 83 84" fill="none" xmlns="http://www.w3.org/2000/svg">
<path d="M22.4617 46.504C19.5711 46.504 16.7898 47.3634 14.4109 48.9845C13.9499 49.2931 13.8405 49.9142 14.1491 50.3751C14.4577 50.8361 15.0788 50.9454 15.5397 50.6368C17.5788 49.2462 19.9811 48.5079 22.4616 48.5079C29.2428 48.5079 34.7626 54.0275 34.7626 60.809C34.7626 67.5905 29.2431 73.1099 22.4616 73.1099C15.6801 73.1099 10.1606 67.5905 10.1606 60.809C10.1606 59.9105 10.2622 59.0081 10.4497 58.137C10.5708 57.598 10.2309 57.0667 9.68798 56.9456C9.1372 56.8246 8.61768 57.1644 8.49658 57.7074C8.27783 58.7191 8.15674 59.766 8.15674 60.809C8.15674 68.6996 14.5786 75.11 22.4577 75.11C30.3368 75.11 36.7587 68.6881 36.7587 60.809C36.7587 52.9301 30.3368 46.508 22.4577 46.508L22.4617 46.504Z" fill="white"/>
<path d="M22.4616 75.364C14.4304 75.364 7.91064 68.8328 7.91064 60.813C7.91064 59.7544 8.03173 58.6919 8.25048 57.6646C8.39892 56.9849 9.05907 56.563 9.73878 56.7154C10.0669 56.7857 10.3482 56.9849 10.5278 57.2662C10.7075 57.5474 10.7661 57.8873 10.6997 58.2076C10.5083 59.0592 10.4185 59.9381 10.4185 60.817C10.4185 67.4654 15.8287 72.868 22.4695 72.868C29.1103 72.868 34.5205 67.4578 34.5205 60.817C34.5205 54.1762 29.1103 48.766 22.4695 48.766C20.0398 48.766 17.6883 49.4848 15.6883 50.8558C15.118 51.2347 14.3367 51.0941 13.95 50.5277C13.7586 50.2464 13.6882 49.9183 13.7507 49.5863C13.8093 49.2581 14.0007 48.9769 14.2703 48.7855C16.6922 47.1371 19.5203 46.266 22.4617 46.266C30.4929 46.266 37.0127 52.7972 37.0127 60.817C37.0127 68.8368 30.4815 75.368 22.4617 75.368L22.4616 75.364ZM9.46165 57.173C9.11009 57.173 8.8132 57.4113 8.73117 57.7629C8.51242 58.7512 8.40306 59.7824 8.40306 60.802C8.40306 68.552 14.7039 74.853 22.4541 74.853C30.2043 74.853 36.5051 68.5522 36.5051 60.802C36.5051 53.0518 30.2043 46.751 22.4541 46.751C19.6143 46.751 16.8838 47.5908 14.5439 49.1807C14.372 49.2901 14.2626 49.4619 14.2353 49.6611C14.204 49.8604 14.2353 50.0596 14.3564 50.2197C14.5868 50.5596 15.0556 50.6494 15.3955 50.4189C17.4736 48.997 19.9267 48.2471 22.4541 48.2471C29.376 48.2471 35.0051 53.8759 35.0051 60.798C35.0051 67.7201 29.3762 73.3491 22.4541 73.3491C15.532 73.3491 9.90306 67.7201 9.90306 60.798C9.90306 59.8762 10.0046 58.9699 10.2038 58.0792C10.2937 57.6808 10.032 57.2707 9.63352 57.1886C9.57493 57.1769 9.52414 57.1691 9.47336 57.1691L9.46165 57.173Z" fill="white"/>
<path d="M62.1718 30.1211C62.6405 30.4102 63.2616 30.2617 63.5507 29.793C64.2812 28.5938 64.6601 27.2227 64.6601 25.8125C64.6601 21.5937 61.2304 18.1641 57.0117 18.1641C52.793 18.1641 49.3633 21.5938 49.3633 25.8125C49.3633 30.0312 52.793 33.4609 57.0117 33.4609C57.7031 33.4609 58.3828 33.371 59.0429 33.1913C59.5741 33.0429 59.8944 32.4921 59.7421 31.9608C59.5937 31.4296 59.0507 31.1093 58.5116 31.2616C58.0311 31.3905 57.5233 31.4608 57.0116 31.4608C53.8905 31.4608 51.3632 28.9217 51.3632 25.8124C51.3632 22.7031 53.9023 20.164 57.0116 20.164C60.121 20.164 62.66 22.7031 62.66 25.8124C62.66 26.8515 62.3788 27.8632 61.8397 28.7538C61.5506 29.2226 61.6991 29.8436 62.1678 30.1249L62.1718 30.1211Z" fill="white"/>
<path d="M57.0117 33.711C52.6523 33.711 49.1133 30.1719 49.1133 25.8126C49.1133 21.4533 52.6524 17.9142 57.0117 17.9142C61.3711 17.9142 64.9101 21.4533 64.9101 25.8126C64.9101 27.2618 64.5116 28.6837 63.7617 29.922C63.4023 30.5118 62.6328 30.7032 62.0429 30.3439C61.453 29.9845 61.2616 29.215 61.621 28.6251C62.1327 27.7852 62.4101 26.8165 62.4101 25.8165C62.4101 22.836 59.9882 20.4181 57.0117 20.4181C54.0312 20.4181 51.6133 22.84 51.6133 25.8165C51.6133 28.797 54.0352 31.2149 57.0117 31.2149C57.5 31.2149 57.9804 31.1563 58.4414 31.0235C59.1132 30.8438 59.793 31.2344 59.9805 31.9024C60.1602 32.5742 59.7695 33.254 59.1016 33.4415C58.4219 33.6329 57.7227 33.7227 57.0118 33.7227L57.0117 33.711ZM57.0117 18.402C52.9336 18.402 49.6133 21.7223 49.6133 25.8004C49.6133 29.8785 52.9336 33.1988 57.0117 33.1988C57.6718 33.1988 58.332 33.1089 58.9726 32.9371C59.371 32.8277 59.6015 32.4175 59.5038 32.0152C59.3944 31.6167 58.9921 31.3746 58.5819 31.4957C58.0819 31.6363 57.5508 31.7066 57.0234 31.7066C53.7734 31.7066 51.125 29.0582 51.125 25.8082C51.125 22.5582 53.7734 19.9098 57.0234 19.9098C60.2734 19.9098 62.9218 22.5582 62.9218 25.8082C62.9218 26.8863 62.621 27.9488 62.0624 28.8785C61.8436 29.2301 61.9608 29.6988 62.3124 29.9097C62.6718 30.1284 63.1327 30.0113 63.3436 29.6597C64.0428 28.4995 64.4217 27.1714 64.4217 25.8081C64.4217 21.73 61.1014 18.4097 57.0233 18.4097L57.0117 18.402Z" fill="white"/>
<path d="M42.8717 53.075C43.0436 52.7938 43.0514 52.454 42.9225 52.1532C42.7936 51.8524 42.524 51.6415 42.2037 51.5829C38.1646 50.7938 38.4928 46.0946 38.5045 45.9032C38.5241 45.6219 38.4342 45.3524 38.2428 45.1414C38.0514 44.9305 37.7819 44.8211 37.5045 44.8211C32.3131 44.8211 31.5748 41.2 31.5436 41.0516C31.4928 40.7313 31.2819 40.4501 30.985 40.3134C30.696 40.1727 30.3444 40.1844 30.0632 40.3524C26.1023 42.6141 23.364 39.1922 23.2546 39.0438C23.0631 38.7938 22.7741 38.6532 22.4655 38.6532C22.1569 38.6532 21.8639 38.7938 21.6764 39.0438C21.5553 39.1923 18.817 42.6141 14.8561 40.3524C14.5749 40.1923 14.235 40.1805 13.9343 40.3134C13.6452 40.454 13.4343 40.7235 13.3757 41.0438C13.3444 41.1923 12.6061 44.8133 7.41478 44.8133C7.13353 44.8133 6.87572 44.9344 6.68431 45.1336C6.4929 45.3446 6.40306 45.6141 6.42259 45.8954C6.44212 46.0946 6.76243 50.7938 2.72339 51.5868C2.40308 51.6453 2.14527 51.868 2.00464 52.1571C1.86402 52.4461 1.88355 52.7977 2.05542 53.0789C2.14526 53.2274 4.20382 56.8992 0.594518 60.0672C0.395298 60.2469 0.274208 60.4969 0.254678 60.7665C0.242959 61.036 0.332803 61.2977 0.516398 61.4969C0.547648 61.536 3.7976 65.1258 1.5945 68.4461C1.41481 68.7157 1.37575 69.0672 1.49294 69.368C1.61403 69.6688 1.87185 69.8993 2.19216 69.9774C2.21169 69.9774 4.57106 70.5555 5.63356 72.3172C6.19215 73.2469 6.30544 74.3758 5.95387 75.6883C5.86402 76.0164 5.95387 76.3797 6.19215 76.6297C6.43043 76.8797 6.77027 76.9891 7.11403 76.9305C7.14528 76.9305 9.83283 76.4305 11.6531 77.7117C12.5437 78.3406 13.075 79.282 13.2742 80.6023C13.325 80.9226 13.5242 81.2039 13.8133 81.3523C14.1023 81.493 14.4539 81.493 14.7352 81.3328C14.7547 81.3211 16.9852 80.1414 19.0047 80.7742C20.075 81.1023 20.9344 81.9031 21.5555 83.1531C21.7273 83.493 22.075 83.7039 22.4461 83.7039C22.8172 83.7039 23.1648 83.493 23.3367 83.1531C23.9578 81.9148 24.8172 81.114 25.8758 80.7742C27.907 80.1336 30.1453 81.3133 30.1649 81.325C30.454 81.4852 30.7938 81.4852 31.0868 81.3445C31.3758 81.2039 31.5868 80.9226 31.6258 80.5945C31.8251 79.2742 32.3563 78.325 33.2469 77.7039C35.0555 76.4227 37.7586 76.9227 37.786 76.9227C38.1259 76.9813 38.4775 76.8719 38.7079 76.6219C38.9462 76.3719 39.036 76.0125 38.9462 75.6805C38.6064 74.3719 38.7079 73.2313 39.2665 72.3094C40.3251 70.5477 42.6884 69.9696 42.7079 69.9696C43.0282 69.8993 43.286 69.6688 43.4189 69.368C43.5399 69.0672 43.5087 68.7196 43.3173 68.4461C41.1259 65.1453 44.2587 61.6375 44.3954 61.4969C44.5751 61.2977 44.6766 61.036 44.6571 60.7665C44.6454 60.4969 44.5165 60.2469 44.3173 60.0673C40.7079 56.8954 42.7665 53.2275 42.8564 53.079L42.8717 53.075ZM41.0631 68.434C40.0045 68.8833 38.5045 69.7426 37.5826 71.2738C36.942 72.3246 36.6842 73.5238 36.7935 74.8324C35.524 74.8012 33.6724 74.9809 32.1333 76.0629C31.1021 76.7934 30.3716 77.7934 29.9614 79.0746C28.8403 78.6957 27.0825 78.3129 25.313 78.8637C24.1919 79.2153 23.2349 79.8754 22.4614 80.8442C21.6919 79.8755 20.7309 79.2153 19.6098 78.8637C18.9692 78.6645 18.3403 78.5825 17.7309 78.5825C16.6606 78.5825 15.6801 78.8207 14.9692 79.0707C14.5591 77.8012 13.8286 76.7895 12.7973 76.059C11.2582 74.9809 9.38714 74.7973 8.13714 74.8285C8.24652 73.5199 7.9887 72.3285 7.34808 71.2699C6.4262 69.7387 4.91838 68.8793 3.86758 68.4301C5.07848 65.5512 3.84804 62.6098 2.60588 60.891C5.11758 58.2113 4.97698 55.1527 4.29728 53.1996C7.36758 52.0082 8.31678 48.9496 8.42618 46.7699C12.2348 46.4496 14.1762 44.3402 14.9574 42.6097C18.1879 43.8909 20.9262 42.5199 22.4691 41.1097C24.0082 42.5199 26.7503 43.8909 29.9808 42.6097C30.7698 44.3402 32.7113 46.4495 36.512 46.7699C36.6214 48.9496 37.5706 52.0082 40.6409 53.1996C39.969 55.1488 39.8323 58.2113 42.3323 60.891C41.1018 62.6098 39.8635 65.5512 41.0706 68.4301L41.0631 68.434Z" fill="white"/>
<path d="M22.4617 83.942C21.9813 83.942 21.5633 83.6803 21.3406 83.2506C20.7508 82.0709 19.9422 81.3092 18.9422 81.0006C17.032 80.4108 14.8836 81.5319 14.8641 81.5397C14.5047 81.7389 14.0751 81.7389 13.7157 81.5592C13.3446 81.3795 13.0946 81.028 13.036 80.6295C12.8446 79.3795 12.3446 78.4889 11.5165 77.899C9.82513 76.7076 7.27823 77.149 7.16493 77.1686C6.74305 77.2389 6.31337 77.11 6.01653 76.7975C5.71575 76.4772 5.60637 76.0475 5.71575 75.6256C6.04387 74.3873 5.94622 73.317 5.42669 72.4459C4.43841 70.7975 2.23529 70.235 2.13759 70.2154C1.73915 70.1255 1.41884 69.8365 1.25868 69.4537C1.11024 69.0747 1.1493 68.6451 1.37977 68.3053C3.46957 65.1647 0.360271 61.6959 0.328971 61.6569C0.098501 61.4069 -0.0108692 61.0787 0.00085076 60.7467C0.0203818 60.4069 0.172731 60.0983 0.422731 59.8756C3.87193 56.8444 1.91103 53.3444 1.83293 53.1959C1.63371 52.8443 1.61418 52.4147 1.77434 52.0475C1.94622 51.6764 2.27434 51.4186 2.67278 51.3366C6.51258 50.5866 6.18448 46.1061 6.16108 45.9147C6.12983 45.5631 6.25092 45.2233 6.4892 44.9654C6.72748 44.7037 7.05951 44.567 7.41108 44.567C12.3916 44.567 13.1025 41.1451 13.122 40.9967C13.2001 40.5983 13.4618 40.2584 13.8212 40.0865C14.1923 39.9147 14.622 39.9381 14.9696 40.1256C18.7391 42.274 21.3602 39.0162 21.4696 38.8756C21.7079 38.5748 22.0712 38.3951 22.4579 38.3951C22.8485 38.3951 23.2196 38.5748 23.4462 38.8834C23.5555 39.024 26.1454 42.2936 29.9345 40.1217C30.2938 39.9225 30.7235 39.903 31.0829 40.0827C31.4539 40.2545 31.7118 40.6022 31.7821 41.0045C31.8133 41.1452 32.5321 44.5631 37.493 44.5631C37.8445 44.5631 38.1727 44.7116 38.4149 44.9616C38.6531 45.2233 38.7742 45.5631 38.743 45.9108C38.7313 46.1022 38.4149 50.5827 42.243 51.3327C42.6414 51.4108 42.9734 51.6725 43.1414 52.0436C43.3133 52.4147 43.282 52.8444 43.0828 53.192C42.9813 53.3639 41.0633 56.8522 44.493 59.8717C44.743 60.0905 44.9032 60.403 44.9149 60.7428C44.9344 61.0709 44.8133 61.4147 44.5868 61.653C44.4579 61.7936 41.4579 65.1725 43.536 68.3014C43.7665 68.6412 43.8055 69.0709 43.6571 69.4616C43.5086 69.8405 43.1766 70.1217 42.7782 70.2233C42.7586 70.2233 40.497 70.7936 39.497 72.4538C38.9774 73.3249 38.8759 74.3952 39.2079 75.6335C39.3173 76.0554 39.2079 76.4929 38.9071 76.8054C38.6181 77.114 38.1884 77.2663 37.7587 77.1765C37.7275 77.1765 35.1298 76.696 33.4189 77.907C32.5908 78.4968 32.0908 79.3875 31.8994 80.6375C31.8408 81.0359 31.5791 81.3875 31.2197 81.5672C30.8486 81.7468 30.419 81.739 30.0713 81.5476C30.0518 81.5359 27.9111 80.407 25.9815 81.0086C24.9933 81.3172 24.1807 82.0789 23.5909 83.2586C23.38 83.6804 22.9503 83.95 22.4698 83.95L22.4617 83.942ZM17.7117 80.3248C18.1609 80.3248 18.6219 80.3834 19.0828 80.5241C20.2117 80.8756 21.1219 81.7233 21.782 83.0241C21.9109 83.2741 22.1609 83.4342 22.4539 83.4342C22.743 83.4342 22.993 83.2741 23.1258 83.0241C23.7859 81.7155 24.6844 80.8757 25.8172 80.5241C27.9461 79.8522 30.2781 81.0827 30.3055 81.1022C30.5164 81.2233 30.7742 81.2233 30.9969 81.1139C31.2156 81.0045 31.368 80.7936 31.407 80.5553C31.618 79.1647 32.1883 78.1647 33.1259 77.4967C35.0165 76.1569 37.8251 76.6764 37.8564 76.6764C38.1181 76.7272 38.3759 76.6373 38.5478 76.4577C38.7275 76.2662 38.7978 76.0084 38.7275 75.7467C38.3681 74.3678 38.4775 73.1686 39.079 72.1764C40.1884 70.3248 42.6493 69.7272 42.6688 69.7155C42.9071 69.6569 43.1102 69.4968 43.2001 69.2663C43.2899 69.0358 43.2587 68.778 43.1297 68.5749C40.8406 65.1257 44.0907 61.4655 44.2313 61.3132C44.372 61.1647 44.4423 60.9616 44.4306 60.7624C44.4189 60.5632 44.329 60.3718 44.1806 60.2429C40.4423 56.9538 42.5712 53.1023 42.6689 52.9421C42.79 52.7311 42.8095 52.4733 42.7079 52.2507C42.6064 52.0319 42.4072 51.8718 42.1689 51.821C37.9189 50.9929 38.2587 46.0827 38.2705 45.8718C38.29 45.6608 38.2197 45.4499 38.0791 45.3015C37.9384 45.153 37.7392 45.0632 37.5283 45.0632C32.1494 45.0632 31.3564 41.2546 31.3174 41.0944C31.2783 40.8444 31.1182 40.6452 30.8955 40.5358C30.6768 40.4342 30.415 40.4459 30.2041 40.567C26.0439 42.9459 23.1846 39.3482 23.0752 39.1959C22.7939 38.8249 22.165 38.8249 21.8838 39.1959C21.7627 39.3444 18.8838 42.9342 14.7432 40.567C14.5323 40.446 14.2823 40.4381 14.0518 40.5358C13.833 40.6374 13.6729 40.8444 13.6299 41.0866C13.5987 41.2467 12.8096 45.0671 7.419 45.0671C7.20806 45.0671 7.00884 45.1569 6.86822 45.3054C6.7276 45.4538 6.65728 45.6647 6.669 45.8757C6.68853 46.0866 7.04009 50.9968 2.7706 51.8249C2.53232 51.8756 2.32919 52.0358 2.23154 52.2546C2.12998 52.4733 2.1417 52.735 2.27061 52.946C2.36045 53.1061 4.50891 56.9577 0.758905 60.2546C0.610465 60.3835 0.520625 60.5749 0.508905 60.7741C0.497187 60.9733 0.567499 61.1725 0.708125 61.3249C0.739375 61.3639 4.11832 65.1061 1.80972 68.5866C1.68081 68.7858 1.64957 69.0475 1.73941 69.278C1.82926 69.5085 2.02847 69.6764 2.27066 69.7272C2.37222 69.7585 4.77066 70.3678 5.87226 72.1881C6.4621 73.1764 6.5832 74.3795 6.22382 75.7584C6.15351 76.0084 6.22382 76.2701 6.40351 76.4576C6.5832 76.649 6.8332 76.7272 7.09492 76.6764C7.38398 76.6256 9.99332 76.2076 11.8254 77.4967C12.7746 78.1686 13.3371 79.1686 13.5442 80.5553C13.5833 80.7936 13.7356 81.0045 13.9544 81.1139C14.1731 81.2232 14.4349 81.2154 14.6458 81.0943C14.6653 81.0943 16.095 80.3131 17.7474 80.3131L17.7117 80.3248ZM22.4617 81.235L22.2625 80.9967C21.5242 80.067 20.6023 79.4264 19.532 79.0983C18.9734 78.9264 18.3601 78.8366 17.7234 78.8366C16.6453 78.8366 15.6648 79.0983 15.0437 79.3054L14.8054 79.3835L14.7273 79.1452C14.3367 77.9264 13.6375 76.9538 12.6492 76.2663C11.1804 75.2351 9.3797 75.0475 8.1375 75.0866H7.85625L7.87578 74.8171C7.98516 73.5554 7.72734 72.4187 7.11406 71.4069C6.23515 69.946 4.79376 69.1178 3.74296 68.6686L3.51249 68.567L3.61405 68.3365C4.98515 65.067 3.02421 61.9263 2.38355 61.0357L2.26246 60.8639L2.40309 60.7154C5.17259 57.7466 4.47339 54.524 4.04369 53.274L3.96556 53.0435L4.18431 52.9537C7.65311 51.6021 8.10621 47.8639 8.15311 46.7428V46.5241L8.38358 46.5045C12.6141 46.153 14.2117 43.5826 14.7039 42.4928L14.8054 42.2741L15.0242 42.3639C18.5828 43.7858 21.2742 41.8249 22.2742 40.9147L22.4461 40.7546L22.618 40.9147C23.3875 41.6257 26.1961 43.8249 29.8563 42.3639L30.075 42.2741L30.1766 42.4928C30.6648 43.5826 32.2782 46.153 36.4969 46.5045L36.7156 46.5241V46.7428C36.7859 47.8639 37.2273 51.6139 40.6961 52.9537L40.9149 53.0435L40.8367 53.274C40.4071 54.524 39.7078 57.7428 42.4773 60.7154L42.618 60.8639L42.4969 61.0357C41.8562 61.9264 39.8953 65.0669 41.2664 68.3365L41.3679 68.567L41.1375 68.6686C40.0867 69.11 38.6492 69.9498 37.7664 71.4069C37.157 72.4069 36.907 73.5553 37.0164 74.8171L37.0359 75.0983H36.7546C35.5241 75.0671 33.7155 75.2468 32.2429 76.278C31.2625 76.9694 30.5632 77.9382 30.1648 79.1569L30.0867 79.3952L29.8484 79.3171C28.7273 78.9265 27.0398 78.5866 25.3601 79.1061C24.2898 79.4343 23.3718 80.0749 22.6296 81.0045L22.4304 81.2428L22.4617 81.235ZM17.7234 78.3248C18.4148 78.3248 19.0632 78.4264 19.6843 78.6139C20.7624 78.942 21.696 79.5631 22.4655 80.442C23.2351 79.5631 24.1647 78.942 25.2467 78.6139C26.9459 78.0826 28.6256 78.3756 29.817 78.7428C30.2584 77.5319 30.9889 76.5514 31.9967 75.8444C33.4655 74.8132 35.2272 74.5749 36.5358 74.5632C36.4772 73.3015 36.7546 72.153 37.3757 71.1335C38.2663 69.6647 39.6648 68.7819 40.7546 68.2937C39.5358 65.0554 41.2663 62.0046 42.0163 60.9031C39.3679 57.9422 39.8874 54.7742 40.3366 53.3328C36.985 51.8914 36.3874 48.364 36.278 46.993C32.1999 46.5711 30.4772 44.1649 29.8561 42.9227C26.2545 44.2313 23.4772 42.3016 22.4772 41.4422C21.4772 42.2937 18.696 44.2313 15.0983 42.9227C14.4772 44.161 12.7585 46.5711 8.67636 46.993C8.5748 48.3641 7.97714 51.9032 4.61776 53.3328C5.06698 54.7742 5.58651 57.9422 2.93806 60.9031C3.68806 62.0047 5.41856 65.0515 4.19976 68.2937C5.28956 68.782 6.68806 69.6648 7.57866 71.1335C8.19975 72.153 8.4771 73.3132 8.4185 74.5632C9.7193 74.5632 11.4771 74.8015 12.9576 75.8444C13.9693 76.5553 14.6959 77.5241 15.1373 78.7428C15.7975 78.5318 16.7271 78.3209 17.7467 78.3209L17.7234 78.3248Z" fill="white"/>
<path d="M81.8328 25.282C79.1531 23.4617 71.9812 21.3015 68.9418 20.4422C70.7113 17.4539 72.4223 11.9227 72.641 11.2117C72.7425 10.8719 72.6605 10.5125 72.4222 10.2508C72.1839 9.98904 71.8206 9.87185 71.4808 9.94217C69.6605 10.3133 64.6097 12.8719 62.18 14.1336C61.3206 9.60237 58.1019 1.30557 57.9417 0.903569C57.7933 0.524659 57.4222 0.262939 57.012 0.262939C56.6018 0.262939 56.2307 0.512939 56.0823 0.903569C56.0823 0.903569 55.6331 2.05197 55.0237 3.72387C54.8323 4.2434 55.1018 4.81367 55.6253 5.00507C56.1448 5.19648 56.7151 4.92694 56.9065 4.40351C56.9455 4.30195 56.9768 4.20429 57.0158 4.10273C58.2463 7.45433 60.2541 13.2746 60.3869 15.7237C60.4065 16.0636 60.5979 16.3722 60.8987 16.544C61.1994 16.7159 61.5588 16.7159 61.8596 16.5558C63.5705 15.6456 67.5901 13.5753 70.1291 12.5167C69.219 15.1886 67.7385 19.0753 66.59 20.3448C66.3595 20.6065 66.2697 20.9658 66.3713 21.294C66.4728 21.6221 66.7306 21.8838 67.0705 21.9737C67.1603 21.9932 74.7893 24.0518 78.9415 25.962C75.7813 27.212 69.672 29.5206 67.0895 29.7901C66.7614 29.8291 66.4684 30.0205 66.3082 30.3213C66.1481 30.6104 66.1481 30.9698 66.3082 31.2627C66.3395 31.3213 68.898 36.1025 70.1988 39.4424C66.98 38.1221 63.0504 36.333 62.2496 35.4619C61.9879 35.1807 61.5895 35.0713 61.2301 35.1807C60.859 35.2901 60.5895 35.6026 60.5309 35.9697C60.5192 36.0596 59.1793 43.8213 57.0192 48.5007C54.8473 43.821 53.5192 36.0597 53.5075 35.9697C53.4489 35.5908 53.1677 35.29 52.8083 35.1807C52.4372 35.0713 52.0466 35.1807 51.7888 35.4619C50.988 36.333 47.0583 38.1221 43.8396 39.4424C45.1404 36.1143 47.699 31.3213 47.7302 31.2627C47.8904 30.9737 47.8904 30.6143 47.7302 30.3213C47.57 30.0323 47.281 29.833 46.9489 29.7901C44.3708 29.5205 38.2575 27.2003 35.0969 25.962C39.2453 24.0518 46.8779 22.0011 46.9679 21.9737C47.3078 21.8838 47.5695 21.6221 47.6672 21.294C47.7687 20.9659 47.6789 20.5948 47.4484 20.3448C46.3 19.0753 44.8195 15.1846 43.9093 12.5167C46.4484 13.5753 50.4679 15.6456 52.171 16.5558C52.4718 16.7159 52.8429 16.7159 53.132 16.544C53.421 16.3722 53.6202 16.0636 53.6437 15.7237C53.6827 15.0128 53.9249 13.544 54.8429 10.5049C55.003 9.97368 54.7023 9.41513 54.171 9.25493C53.6397 9.09473 53.0812 9.39555 52.921 9.92681C52.4015 11.6377 52.0421 13.0284 51.8312 14.126C49.3898 12.8565 44.3507 10.3057 42.5304 9.93461C42.1788 9.8643 41.8312 9.97367 41.589 10.2432C41.3507 10.5049 41.2687 10.8721 41.3702 11.2041C41.589 11.9229 43.2921 17.4424 45.0616 20.4346C42.0225 21.294 34.8506 23.4541 32.1706 25.2744C31.8699 25.4854 31.7019 25.833 31.7409 26.2041C31.78 26.5752 32.0105 26.8838 32.3503 27.0244C32.7292 27.1846 40.8503 30.5439 45.2993 31.5439C44.1391 33.7822 41.7798 38.5244 41.2212 40.9423C41.1431 41.3017 41.2603 41.6806 41.5415 41.9228C41.8228 42.1611 42.2134 42.2314 42.561 42.1025C43.7915 41.6338 49.0493 39.5634 51.811 37.8916C52.4204 40.9424 53.9321 47.6416 56.1626 51.1616C56.3423 51.4507 56.6626 51.6303 57.0025 51.6303C57.3423 51.6303 57.6626 51.4507 57.854 51.1616C60.0728 47.6421 61.5923 40.9426 62.2056 37.8916C64.9751 39.5713 70.2368 41.6299 71.4556 42.1025C71.7955 42.2314 72.1939 42.1611 72.4751 41.9228C72.7564 41.6845 72.8736 41.3017 72.7954 40.9423C72.2369 38.5321 69.8657 33.7939 68.7173 31.5439C73.1665 30.5439 81.2873 27.1845 81.6663 27.0244C82.0062 26.8838 82.2367 26.5635 82.2757 26.2041C82.3148 25.833 82.1468 25.4854 81.846 25.2744L81.8328 25.282Z" fill="white"/>
<path d="M57.0117 51.883C56.582 51.883 56.1836 51.6643 55.9531 51.3049C53.7617 47.844 52.2539 41.3049 51.6445 38.2929C48.7656 39.9648 43.6757 41.9531 42.6562 42.3437C42.2265 42.5156 41.7344 42.4218 41.3867 42.125C41.0352 41.8164 40.8867 41.3437 40.9883 40.8945C41.5274 38.5937 43.6367 34.2851 44.9492 31.7226C40.4297 30.6445 32.6092 27.4023 32.2692 27.2617C31.8473 27.082 31.5504 26.6914 31.5075 26.2305C31.4567 25.7695 31.6676 25.332 32.0465 25.0703C34.6676 23.2891 41.5465 21.1914 44.6945 20.2812C42.9562 17.1914 41.3234 11.8828 41.1359 11.2695C41.007 10.8476 41.1164 10.3906 41.4055 10.0586C41.7062 9.73825 42.1555 9.58981 42.5774 9.67965C44.3274 10.039 48.886 12.3086 51.6477 13.7383C51.8586 12.6992 52.1984 11.418 52.6789 9.84765C52.7804 9.52734 52.9875 9.26953 53.2882 9.10937C53.589 8.94921 53.9172 8.91796 54.2375 9.01953C54.8976 9.21875 55.2687 9.91797 55.0656 10.5781C54.1437 13.5898 53.9172 15.0469 53.8742 15.7383C53.8547 16.168 53.6125 16.5469 53.2453 16.7578C52.8742 16.9688 52.4171 16.9766 52.0461 16.7774C50.4055 15.9063 46.8156 14.0586 44.3156 12.9688C45.0343 15.0586 46.4875 18.9297 47.6242 20.1797C47.9132 20.5 48.0226 20.9609 47.9054 21.3711C47.7843 21.7929 47.4445 22.1093 47.0265 22.2304C46.9562 22.25 39.9757 24.1288 35.7375 25.9609C39.1281 27.289 44.5773 29.3125 46.9675 29.5625C47.3777 29.6016 47.7488 29.8516 47.9363 30.2227C48.1355 30.5938 48.1277 31.0313 47.9363 31.4024C47.9167 31.4415 45.6277 35.711 44.2761 39.004C48.155 37.3946 50.9949 35.9649 51.5847 35.3126C51.905 34.961 52.405 34.8243 52.8659 34.961C53.3151 35.0899 53.6666 35.4806 53.7448 35.9493C53.7565 36.0196 55.0065 43.2579 57.0143 47.9103C59.026 43.2501 60.2643 36.0193 60.2838 35.9493C60.3619 35.4806 60.7057 35.0977 61.1627 34.961C61.6236 34.8321 62.1236 34.961 62.4439 35.3126C63.1548 36.0821 66.5923 37.6837 69.7525 39.004C68.4009 35.7149 66.1119 31.4454 66.0923 31.4024C65.8931 31.0313 65.8931 30.5938 66.0923 30.2227C66.2915 29.8516 66.6509 29.6133 67.061 29.5625C69.4399 29.3125 74.9008 27.293 78.291 25.9609C74.0527 24.1328 67.072 22.25 67.002 22.2304C66.5802 22.1211 66.252 21.789 66.1231 21.3711C66.002 20.9492 66.1036 20.5 66.4044 20.1797C67.5333 18.9297 68.9825 15.0508 69.713 12.9688C67.213 14.0586 63.6232 15.8985 61.9825 16.7774C61.6036 16.9766 61.1544 16.9766 60.7833 16.7578C60.4122 16.5469 60.1739 16.168 60.1544 15.7383C60.0333 13.4571 58.2247 8.11723 57.0138 4.77733C56.8927 4.95702 56.713 5.10545 56.5138 5.1992C56.213 5.33983 55.8731 5.34764 55.5528 5.23826C55.2442 5.12888 54.9942 4.89842 54.8419 4.58982C54.7013 4.28904 54.6817 3.94919 54.8028 3.62888C55.4122 1.94918 55.8614 0.80078 55.8614 0.80078C56.0528 0.32031 56.5099 0 57.0333 0C57.5529 0 58.0138 0.30859 58.2052 0.80078C58.5451 1.67187 61.4669 9.26168 62.3849 13.7418C65.1466 12.3121 69.713 10.0426 71.4552 9.68318C71.8849 9.59334 72.3341 9.74177 72.6271 10.0621C72.9279 10.3824 73.0256 10.8512 72.8967 11.273C72.7052 11.8824 71.0881 17.1949 69.3381 20.2847C72.4983 21.1949 79.3691 23.2964 81.9861 25.0738C82.365 25.3355 82.5759 25.773 82.5251 26.234C82.4743 26.6949 82.1853 27.0856 81.7634 27.2652C80.904 27.6168 73.4743 30.6754 69.0834 31.7261C70.392 34.2769 72.5053 38.5972 73.0443 40.898C73.1537 41.3472 72.9935 41.8199 72.6459 42.1285C72.2943 42.4371 71.806 42.5191 71.3764 42.3472C70.3569 41.9566 65.2748 39.9683 62.3881 38.2964C61.6693 41.855 60.1967 47.9566 58.0795 51.3084C57.849 51.6678 57.4505 51.8866 57.0209 51.8866L57.0117 51.883ZM51.9922 37.504L52.0625 37.8556C52.6133 40.6447 54.1407 47.5158 56.3712 51.0466C56.6524 51.488 57.3594 51.488 57.6407 51.0466C59.8712 47.5271 61.4024 40.6556 61.9493 37.8556L62.0196 37.504L62.3282 37.6954C65.1094 39.3868 70.4884 41.4845 71.5391 41.8868C71.8008 41.9884 72.0898 41.9376 72.3008 41.7579C72.5117 41.5782 72.6016 41.297 72.5391 41.0196C71.9687 38.5899 69.5079 33.6799 68.4805 31.6799L68.332 31.3908L68.6523 31.3205C72.9414 30.3595 80.6913 27.1799 81.5623 26.8205C81.824 26.7111 81.992 26.4806 82.0233 26.1994C82.0545 25.9299 81.9217 25.6603 81.703 25.5002C79.0546 23.6994 71.8514 21.5393 68.883 20.6916L68.5744 20.6017L68.7462 20.3205C70.5157 17.3322 72.2267 11.7697 72.4181 11.1408C72.4963 10.8908 72.4299 10.6095 72.258 10.422C72.0783 10.2228 71.8088 10.133 71.5588 10.1916C69.7385 10.5626 64.4885 13.2307 62.3205 14.3635L62.0197 14.5236L61.9611 14.1955C61.133 9.80489 58.0822 1.89449 57.7423 1.01549C57.6329 0.726434 57.3517 0.535024 57.0431 0.535024C56.7345 0.535024 56.4532 0.726434 56.3439 1.01549C56.3439 1.01549 55.8946 2.16389 55.2853 3.83579C55.2149 4.0272 55.2267 4.22641 55.3048 4.4061C55.3829 4.58579 55.5352 4.72641 55.7267 4.79672C55.9181 4.86704 56.1173 4.85532 56.297 4.77719C56.4767 4.69907 56.6173 4.53891 56.6876 4.35531L57.0157 3.45687L57.2657 4.05843C58.4766 7.35923 60.5274 13.2693 60.6563 15.7494C60.668 16.0112 60.8165 16.2377 61.0352 16.3588C61.2657 16.4877 61.5352 16.4877 61.754 16.3588C63.5235 15.4174 67.5235 13.3588 70.0431 12.308L70.5548 12.0971L70.3751 12.6166C69.7267 14.515 68.086 19.1049 66.7853 20.5385C66.6134 20.7299 66.547 21.0073 66.6251 21.2573C66.6955 21.5073 66.8947 21.7065 67.1564 21.769C67.2345 21.7885 74.8752 23.8471 79.0664 25.769L79.5976 26.0073L79.0586 26.226C75.7188 27.5463 69.7305 29.8041 67.1486 30.0776C66.8986 30.1089 66.6798 30.2495 66.5705 30.476C66.4494 30.6948 66.4494 30.9643 66.5705 31.187C66.59 31.226 69.1603 36.0386 70.4689 39.3862L70.6798 39.9252L70.1407 39.7065C68.5118 39.0346 63.1212 36.7768 62.1016 35.6674C61.9102 35.4565 61.6134 35.3783 61.3321 35.4565C61.0509 35.5346 60.8516 35.765 60.8009 36.0463C60.7891 36.1244 59.4728 43.8861 57.2697 48.6483L57.0392 49.1366L56.8087 48.6483C54.6095 43.8983 53.2892 36.1283 53.2775 36.0463C53.2267 35.765 53.0275 35.5346 52.7463 35.4565C52.4767 35.3783 52.176 35.4565 51.9767 35.6674C50.9572 36.7768 45.5665 39.0385 43.9376 39.7065L43.3986 39.9252L43.6095 39.3862C44.9181 36.0268 47.4884 31.226 47.5197 31.1753C47.6408 30.9565 47.6408 30.6948 47.5197 30.4761C47.3986 30.2573 47.1799 30.105 46.9416 30.0854C44.3635 29.8159 38.3713 27.5542 35.0316 26.2338L34.4925 26.0151L35.0238 25.7768C39.2152 23.8549 46.8518 21.7963 46.9338 21.7768C47.1838 21.7065 47.383 21.5151 47.465 21.2651C47.5354 21.0151 47.4768 20.7456 47.2932 20.5463C45.9924 19.1166 44.344 14.5268 43.7034 12.6244L43.5237 12.1049L44.0354 12.3159C46.5471 13.3667 50.5549 15.4253 52.3245 16.3667C52.5432 16.4877 52.8245 16.4877 53.0432 16.3667C53.262 16.2377 53.4143 16.0073 53.4221 15.7573C53.4612 15.0385 53.7034 13.5385 54.6331 10.4761C54.7541 10.0776 54.5315 9.65576 54.1331 9.53466C53.9338 9.47607 53.7346 9.4956 53.5627 9.59326C53.3831 9.6831 53.2542 9.84326 53.1917 10.0347C52.6721 11.7535 52.3127 13.1245 52.1136 14.2066L52.055 14.5347L51.7542 14.3745C49.5823 13.2456 44.3323 10.5854 42.5159 10.2026C42.2659 10.1518 41.9846 10.2417 41.8049 10.4331C41.6252 10.6245 41.5667 10.9018 41.6448 11.1518C41.8362 11.7729 43.5432 17.3432 45.3167 20.3315L45.4886 20.6128L45.18 20.7026C42.2112 21.5542 35.02 23.7143 32.371 25.5112C32.1405 25.6714 32.0194 25.9331 32.0507 26.2105C32.0819 26.4917 32.2499 26.7222 32.5116 26.8316C32.8514 26.9722 40.9999 30.3433 45.4216 31.3433L45.7419 31.4136L45.5935 31.7026C44.5623 33.7026 42.1052 38.6128 41.5349 41.0424C41.4763 41.312 41.5661 41.5932 41.7731 41.7807C41.9841 41.9604 42.2731 42.0112 42.5349 41.9096C43.5857 41.5112 48.9763 39.3979 51.7458 37.7182L52.0544 37.5268L51.9922 37.504Z" fill="white"/>
<path d="M16.0318 29.184C16.4537 31.5746 17.813 33.1059 18.2506 33.5434C18.4694 33.7621 18.7624 33.8832 19.0592 33.8832C19.3092 33.8832 19.5709 33.7934 19.7897 33.6215C21.3678 32.3324 21.9499 30.352 22.1608 29.1918C24.442 28.8207 26.0202 27.223 26.4889 26.6918C26.8405 26.2816 26.86 25.6723 26.5397 25.2504C25.3209 23.6098 23.278 23.059 22.0905 22.8793C21.6491 20.6293 20.3014 18.9574 19.86 18.4574C19.4615 18.016 18.7819 17.9574 18.3092 18.3168C16.3795 19.7856 15.8795 21.7777 15.7584 22.9965C13.5787 23.2855 12.0084 24.8168 11.5475 25.3168C11.3365 25.5472 11.2272 25.848 11.2389 26.1566C11.2584 26.4652 11.3991 26.7582 11.6178 26.9574C13.2076 28.3676 15.0084 28.9574 16.0397 29.1879L16.0318 29.184ZM16.5514 24.9535C16.8717 24.973 17.1725 24.8441 17.3912 24.6136C17.61 24.3949 17.7311 24.0941 17.7193 23.7855C17.6998 23.2855 17.7389 21.7543 18.8912 20.4964C19.3912 21.2152 20.0514 22.4066 20.192 23.7855C20.2506 24.3363 20.692 24.766 21.2428 24.805C21.4733 24.8245 23.2428 24.9769 24.4147 25.9261C23.7741 26.4769 22.6842 27.2152 21.3561 27.2659C20.778 27.2854 20.3053 27.7347 20.2545 28.2971C20.2233 28.6565 20.0241 30.2776 19.1061 31.469C18.6452 30.8206 18.067 29.7502 17.9342 28.3596C17.8834 27.8284 17.485 27.4104 16.9655 27.3284C16.6452 27.2776 15.1569 27.0276 13.696 26.0472C14.3444 25.5355 15.4069 24.9378 16.5554 24.9574L16.5514 24.9535Z" fill="white"/>
<path d="M19.0628 34.133C18.6917 34.133 18.3441 33.9846 18.0745 33.7229C17.6527 33.301 16.2854 31.7737 15.8128 29.3948C14.7933 29.1448 13.012 28.5432 11.4417 27.1448C11.1605 26.9065 10.9925 26.5432 10.973 26.176C10.9535 25.8049 11.0941 25.426 11.3441 25.1565C11.7738 24.6878 13.3324 23.1565 15.516 22.7854C15.6566 21.6057 16.1957 19.6057 18.1371 18.1252C18.7074 17.6838 19.5355 17.7658 20.0277 18.2971C20.4378 18.7658 21.7972 20.426 22.2894 22.6682C23.4886 22.8791 25.5003 23.4573 26.7308 25.1096C27.1214 25.6291 27.1019 26.3713 26.6722 26.8596C26.2308 27.3596 24.6527 28.969 22.3714 29.4104C22.1409 30.5706 21.5433 32.5315 19.9495 33.8206C19.6995 34.0198 19.3909 34.1292 19.0706 34.1292L19.0628 34.133ZM19.0003 18.344C18.8089 18.344 18.6214 18.4026 18.4495 18.5237C16.6409 19.9026 16.1214 21.7346 16.0003 23.0237L15.9808 23.2229L15.7816 23.2542C13.6605 23.5354 12.1332 25.0433 11.723 25.4925C11.5511 25.6722 11.473 25.9144 11.4847 26.1526C11.4964 26.3909 11.6058 26.6214 11.7855 26.7737C13.3636 28.1721 15.1644 28.7346 16.0941 28.9456L16.2542 28.9847L16.2855 29.1449C16.6957 31.473 18.0355 32.9652 18.4339 33.3754C18.7425 33.6839 19.2855 33.7152 19.6331 33.434C21.1722 32.184 21.7229 30.2152 21.9143 29.1528L21.9455 28.9809L22.1174 28.9496C24.3362 28.5903 25.8791 27.0082 26.2971 26.5394C26.5784 26.2191 26.5862 25.7504 26.3362 25.4183C25.1565 23.8285 23.1448 23.3167 22.0471 23.1488L21.8752 23.1176L21.844 22.9457C21.4143 20.7465 20.0745 19.0941 19.6721 18.6449C19.5002 18.4535 19.2502 18.3558 19.0002 18.3558L19.0003 18.344ZM19.1019 31.883L18.9027 31.6018C18.4222 30.9221 17.8246 29.8127 17.6839 28.3713C17.6448 27.9611 17.3323 27.633 16.9221 27.5705C16.6214 27.5314 15.0627 27.2697 13.551 26.2502L13.2698 26.0588L13.5393 25.8478C13.9807 25.4963 15.1409 24.6994 16.5081 24.6994H16.5589C16.8089 24.7112 17.0394 24.6213 17.2073 24.4377C17.3792 24.2658 17.4691 24.0276 17.4573 23.7893C17.4378 23.3088 17.4691 21.6682 18.6878 20.3205L18.8988 20.09L19.0785 20.3517C19.6175 21.1213 20.2777 22.34 20.4301 23.7619C20.4691 24.1916 20.8207 24.5315 21.2504 24.5627C21.4613 24.5744 23.3207 24.7346 24.559 25.7424L24.7895 25.9338L24.559 26.1252C23.848 26.7346 22.7192 27.4768 21.3402 27.5236C20.891 27.5432 20.5199 27.883 20.4808 28.3244C20.4496 28.6525 20.2503 30.3635 19.2816 31.6252L19.0707 31.8947L19.1019 31.883ZM14.141 26.0314C15.4613 26.8322 16.7426 27.0431 17.0004 27.0822C17.641 27.1721 18.1293 27.6916 18.1918 28.3322C18.3012 29.4728 18.723 30.3908 19.1215 31.0236C19.8324 29.9142 19.9926 28.5548 20.0121 28.2736C20.0707 27.5822 20.641 27.0431 21.3519 27.0119C22.4417 26.9729 23.3714 26.4416 24.0238 25.9338C22.9144 25.1838 21.4222 25.0627 21.2426 25.0549C20.5707 25.0041 20.0317 24.4846 19.9614 23.8049C19.8403 22.6447 19.3403 21.6252 18.8833 20.9065C17.9927 22.0667 17.9731 23.3753 17.9927 23.7659C18.0044 24.1565 17.8638 24.5276 17.5942 24.7971C17.313 25.0784 16.9341 25.2268 16.563 25.2073H16.524C15.5435 25.2073 14.6646 25.6877 14.1529 26.0354L14.141 26.0314Z" fill="white"/>
<path d="M75.9928 56.5321C75.7038 54.3524 74.1725 52.7821 73.6725 52.3212C73.4538 52.1102 73.1334 52.0009 72.8444 52.0126C72.5358 52.0243 72.2428 52.161 72.0436 52.3915C70.6334 53.9813 70.0553 55.7821 69.8131 56.8134C67.4225 57.2353 65.8912 58.5946 65.4537 59.0322C65.0318 59.4541 65.0045 60.1103 65.3756 60.5634C66.6568 62.1415 68.6451 62.7236 69.8053 62.9345C70.1764 65.2236 71.7741 66.7939 72.2936 67.2548C72.5045 67.4462 72.7819 67.5438 73.0553 67.5438C73.2936 67.5438 73.5358 67.4657 73.7467 67.3134C75.3873 66.0829 75.9381 64.0517 76.1178 62.8642C78.3795 62.4228 80.0397 61.0751 80.528 60.6454C80.9772 60.2548 81.0475 59.5673 80.6764 59.0868C79.2076 57.1571 77.2156 56.6454 75.9968 56.536L75.9928 56.5321ZM75.2116 60.9735C74.6608 61.0321 74.2311 61.4735 74.1921 62.0243C74.1725 62.2547 74.0202 64.0243 73.071 65.1962C72.5202 64.5555 71.7819 63.4657 71.7312 62.1259C71.7116 61.5556 71.2624 61.0868 70.7 61.0361C70.3406 61.0048 68.7195 60.8056 67.5281 59.8877C68.1765 59.4267 69.2469 58.8486 70.6492 58.708C71.1687 58.6494 71.5906 58.247 71.6609 57.7392C71.7116 57.4111 71.9616 55.9189 72.9421 54.4697C73.4538 55.1182 74.0632 56.1416 74.0319 57.3213C74.0201 57.6416 74.1412 57.9502 74.36 58.1729C74.5709 58.3838 74.86 58.501 75.1608 58.501H75.1998C75.6881 58.4815 77.2193 58.5205 78.4889 59.6729C77.7702 60.1729 76.5787 60.8331 75.1998 60.9737L75.2116 60.9735Z" fill="white"/>
<path d="M73.0508 67.793C72.711 67.793 72.3789 67.6719 72.1211 67.4414C71.6328 67.0117 70.0195 65.4414 69.582 63.1406C68.4218 62.9102 66.4609 62.3008 65.1718 60.7187C64.7226 60.1601 64.7616 59.3593 65.2617 58.8476C65.6835 58.4257 67.2108 57.0585 69.5897 56.5859C69.8397 55.5664 70.4413 53.7851 71.8397 52.2148C72.0897 51.9336 72.4413 51.7656 72.8202 51.7461C73.1718 51.7344 73.5702 51.8672 73.8397 52.1172C74.3085 52.5469 75.8397 54.1055 76.2108 56.2891C77.3905 56.4297 79.3905 56.9688 80.871 58.918C81.3124 59.4961 81.2304 60.3399 80.6796 60.8164C80.2187 61.2265 78.5702 62.5781 76.3202 63.0664C76.1093 64.2656 75.5311 66.2773 73.8788 67.5078C73.6405 67.6875 73.3476 67.789 73.039 67.789L73.0508 67.793ZM72.8906 52.262H72.8516C72.6133 52.2737 72.3828 52.3831 72.2227 52.5628C70.8243 54.1331 70.2618 55.9339 70.0508 56.8714L70.0117 57.0315L69.8515 57.0628C67.5234 57.4729 66.0312 58.8128 65.621 59.2112C65.2929 59.5393 65.2695 60.051 65.5624 60.4104C66.8124 61.9495 68.7812 62.5002 69.8436 62.6916L70.0155 62.7228L70.0468 62.8947C70.4062 65.1135 71.9765 66.6564 72.457 67.0666C72.7656 67.3361 73.2578 67.3557 73.5859 67.1174C75.1757 65.926 75.6875 63.926 75.8554 62.8283L75.8866 62.6564L76.0585 62.6252C78.2694 62.1955 79.8983 60.8557 80.3476 60.4533C80.6992 60.1447 80.746 59.6134 80.4687 59.2345C79.0898 57.4259 77.2578 56.9064 75.9687 56.7853L75.7695 56.7657L75.7382 56.5665C75.457 54.4571 73.9491 52.9259 73.4999 52.5079C73.328 52.3595 73.1093 52.2696 72.8905 52.2696L72.8906 52.262ZM73.0703 65.582L72.8711 65.3515C72.2617 64.6406 71.5195 63.5117 71.4727 62.121C71.4532 61.6718 71.1133 61.3124 70.6719 61.2695C70.2032 61.2304 68.5938 61.0077 67.3711 60.0703L67.1016 59.8593L67.3828 59.6601C68.0625 59.1796 69.1719 58.582 70.6328 58.4413C71.043 58.4022 71.3633 58.0897 71.4219 57.6796C71.461 57.3788 71.7227 55.8202 72.7422 54.3085L72.9336 54.0272L73.1446 54.2968C73.6836 54.9882 74.3243 56.0585 74.293 57.3085C74.293 57.5585 74.3711 57.7967 74.5547 57.9803C74.7148 58.1405 74.9453 58.242 75.1758 58.242H75.2461C75.6875 58.2225 77.3164 58.242 78.6758 59.4725L78.9063 59.6835L78.6445 59.8632C77.875 60.3944 76.6562 61.0624 75.2343 61.2148C74.8046 61.2538 74.4648 61.6054 74.4335 62.0351C74.4218 62.246 74.2617 64.1054 73.2538 65.3437L73.0624 65.5742L73.0703 65.582ZM67.9726 59.8945C69.082 60.6054 70.4414 60.7656 70.7226 60.7851C71.414 60.8437 71.9531 61.414 71.9843 62.1132C72.0234 63.2148 72.5546 64.1444 73.0624 64.7929C73.8124 63.6835 73.9335 62.1913 73.9413 62.0117C73.9921 61.3398 74.5116 60.8008 75.1913 60.7305C76.3515 60.6094 77.371 60.1094 78.0897 59.6524C76.9295 58.754 75.6209 58.7305 75.2303 58.7618C74.8085 58.7618 74.4608 58.6133 74.1991 58.3633C73.9296 58.0938 73.7773 57.7149 73.789 57.3242C73.8085 56.3828 73.3905 55.5351 72.9609 54.9258C72.1601 56.2461 71.9492 57.5274 71.9101 57.7852C71.8202 58.4141 71.3202 58.9063 70.6796 58.9766C69.5312 59.086 68.6093 59.5079 67.9687 59.9063L67.9726 59.8945Z" fill="white"/>
<path d="M57.1406 60.864C55.5312 60.864 55.5312 63.364 57.1406 63.364C58.75 63.364 58.75 60.864 57.1406 60.864Z" fill="white"/>
<path d="M57.1408 63.614C56.1799 63.614 55.6799 62.864 55.6799 62.114C55.6799 61.364 56.1799 60.614 57.1408 60.614C58.1018 60.614 58.6017 61.364 58.6017 62.114C58.6017 62.864 58.1017 63.614 57.1408 63.614ZM57.1408 61.114C56.4807 61.114 56.1799 61.614 56.1799 62.114C56.1799 62.614 56.4807 63.114 57.1408 63.114C57.801 63.114 58.1018 62.614 58.1018 62.114C58.1018 61.614 57.801 61.114 57.1408 61.114Z" fill="white"/>
<path d="M52.6018 74.301C50.9924 74.301 50.9924 76.801 52.6018 76.801C54.2112 76.801 54.2112 74.301 52.6018 74.301Z" fill="white"/>
<path d="M52.6018 77.051C51.6408 77.051 51.1409 76.301 51.1409 75.551C51.1409 74.801 51.6409 74.051 52.6018 74.051C53.5627 74.051 54.0627 74.801 54.0627 75.551C54.0627 76.301 53.5627 77.051 52.6018 77.051ZM52.6018 74.551C51.9416 74.551 51.6408 75.051 51.6408 75.551C51.6408 76.051 51.9416 76.551 52.6018 76.551C53.2619 76.551 53.5627 76.051 53.5627 75.551C53.5627 75.051 53.2619 74.551 52.6018 74.551Z" fill="white"/>
<path d="M68.3518 72.145C66.7424 72.145 66.7424 74.645 68.3518 74.645C69.9612 74.645 69.9612 72.145 68.3518 72.145Z" fill="white"/>
<path d="M68.3518 74.895C67.3908 74.895 66.8909 74.145 66.8909 73.395C66.8909 72.645 67.3909 71.895 68.3518 71.895C69.3127 71.895 69.8127 72.645 69.8127 73.395C69.8127 74.145 69.3127 74.895 68.3518 74.895ZM68.3518 72.395C67.6916 72.395 67.3908 72.895 67.3908 73.395C67.3908 73.895 67.6916 74.395 68.3518 74.395C69.0119 74.395 69.3127 73.895 69.3127 73.395C69.3127 72.895 69.0119 72.395 68.3518 72.395Z" fill="white"/>
<path d="M24.5896 12.692C26.199 12.692 26.199 10.192 24.5896 10.192C22.9802 10.192 22.9802 12.692 24.5896 12.692Z" fill="white"/>
<path d="M24.5898 12.942C23.6289 12.942 23.1289 12.192 23.1289 11.442C23.1289 10.692 23.6289 9.94202 24.5898 9.94202C25.5507 9.94202 26.0507 10.692 26.0507 11.442C26.0507 12.192 25.5507 12.942 24.5898 12.942ZM24.5898 10.442C23.9296 10.442 23.6289 10.942 23.6289 11.442C23.6289 11.942 23.9296 12.442 24.5898 12.442C25.25 12.442 25.5507 11.942 25.5507 11.442C25.5507 10.942 25.25 10.442 24.5898 10.442Z" fill="white"/>
<path d="M31.3716 6.04309C32.981 6.04309 32.981 3.54309 31.3716 3.54309C29.7622 3.54309 29.7622 6.04309 31.3716 6.04309Z" fill="white"/>
<path d="M31.3718 6.29309C30.4108 6.29309 29.9109 5.54309 29.9109 4.79309C29.9109 4.04309 30.4109 3.29309 31.3718 3.29309C32.3327 3.29309 32.8327 4.04309 32.8327 4.79309C32.8327 5.54309 32.3327 6.29309 31.3718 6.29309ZM31.3718 3.79309C30.7116 3.79309 30.4108 4.29309 30.4108 4.79309C30.4108 5.29309 30.7116 5.79309 31.3718 5.79309C32.0319 5.79309 32.3327 5.29309 32.3327 4.79309C32.3327 4.29309 32.0319 3.79309 31.3718 3.79309Z" fill="white"/>
<path d="M6.53176 17.063C8.14116 17.063 8.14116 14.563 6.53176 14.563C4.92236 14.563 4.92236 17.063 6.53176 17.063Z" fill="white"/>
<path d="M6.5317 17.313C5.57076 17.313 5.0708 16.563 5.0708 15.813C5.0708 15.063 5.5708 14.313 6.5317 14.313C7.49264 14.313 7.9926 15.063 7.9926 15.813C7.9926 16.563 7.4926 17.313 6.5317 17.313ZM6.5317 14.813C5.87154 14.813 5.57076 15.313 5.57076 15.813C5.57076 16.313 5.87154 16.813 6.5317 16.813C7.19186 16.813 7.49264 16.313 7.49264 15.813C7.49264 15.313 7.19186 14.813 6.5317 14.813Z" fill="white"/>
<path d="M4.44167 32.844C6.05107 32.844 6.05107 30.344 4.44167 30.344C2.83227 30.344 2.83227 32.844 4.44167 32.844Z" fill="white"/>
<path d="M4.44161 33.094C3.48067 33.094 2.98071 32.344 2.98071 31.594C2.98071 30.844 3.48071 30.094 4.44161 30.094C5.40251 30.094 5.90251 30.844 5.90251 31.594C5.90251 32.344 5.40251 33.094 4.44161 33.094ZM4.44161 30.594C3.78145 30.594 3.48067 31.094 3.48067 31.594C3.48067 32.094 3.78145 32.594 4.44161 32.594C5.10177 32.594 5.40255 32.094 5.40255 31.594C5.40255 31.094 5.10177 30.594 4.44161 30.594Z" fill="white"/>
</svg>
