<svg width="85" height="85" viewBox="0 0 85 85" fill="none" xmlns="http://www.w3.org/2000/svg">
<path d="M42.401 72.7859C38.5299 72.7859 34.7675 71.9836 31.2339 70.3948C30.735 70.1724 30.1498 70.4146 29.9359 70.9548C29.7259 71.495 29.9547 72.1027 30.4648 72.3292C34.2497 74.0292 38.2634 74.8831 42.4012 74.8831C59.3108 74.8831 73.0736 60.3141 73.0736 42.4048C73.0736 24.4996 59.3147 9.92651 42.4012 9.92651C33.6048 9.92651 25.2207 13.9342 19.3918 20.9285C19.103 21.2741 19.0655 21.7706 19.2868 22.1678C19.7969 23.0536 20.0632 24.0704 20.0632 25.115C20.0632 28.2965 17.6138 30.8902 14.5528 30.8902C14.084 30.8187 13.6413 31.1047 13.4875 31.5814C12.3247 35.0369 11.7395 38.6872 11.7395 42.4013C11.7395 52.1724 15.8394 61.3356 22.9931 67.5362C23.417 67.9016 24.0396 67.8301 24.3847 67.3932C24.7298 66.9443 24.6736 66.2851 24.2497 65.9196C17.5577 60.1126 13.724 51.5529 13.724 42.4015C13.724 39.1683 14.1929 35.9947 15.1345 32.9642C18.9943 32.6901 22.0478 29.2743 22.0478 25.1156C22.0478 23.9558 21.8077 22.8079 21.3388 21.7792C26.7742 15.567 34.4073 12.0161 42.4084 12.0161C58.2339 12.0161 71.1007 25.6394 71.1007 42.3977C71.1007 59.1549 58.2348 72.7793 42.4084 72.7793L42.401 72.7859Z" fill="white"/>
<path d="M42.401 75.1255C38.2222 75.1255 34.1823 74.2597 30.3677 72.5518C29.745 72.2658 29.4561 71.5032 29.715 70.8438C29.8388 70.5181 30.0788 70.2758 30.3864 70.1408C30.694 70.0097 31.0316 70.0176 31.3279 70.1408C34.8315 71.7058 38.56 72.508 42.401 72.508C58.092 72.508 70.8533 58.9955 70.8533 42.3806C70.8533 25.7657 58.092 12.2532 42.401 12.2532C34.5536 12.2532 26.9875 15.7327 21.6195 21.8097C22.0508 22.8384 22.2834 23.9665 22.2834 25.1025C22.2834 29.3008 19.23 32.8199 15.3026 33.1973C14.4099 36.1564 13.9484 39.2466 13.9484 42.3884C13.9484 51.4604 17.752 59.9601 24.3877 65.7154C24.639 65.9378 24.8003 66.2436 24.8303 66.5892C24.8603 66.9348 24.7628 67.2724 24.5602 67.5464C24.1289 68.0946 23.3599 68.178 22.831 67.7291C15.6288 61.4853 11.491 52.2541 11.491 42.4001C11.491 38.6466 12.0874 34.9884 13.2465 31.4896C13.4378 30.9097 14.0042 30.5522 14.5706 30.6356C15.9548 30.6356 17.2789 30.0557 18.2767 29.0191C19.267 27.9825 19.8147 26.5883 19.8147 25.1147C19.8147 24.1177 19.5559 23.1407 19.0757 22.2986C18.7982 21.8101 18.8469 21.1905 19.1995 20.7615C25.0775 13.7152 33.5289 9.66797 42.3885 9.66797C59.4335 9.66797 73.301 24.3519 73.301 42.4005C73.301 60.4491 59.4335 75.133 42.3885 75.133L42.401 75.1255ZM30.8478 70.5697C30.7503 70.5697 30.6565 70.5895 30.5702 70.6293C30.3864 70.7087 30.2439 70.8636 30.1576 71.0582C29.9925 71.4634 30.1764 71.9241 30.5515 72.0949C34.295 73.771 38.2825 74.625 42.3899 74.625C59.1651 74.625 72.8222 60.175 72.8222 42.4009C72.8222 24.6269 59.1756 10.1768 42.3899 10.1768C33.6723 10.1768 25.3448 14.1528 19.5533 21.0955C19.332 21.3616 19.302 21.735 19.4783 22.0329C20.0072 22.9583 20.2848 24.0148 20.2848 25.115C20.2848 26.7197 19.6884 28.237 18.6043 29.3769C17.5202 30.5169 16.0686 31.1445 14.5231 31.1445C14.1405 31.0929 13.8029 31.3073 13.6791 31.6648C12.5275 35.1006 11.9423 38.7111 11.9423 42.4014C11.9423 52.101 16.0123 61.1923 23.1018 67.3451C23.4169 67.6192 23.897 67.5675 24.1596 67.2339C24.2834 67.071 24.3434 66.8684 24.3247 66.654C24.3059 66.4395 24.2084 66.2568 24.0546 66.1138C17.3027 60.2671 13.4348 51.6241 13.4348 42.4015C13.4348 39.1485 13.915 35.9431 14.8565 32.8847L14.9053 32.7218H15.0703C18.8252 32.4358 21.7624 29.1033 21.7624 25.1155C21.7624 23.9953 21.5223 22.8872 21.0797 21.8823L21.0121 21.7313L21.1284 21.6082C26.6013 15.3564 34.3439 11.7657 42.3709 11.7657C58.3202 11.7657 71.3033 25.5131 71.3033 42.4015C71.3033 59.2899 58.3202 73.0373 42.3709 73.0373C38.4622 73.0373 34.6774 72.2231 31.1067 70.6264C31.0092 70.5866 30.9154 70.5668 30.8179 70.5668L30.8478 70.5697Z" fill="white"/>
<path d="M84.402 41.5704C81.6937 38.8655 79.2367 38.0115 77.44 37.8486C76.9898 33.8727 75.932 30.0199 74.3078 26.3891C74.3453 26.2778 74.3828 26.1666 74.4128 26.0753C74.5479 25.7297 74.7392 25.4239 74.998 25.1697C76.9748 23.1043 77.2637 22.3853 77.1287 21.7021C77.0537 21.3049 76.7836 20.9792 76.4385 20.8362C75.7558 20.5503 74.8442 20.7568 73.4151 21.1024C72.965 21.2136 72.5223 21.3168 72.1585 21.3764C72.1585 21.3764 71.9747 21.4082 71.5133 21.2136C65.4627 11.9311 56.0249 6.10461 45.4877 5.14676C45.4689 5.08718 45.4501 5.03554 45.4314 4.97199C45.2663 4.5033 45.075 3.97503 44.835 3.35545C43.961 1.13908 43.5108 0.356637 42.6368 0.285155C42.4455 0.23352 42.2317 0.245435 42.0516 0.316931C41.4852 0.531419 41.2751 1.01997 40.3898 3.26409C40.1123 3.96713 39.8347 4.68601 39.6696 5.0118C39.6696 5.0118 39.6396 5.05152 39.5533 5.12302C37.6703 5.28588 35.7984 5.59966 33.9754 6.08027C33.4465 6.22325 33.1202 6.78331 33.2552 7.3394C33.3903 7.89944 33.9267 8.245 34.4443 8.10201C36.2486 7.63332 38.1017 7.31954 39.9097 7.18846C40.101 7.18846 40.2923 7.12888 40.4461 7.01369C40.9075 6.69991 41.2151 6.3742 41.3951 6.00878C41.6165 5.57187 41.9053 4.84107 42.2129 4.05455C42.3292 3.76857 42.4642 3.42302 42.588 3.09731C42.7043 3.36343 42.8468 3.70899 43.0194 4.14585C43.2482 4.7337 43.432 5.25399 43.5858 5.69092C43.6908 5.99676 43.7883 6.27876 43.8821 6.52503C44.0247 6.90236 44.351 7.14466 44.7261 7.17642C54.9627 7.91918 64.1603 13.5117 69.9826 22.5396C70.0801 22.7422 70.2414 22.905 70.4439 22.9964C71.2392 23.3816 71.9031 23.5246 72.4621 23.4333C72.8747 23.3618 73.3661 23.2506 73.865 23.1274C73.9625 23.1076 74.075 23.0758 74.1913 23.048C74.0262 23.2228 73.8462 23.4253 73.6361 23.6478C73.1935 24.0966 72.8597 24.6328 72.6083 25.2445C72.5033 25.5106 72.4058 25.8244 72.312 26.1699C72.2445 26.4122 72.2745 26.6784 72.3795 26.9127C74.1275 30.706 75.2041 34.7533 75.5867 38.9397C75.6355 39.4799 76.0556 39.885 76.5657 39.885H76.5957C77.9011 39.8532 79.9754 40.2822 82.4062 42.4469C81.6297 43.3525 79.8517 44.838 76.6333 44.703C76.0969 44.6514 75.6542 45.1002 75.6055 45.6483C75.2228 50.0731 74.06 54.3311 72.1582 58.3068C72.0907 58.4497 72.0532 58.6205 72.0532 58.7953C72.0532 58.9701 72.0907 59.121 72.1582 59.264C72.4358 59.8518 72.8484 60.3602 73.4074 60.7575C74.0901 61.254 74.5589 61.7743 74.8778 62.2232C74.1951 62.2748 73.2948 62.243 72.3345 62.0007C71.6818 61.8379 70.9504 61.9213 70.1739 62.2549C69.9713 62.3463 69.81 62.4972 69.705 62.6918C63.8383 71.5176 54.6554 76.9477 44.5168 77.6107C44.2279 77.6305 43.9616 77.7854 43.7853 78.0277C43.2564 78.7784 43.0351 79.5013 42.9901 79.6563C42.8363 80.3394 42.6525 81.0306 42.4799 81.5986C42.4687 81.5668 42.4611 81.547 42.4499 81.5192C42.0935 80.697 41.6922 79.7596 41.1933 79.1002C40.8857 78.6951 40.4243 78.2344 39.8391 77.7577C39.6853 77.6346 39.5015 77.5552 39.3102 77.5353C29.0543 76.5185 19.9691 70.6599 14.3725 61.4604C14.17 61.1347 13.8174 60.9321 13.4498 60.9837C12.4708 61.087 11.7317 61.4405 11.5967 61.5041C11.1278 61.7702 10.5689 62.0005 10.1375 62.1157C10.4264 61.7821 10.7902 61.4127 11.0228 61.1903C11.3492 60.8646 11.6267 60.5905 11.818 60.3482C12.0694 60.0146 12.3169 59.5657 12.5758 58.9461C12.632 58.815 12.662 58.6522 12.662 58.5092C12.662 58.3463 12.6245 58.1835 12.557 58.0405C10.6927 54.0645 9.5711 49.8146 9.22597 45.4014C9.18846 44.893 8.80209 44.4879 8.32195 44.4442C4.90468 44.1383 3.28046 43.2644 2.57148 42.7362C3.41548 41.8306 5.2985 40.2855 8.32195 40.071C8.81335 40.0392 9.19596 39.6341 9.24473 39.1257C9.49605 36.1467 10.1187 33.1995 11.0903 30.3715C11.2253 29.9862 11.1278 29.5572 10.8502 29.2633C9.78489 28.1552 9.18845 26.6815 9.18845 25.1166C9.18845 21.9351 11.6379 19.3414 14.6426 19.3414C15.1715 19.3414 15.7004 19.4208 16.218 19.5837C16.5931 19.7068 16.9945 19.5837 17.2458 19.2699C20.5956 15.1828 24.8419 11.9178 29.5384 9.83256C30.0373 9.61013 30.2774 8.99845 30.0673 8.45823C29.8573 7.92996 29.2796 7.67575 28.7694 7.89818C23.9867 10.0231 19.6355 13.308 16.1618 17.4071C15.6629 17.2959 15.1528 17.2323 14.6464 17.2323C10.5465 17.2323 7.21543 20.7595 7.21543 25.1008C7.21543 27.0113 7.86063 28.8106 9.03095 30.2445C8.2057 32.7865 7.64679 35.4001 7.36169 38.0534C2.73283 38.7246 0.523404 42.0174 0.429584 42.1723C0.219522 42.498 0.200767 42.9151 0.373317 43.2606C0.508352 43.5267 1.76496 45.7431 7.34662 46.4342C7.77049 50.6326 8.85455 54.6919 10.5838 58.5049C10.4676 58.7393 10.3738 58.9101 10.2875 59.0252C10.1637 59.1881 9.93114 59.4105 9.67232 59.6647C8.50192 60.8325 7.67675 61.7381 7.74051 62.755C7.77052 63.2117 7.99184 63.6208 8.35569 63.8949C9.65361 64.872 11.9005 63.7201 12.4932 63.3746C12.4932 63.3746 12.7332 63.2634 13.0784 63.172C18.9751 72.4982 28.3267 78.4559 38.8524 79.5917C39.2087 79.9054 39.4863 80.1795 39.6701 80.4139C40.0152 80.8706 40.3603 81.673 40.668 82.3879C41.0506 83.2935 41.3582 84.0045 41.7821 84.4017C42.0034 84.6162 42.281 84.7274 42.5586 84.7274C42.6636 84.7274 42.7799 84.7076 42.8962 84.6758C43.3088 84.5447 44.0103 84.3183 44.9218 80.2034C44.9218 80.2034 44.9968 79.9691 45.1619 79.6632C55.6386 78.8291 65.0993 73.177 71.2134 64.0967C71.4835 64.0053 71.7123 63.9855 71.9036 64.0371C74.4582 64.7084 76.63 64.0768 76.7238 64.049C76.9826 63.9775 77.1927 63.7948 77.3202 63.5525C77.444 63.3102 77.474 63.0123 77.4065 62.7502C77.3877 62.6708 76.81 60.6649 74.5744 59.0484C74.4394 58.9451 74.3231 58.8458 74.2293 58.7346C75.9586 54.9612 77.0726 50.9654 77.534 46.8184C82.5755 46.6238 84.5711 43.0054 84.6611 42.8425C84.8825 42.4254 84.8149 41.8971 84.4773 41.5595L84.402 41.5704Z" fill="white"/>
<path d="M42.5056 85C42.1605 85 41.8229 84.857 41.5641 84.6028C41.1139 84.1659 40.7951 83.4351 40.4012 82.5096C40.1124 81.8383 39.756 81.0161 39.4297 80.5872C39.2759 80.3846 39.0246 80.1304 38.7095 79.8444C28.2328 78.6965 18.8508 72.7386 12.9355 63.4716C12.8004 63.5113 12.6654 63.5629 12.5529 63.6145C12.0915 63.8807 9.63446 65.2113 8.1753 64.111C7.75143 63.7973 7.50386 63.3286 7.46635 62.7883C7.39132 61.6603 8.25408 60.7149 9.47315 59.4956L9.57068 59.4042C9.78074 59.1897 9.96454 59.007 10.0696 58.876C10.1258 58.7965 10.2046 58.6734 10.2909 58.5105C8.61039 54.7689 7.53382 50.7811 7.10246 46.6737C1.68587 45.9508 0.350504 43.8179 0.140394 43.3889C-0.0697167 42.9599 -0.0434145 42.4435 0.215415 42.0384C0.312941 41.8954 2.51107 38.5908 7.1287 37.848C7.41753 35.294 7.95394 32.7639 8.74168 30.3131C7.59011 28.8594 6.95613 27.0085 6.95613 25.1059C6.95613 20.6335 10.3921 16.9832 14.6272 16.9832C15.1073 16.9832 15.5875 17.0349 16.0564 17.1262C19.5411 13.047 23.9037 9.78597 28.6563 7.66102C29.2789 7.38695 29.9991 7.70074 30.2618 8.35214C30.5206 9.01149 30.2317 9.77406 29.6091 10.0522C24.9501 12.1256 20.7377 15.3588 17.4144 19.418C17.0993 19.8033 16.5967 19.9582 16.1391 19.8152C15.6402 19.6523 15.1412 19.5809 14.6311 19.5809C11.7615 19.5809 9.41706 22.0633 9.41706 25.1019C9.41706 26.5954 9.98348 28.0094 11 29.0659C11.3451 29.4233 11.4614 29.9596 11.2963 30.4402C10.336 33.2484 9.72089 36.1757 9.47333 39.1348C9.41706 39.7743 8.93692 40.2748 8.32924 40.3146C5.61346 40.5092 3.84289 41.8 2.94262 42.6937C3.70034 43.1902 5.29455 43.9131 8.32924 44.1872C8.92567 44.2389 9.39458 44.7354 9.4546 45.3788C9.79971 49.7599 10.9138 53.9821 12.7593 57.9264C12.8456 58.1091 12.8831 58.3038 12.8831 58.5063C12.8831 58.7089 12.8456 58.8837 12.7781 59.0545C12.5005 59.6939 12.2492 60.1626 11.9828 60.5082C11.7915 60.7624 11.5215 61.0285 11.2251 61.3304L11.1689 61.382C11.1689 61.382 11.0938 61.4535 11.0526 61.5052C11.1951 61.4337 11.3414 61.3622 11.4765 61.2907C11.6303 61.2112 12.388 60.8418 13.4158 60.7425C13.8584 60.671 14.3085 60.9173 14.5673 61.3304C20.1265 70.4699 29.155 76.2889 39.3244 77.2935C39.5645 77.3252 39.7933 77.4166 39.9771 77.5675C40.5735 78.064 41.0425 78.5327 41.3688 78.9498C41.7814 79.4979 42.1265 80.2089 42.4341 80.904C42.5504 80.487 42.6629 80.0382 42.7604 79.6132C42.798 79.4503 43.0305 78.6877 43.5969 77.8933C43.8183 77.5875 44.1446 77.3968 44.501 77.373C54.5724 76.7136 63.6874 71.3118 69.5058 62.5579C69.6296 62.3355 69.8434 62.1408 70.0835 62.0296C70.9087 61.6722 71.689 61.5808 72.398 61.7556C73.0319 61.9184 73.7034 61.9899 74.3935 61.9899C74.0784 61.6245 73.7033 61.2789 73.2794 60.9731C72.6942 60.5441 72.2516 60.0079 71.9553 59.3883C71.869 59.2056 71.8315 59.0109 71.8315 58.8084C71.8315 58.6058 71.8802 58.3913 71.9665 58.2086C73.8571 54.2645 75.0012 50.0343 75.3838 45.6417C75.44 44.9307 76.029 44.4024 76.6704 44.462C79.5512 44.5851 81.243 43.3539 82.0682 42.48C79.7726 40.5059 77.8707 40.1127 76.6141 40.1524C75.9501 40.1524 75.425 39.644 75.365 38.9727C74.9899 34.8141 73.9245 30.7984 72.1878 27.0372C72.0527 26.7512 72.0227 26.4255 72.1127 26.1237C72.199 25.79 72.304 25.4723 72.4203 25.1664C72.6717 24.5349 73.0243 23.9748 73.4782 23.5101C73.1406 23.5896 72.8255 23.6611 72.5366 23.7048C71.9327 23.7961 71.2312 23.6531 70.3872 23.248C70.1472 23.1249 69.9371 22.9223 69.8096 22.68C64.0479 13.743 54.906 8.19028 44.7442 7.448C44.2753 7.41623 43.859 7.09053 43.6864 6.63375C43.6114 6.41926 43.5213 6.18492 43.435 5.93071L43.3863 5.79963C43.2325 5.36271 43.0487 4.8543 42.8199 4.2625C42.7448 4.07979 42.6773 3.90503 42.6173 3.75409C42.561 3.89708 42.501 4.04007 42.4523 4.17115C42.1447 4.95363 41.8483 5.69638 41.627 6.14521C41.4245 6.5424 41.0906 6.89591 40.5917 7.24144C40.3892 7.38443 40.1604 7.45593 39.9203 7.45593C38.1235 7.59892 36.308 7.90477 34.5149 8.36949C34.1998 8.44893 33.8697 8.40126 33.5922 8.21855C33.3146 8.03584 33.112 7.74986 33.037 7.41622C32.962 7.08258 33.007 6.72509 33.1795 6.43117C33.3521 6.13725 33.6222 5.92276 33.9373 5.84332C35.7415 5.37463 37.6058 5.04893 39.4776 4.88608L39.4889 4.87416C39.6427 4.56038 39.9128 3.86926 40.1791 3.19803C41.0719 0.94191 41.3044 0.342189 41.9946 0.0760865C42.2159 -0.00335271 42.4747 -0.0271824 42.7148 0.0363659C43.7314 0.115805 44.2415 1.12467 45.0856 3.26162C45.3256 3.86139 45.5094 4.38969 45.6707 4.84644L45.7008 4.91794C56.1967 5.92284 65.6641 11.7815 71.7033 21.0122C71.9922 21.1234 72.1535 21.1234 72.1647 21.1353C72.5098 21.0757 72.9149 20.9844 73.3464 20.8692C74.873 20.4919 75.8146 20.2893 76.5648 20.6031C76.9887 20.7659 77.3151 21.1711 77.4089 21.6516C77.5739 22.4341 77.2851 23.1967 75.2182 25.3535C74.9894 25.5878 74.8131 25.8619 74.6893 26.1757C74.6706 26.2352 74.6406 26.3067 74.6143 26.3782C76.1973 29.9371 77.2439 33.7185 77.7053 37.6151C80.0572 37.8892 82.3829 39.1602 84.6111 41.3884C85.0237 41.8055 85.1212 42.4569 84.8399 42.9733C84.7536 43.1361 82.7168 46.7863 77.724 47.0723C77.2551 51.1078 76.1673 55.0122 74.498 58.6946C74.5543 58.7462 74.6218 58.8058 74.6893 58.8574C76.985 60.5256 77.6001 62.6109 77.619 62.6903C77.7165 63.024 77.6752 63.3814 77.5139 63.6873C77.3489 63.9931 77.0825 64.2155 76.7637 64.3069C76.7449 64.3069 74.4793 64.9901 71.8273 64.295C71.7035 64.2632 71.5384 64.2751 71.3471 64.3347C65.2216 73.3749 55.7425 79.0471 45.2956 79.9206C45.1905 80.135 45.1418 80.286 45.1418 80.2979C44.2002 84.54 43.45 84.7703 42.9624 84.9332C42.8386 84.9729 42.6923 84.9927 42.5573 84.9927L42.5056 85ZM13.1305 62.8923L13.228 63.0432C19.0759 72.2859 28.4015 78.2355 38.8292 79.352H38.9042L38.9605 79.4116C39.3356 79.7373 39.6244 80.0312 39.8045 80.2775C40.1683 80.7541 40.5247 81.5802 40.8398 82.3111C41.2149 83.1849 41.5112 83.8761 41.8976 84.2414C42.1377 84.4758 42.4828 84.5552 42.7829 84.4639C43.128 84.3527 43.7619 84.1501 44.6472 80.1741C44.6584 80.1225 44.7447 79.8802 44.906 79.5624L44.9735 79.4393H45.0973C55.477 78.5973 64.907 72.961 70.976 63.9643L71.0248 63.8928L71.0998 63.861C71.4074 63.7577 71.685 63.7379 71.9176 63.7895C74.4533 64.4489 76.5952 63.8094 76.6139 63.8094C76.8052 63.7498 76.9703 63.6147 77.0641 63.432C77.1616 63.2493 77.1803 63.0269 77.1316 62.8204C77.1128 62.7409 76.5539 60.8265 74.3857 59.2615C74.2319 59.1503 74.1082 59.0271 74.0031 58.904L73.8981 58.7729L73.9656 58.622C75.6837 54.8804 76.7902 50.8925 77.2404 46.7852L77.2591 46.5707H77.4617C82.3493 46.3761 84.3075 42.8689 84.3862 42.7179C84.5588 42.4041 84.5025 42.0069 84.2512 41.7527C82.0606 39.5761 79.7085 38.305 77.4316 38.0905L77.2403 38.0706L77.2215 37.868C76.7714 33.9239 75.7248 30.091 74.1119 26.4888L74.0743 26.3974L74.1044 26.2942C74.1419 26.171 74.1794 26.0598 74.2206 25.9685C74.3744 25.5911 74.5845 25.2575 74.8658 24.9834C76.7489 23.0213 77.0452 22.3301 76.9289 21.7502C76.8726 21.4444 76.6588 21.1823 76.3812 21.079C75.7661 20.8248 74.8845 21.0194 73.4892 21.353C72.9978 21.4762 72.5776 21.5755 72.2138 21.639L72.1163 21.6589H72.0975C71.9325 21.6271 71.7037 21.5675 71.4523 21.4642L71.3848 21.4325L71.3473 21.3729C65.3642 12.1817 55.9453 6.36257 45.4945 5.41794H45.3407L45.2244 5.07238C45.0519 4.58383 44.8681 4.06748 44.6393 3.46774C43.7465 1.21161 43.3413 0.611892 42.6437 0.548341C42.4524 0.50862 42.2873 0.508621 42.1523 0.560256C41.7022 0.735028 41.5183 1.10838 40.6256 3.36841C40.348 4.07145 40.0705 4.78241 39.9054 5.11613C39.8754 5.17571 39.8304 5.23925 39.7216 5.33061L39.6653 5.38225H39.5903C37.7185 5.54511 35.8542 5.8708 34.05 6.3395C33.8586 6.39113 33.6936 6.51427 33.5886 6.69697C33.4835 6.87968 33.4535 7.09417 33.5023 7.29673C33.5511 7.4993 33.6673 7.67407 33.8399 7.78529C34.0124 7.89651 34.215 7.92827 34.4063 7.87664C36.2218 7.40795 38.0749 7.09417 39.9092 6.95117C40.0743 6.95117 40.2168 6.91145 40.3406 6.82009C40.7645 6.52617 41.0496 6.23225 41.2146 5.90654C41.4247 5.48948 41.7135 4.75865 42.0098 3.98413C42.1261 3.69815 42.2612 3.3526 42.3925 3.02689L42.6025 2.50656L42.8313 3.01497C42.9476 3.28109 43.0902 3.62665 43.2627 4.07155C43.4915 4.6594 43.6753 5.17968 43.8291 5.62851L43.8779 5.75959C43.9642 6.01379 44.0504 6.23622 44.1292 6.45071C44.2343 6.73669 44.4856 6.92735 44.7744 6.9472C55.0859 7.68996 64.3556 13.3341 70.2104 22.4222C70.2967 22.597 70.4205 22.7161 70.5743 22.7995C71.3245 23.165 71.9397 23.296 72.4573 23.2166C72.8512 23.157 73.3426 23.0339 73.8415 22.9108L74.9443 22.6446L74.3891 23.2563C74.2241 23.439 74.044 23.6416 73.8227 23.868C73.4101 24.297 73.0837 24.8054 72.8512 25.3813C72.7461 25.6554 72.6486 25.9612 72.5623 26.275C72.5136 26.4577 72.5323 26.6603 72.6111 26.8351C74.3666 30.6601 75.462 34.7273 75.8371 38.9454C75.8746 39.3506 76.1934 39.6683 76.576 39.6683C77.9415 39.6366 80.0721 40.0655 82.5666 42.2898L82.7579 42.4646L82.5853 42.6592C81.7789 43.5966 79.907 45.1298 76.6211 44.9987C76.216 44.959 75.8821 45.2847 75.8446 45.7216C75.462 50.1742 74.2879 54.4679 72.3786 58.4715C72.3298 58.5828 72.3036 58.7138 72.3036 58.837C72.3036 58.9601 72.3336 59.0792 72.3786 59.1944C72.6374 59.7426 73.0313 60.2112 73.5414 60.5965C74.1453 61.0334 74.6668 61.5538 75.0681 62.1099L75.3381 62.4872L74.8955 62.519C73.9915 62.5785 73.1099 62.5071 72.2734 62.2846C71.6695 62.1337 70.9981 62.2131 70.2553 62.5269C70.1128 62.5865 69.9777 62.7096 69.899 62.8526C63.9834 71.7498 54.737 77.2315 44.5186 77.9026C44.2973 77.9145 44.0948 78.0257 43.971 78.2164C43.4533 78.9393 43.2508 79.6304 43.2133 79.7614C43.0707 80.4208 42.8869 81.1119 42.6956 81.7157L42.493 82.3551L42.2417 81.7236L42.3767 81.5925H42.3467L42.2117 81.6521C41.8554 80.818 41.4615 79.9124 40.9814 79.2849C40.6851 78.8877 40.2312 78.4507 39.6647 77.9821C39.5597 77.8907 39.4134 77.8312 39.2596 77.8192C28.9366 76.8024 19.7764 70.8961 14.1386 61.6294C13.9848 61.3752 13.7072 61.2322 13.4484 61.2719C12.4694 61.3633 11.7491 61.7287 11.6703 61.7684C11.2277 62.0226 10.6425 62.2649 10.1624 62.4L9.37464 62.6144L9.9298 61.9829C10.2261 61.6374 10.6012 61.2719 10.8226 61.0455L10.8713 60.9939C11.1677 60.7 11.419 60.4458 11.5915 60.2194C11.8316 59.9056 12.0604 59.4766 12.323 58.8689C12.3605 58.7656 12.3905 58.6465 12.3905 58.5353C12.3905 58.4241 12.3605 58.293 12.3155 58.1778C10.4437 54.1701 9.31087 49.8923 8.96575 45.4472C8.93574 45.0619 8.65066 44.7561 8.28304 44.7243C4.76821 44.4105 3.09904 43.485 2.41628 42.9647L2.18746 42.7899L2.39003 42.5754C3.26404 41.638 5.19588 40.0532 8.29424 39.8308C8.66935 39.799 8.95819 39.5051 8.98444 39.1079C9.23577 36.1091 9.86971 33.1381 10.8375 30.2901C10.935 29.9962 10.8675 29.6705 10.6537 29.456C9.53957 28.2962 8.92442 26.7631 8.92442 25.1226C8.92442 21.7981 11.479 19.0932 14.6186 19.0932C15.1663 19.0932 15.7214 19.1846 16.2616 19.3593C16.5391 19.4507 16.8467 19.3593 17.038 19.125C20.4103 15.006 24.6904 11.7213 29.4171 9.62806C29.7997 9.45329 29.9722 8.99652 29.8222 8.59141C29.6571 8.18627 29.2183 8.00356 28.8432 8.16243C24.1093 10.2676 19.7768 13.5325 16.322 17.5998L16.2245 17.711L16.0895 17.6792C15.6093 17.568 15.1105 17.5163 14.6191 17.5163C10.6542 17.5163 7.42818 20.9323 7.42818 25.1306C7.42818 26.9617 8.05087 28.7293 9.18368 30.1114L9.26995 30.2226L9.22119 30.3656C8.40345 32.8879 7.84827 35.5014 7.57065 38.1229L7.55189 38.3175L7.36809 38.3493C2.8367 39.0086 0.683642 42.2219 0.597312 42.357C0.432258 42.5992 0.413504 42.917 0.548548 43.1792C0.672338 43.4214 1.88392 45.5385 7.33805 46.2177L7.52936 46.2376L7.54811 46.4402C7.97199 50.6107 9.04481 54.6343 10.7666 58.4275L10.8154 58.5387L10.7591 58.6499C10.6353 58.8922 10.5303 59.0789 10.4328 59.2099C10.309 59.3728 10.1177 59.5674 9.88509 59.7898L9.78757 59.8812C8.66221 61.0013 7.867 61.8632 7.93451 62.7688C7.96452 63.154 8.14457 63.4917 8.44466 63.7141C9.67498 64.6396 11.9032 63.4281 12.3346 63.1739L12.3908 63.1541C12.4659 63.1143 12.6872 63.023 12.976 62.9515L13.1411 62.9118L13.1305 62.8923Z" fill="white"/>
</svg>
