<svg width="86" height="86" viewBox="0 0 86 86" fill="none" xmlns="http://www.w3.org/2000/svg">
<path d="M56.3601 28.8332C56.1413 28.5949 55.8288 28.4739 55.5007 28.5129C52.071 28.9035 50.4226 25.3332 50.3601 25.1848C50.239 24.9231 50.0202 24.7239 49.7507 24.634C49.4812 24.5559 49.1804 24.5833 48.9304 24.7356C45.6687 26.7161 43.6921 24.0637 43.4812 23.7551C43.2898 23.4856 42.9929 23.3254 42.6609 23.3137C42.3015 23.3137 42.0203 23.4739 41.8328 23.7434C41.614 24.052 39.6336 26.7043 36.3719 24.7239C36.1336 24.5754 35.8328 24.5442 35.5516 24.6223C35.282 24.7122 35.0516 24.9114 34.9422 25.1731C34.9226 25.2122 33.2313 28.9036 29.8016 28.5012C29.4735 28.4621 29.161 28.5793 28.9422 28.8215C28.7234 29.0598 28.6414 29.3918 28.7039 29.7004C28.7352 29.8489 29.4344 33.2785 25.6141 34.2902C25.3329 34.3605 25.1024 34.5597 24.9735 34.8215C24.9227 34.923 24.9149 35.0324 24.8954 35.1418C24.204 35.1926 23.5048 35.2512 22.8368 35.3137C22.286 35.3644 21.8758 35.8527 21.9266 36.4035C21.9774 36.9542 22.4774 37.3644 23.0164 37.3136C23.7781 37.2433 24.5476 37.1847 25.3367 37.1222C25.3367 37.1613 25.3562 37.2003 25.3562 37.2433C25.3562 37.2941 25.368 37.3449 25.3758 37.3917C25.3953 37.5206 25.407 37.6613 25.4148 37.8019V37.9308V38.4894V38.591C25.4031 38.7511 25.3836 38.8996 25.3562 39.0597C25.3562 39.1183 25.3367 39.1691 25.325 39.2316C25.2937 39.38 25.2547 39.5324 25.2039 39.6808C25.1844 39.7199 25.1727 39.7707 25.1648 39.8097C25.0945 40.0011 25.0047 40.1808 24.8953 40.3605C24.8758 40.3918 24.8562 40.4191 24.8367 40.4503C24.7664 40.5597 24.6766 40.6691 24.5984 40.7707C23.9695 40.9894 22.9578 41.4621 22.9578 42.4426C22.9578 43.6614 24.4969 44.091 25.157 44.2824C25.1766 44.2824 25.1961 44.2941 25.2273 44.3019C25.3484 44.3331 25.4891 44.3722 25.618 44.4034C25.657 44.4034 25.6883 44.423 25.7195 44.4347C25.8602 44.4659 26.0086 44.505 26.1609 44.5363C26.2117 44.548 26.2508 44.5558 26.3016 44.5675C26.4305 44.5988 26.5711 44.6183 26.7 44.6456C26.7781 44.6652 26.8602 44.6769 26.95 44.6964C27.0281 44.7159 27.1219 44.7277 27.2117 44.7355C28.2898 44.9269 29.5711 45.087 31.0398 45.2238C34.3406 45.5323 38.4617 45.7042 42.6488 45.7042C46.8402 45.7042 50.9574 45.5323 54.2578 45.2238C56.7773 44.9933 58.789 44.673 60.0781 44.3019C60.0977 44.3019 60.1289 44.2902 60.1484 44.2824C60.8086 44.0909 62.3476 43.6613 62.3476 42.4426C62.3476 41.4621 61.3359 41.0012 60.707 40.7707C60.6172 40.6691 60.5352 40.5597 60.4688 40.4503C60.4492 40.4191 60.418 40.3917 60.3984 40.3488C60.2969 40.1691 60.207 39.9894 60.1367 39.8097C60.1172 39.7589 60.1055 39.7082 60.0859 39.6613C60.0352 39.5207 59.9961 39.3722 59.9648 39.2316C59.9531 39.173 59.9453 39.1105 59.9336 39.0597C59.9023 38.8996 59.8828 38.7511 59.875 38.5988V38.4894V37.9308V37.8019C59.875 37.6613 59.8945 37.5207 59.9141 37.38C59.9141 37.3292 59.9258 37.2902 59.9336 37.2394C59.9336 37.2003 59.9531 37.1613 59.9531 37.1105C60.9023 37.1808 61.8437 37.2589 62.7539 37.3488C63.3125 37.3996 63.793 36.9972 63.8437 36.4503C63.8945 35.8996 63.4922 35.4112 62.9453 35.3605C62.125 35.2824 61.2539 35.2199 60.4062 35.1496C60.3945 35.0402 60.3749 34.9308 60.3281 34.8293C60.1992 34.5676 59.9687 34.3683 59.6874 34.298C55.9686 33.3098 56.5272 30.0675 56.5976 29.7082C56.6679 29.3879 56.5781 29.0676 56.3594 28.8293L56.3601 28.8332ZM58.1687 35.9035C58.1491 35.9738 58.1296 36.0637 58.1179 36.134C58.0866 36.2434 58.0671 36.3449 58.0398 36.4621C58.0202 36.5715 58.0007 36.7004 57.9812 36.8215C57.9616 36.9426 57.9421 37.0598 57.9226 37.1926C57.903 37.3332 57.903 37.4738 57.8913 37.6145C57.8913 37.7434 57.8718 37.8645 57.8601 37.9934C57.8601 38.1418 57.8601 38.302 57.8718 38.4621C57.8718 38.591 57.8718 38.7121 57.8835 38.841C57.8952 39.0129 57.9343 39.1809 57.9616 39.3528C57.9812 39.4739 57.9929 39.591 58.0202 39.7239C58.0593 39.9153 58.1296 40.0949 58.1921 40.2824C58.2312 40.3918 58.2507 40.5012 58.2937 40.6106C58.3835 40.8215 58.4929 41.0324 58.614 41.2395C58.653 41.3176 58.6843 41.3996 58.7351 41.4699C58.9148 41.7512 59.1257 42.0285 59.3757 42.2902L59.4343 42.3488C59.4343 42.3488 59.403 42.3801 59.3835 42.3879C59.3523 42.3879 59.3327 42.3996 59.3054 42.4074C59.1062 42.4582 58.8952 42.509 58.6648 42.5559C58.614 42.5676 58.5749 42.5754 58.5241 42.5871C58.2624 42.6379 57.9929 42.6887 57.7038 42.7356C57.6335 42.7473 57.5632 42.7551 57.4929 42.7668C57.2038 42.8176 56.8913 42.8567 56.5632 42.9074H56.5046C56.1648 42.9582 55.8054 42.9973 55.4265 43.0363C55.3757 43.0363 55.3249 43.0481 55.2781 43.0559C55.2898 42.8254 55.2976 42.6067 55.2976 42.3957C55.2976 41.7942 55.2468 41.1574 55.157 40.4543C54.8484 38.4934 54.0867 36.6262 52.9382 35.0246C52.6882 34.6731 52.4069 34.3332 52.1296 34.0051C51.7585 33.595 51.1296 33.5559 50.7194 33.9153C50.3092 34.2864 50.2702 34.9153 50.6295 35.3255C50.8678 35.6067 51.0983 35.8841 51.3209 36.1849C52.2819 37.5247 52.9225 39.1068 53.1803 40.7357C53.2585 41.3138 53.3014 41.8763 53.3014 42.3763C53.3014 42.6458 53.2897 42.9348 53.2624 43.2278C47.0632 43.7473 38.2314 43.7473 32.0324 43.2278C32.0128 42.927 31.9933 42.6497 31.9933 42.3763C31.9933 41.8645 32.0324 41.3177 32.1144 40.7552C32.3761 39.1068 33.0128 37.5247 33.9738 36.1849C35.9738 33.3958 39.2238 31.7357 42.6457 31.7357C43.8059 31.7357 44.9348 31.9153 46.0168 32.2747C46.5481 32.4466 47.1066 32.1653 47.2785 31.6458C47.4504 31.1263 47.1691 30.556 46.6496 30.3841C45.3605 29.9544 44.009 29.7357 42.6379 29.7357C38.5676 29.7357 34.7277 31.7162 32.3489 35.0248C31.2083 36.6146 30.4387 38.4936 30.1301 40.474C30.0402 41.1458 29.9895 41.7943 29.9895 42.3959C29.9895 42.6068 29.9895 42.8256 30.009 43.056C29.9582 43.056 29.9074 43.0443 29.8606 43.0365C29.4817 42.9974 29.1223 42.9467 28.7825 42.9076H28.7317C28.4036 42.8568 28.0911 42.8177 27.7903 42.767C27.72 42.7552 27.6497 42.7474 27.5793 42.7357C27.2903 42.6849 27.009 42.6342 26.759 42.5873C26.7082 42.5873 26.6692 42.5677 26.6184 42.556C26.3879 42.5052 26.177 42.4545 25.9778 42.4076C25.9465 42.4076 25.927 42.3959 25.8997 42.3881C25.8801 42.3763 25.8684 42.3568 25.8489 42.349L25.9075 42.2904C26.1575 42.0287 26.3684 41.7513 26.5481 41.4701C26.6067 41.3802 26.6497 41.2787 26.6965 41.1888C26.8059 40.9974 26.9153 40.8099 26.9973 40.6107C27.0481 40.5013 27.0676 40.3802 27.1067 40.2709C27.1653 40.0912 27.2356 39.9115 27.2786 39.7318C27.3098 39.6107 27.3176 39.4935 27.3372 39.3724C27.3684 39.1927 27.3958 39.0209 27.4153 38.8529C27.427 38.7318 27.4153 38.6224 27.427 38.5013C27.427 38.3295 27.4465 38.1615 27.4387 38.0013C27.4387 37.8803 27.4192 37.7826 27.4192 37.6615C27.4075 37.5013 27.3997 37.3412 27.3801 37.1928C27.3684 37.0834 27.3489 36.9818 27.3294 36.8724C27.3098 36.7318 27.2903 36.5912 27.259 36.474C27.2395 36.3646 27.2083 36.2631 27.1887 36.1654C27.1692 36.0873 27.1497 35.9935 27.1301 35.9154C29.9817 34.7435 30.7707 32.3451 30.7785 30.5365C33.6691 30.3373 35.4387 28.1967 36.2473 26.9271C39.0364 28.1654 41.3254 27.0756 42.6457 25.8373C43.966 27.0756 46.2473 28.1654 49.0441 26.9271C49.8527 28.1966 51.6222 30.3373 54.5129 30.5365C54.5247 32.3451 55.3137 34.7474 58.1613 35.9154L58.1687 35.9035Z" fill="white"/>
<path d="M42.649 45.8142C38.4576 45.8142 34.3404 45.6424 31.04 45.3338C29.5712 45.1931 28.2783 45.033 27.1884 44.8455L26.6767 44.7556C26.5361 44.7244 26.3955 44.7049 26.2783 44.6775L26.1298 44.6463C25.9814 44.615 25.8291 44.576 25.6884 44.5447L25.5166 44.5056C25.4072 44.4744 25.2861 44.4471 25.1884 44.4158C25.1689 44.4158 25.1494 44.4158 25.1181 44.3963C24.4267 44.1971 22.829 43.7478 22.829 42.4354C22.829 41.6541 23.3993 41.0643 24.5204 40.6659C24.5986 40.5643 24.6689 40.4745 24.7314 40.3846C24.7314 40.3651 24.7509 40.3534 24.7626 40.3338C24.7626 40.3221 24.7821 40.3143 24.7939 40.2948C24.8954 40.1346 24.9736 39.9549 25.0439 39.7635C25.0556 39.7323 25.0634 39.7049 25.0751 39.6854V39.6463C25.1337 39.4979 25.1767 39.3573 25.204 39.2167C25.2157 39.1659 25.2236 39.1073 25.2353 39.0565C25.2665 38.9081 25.2861 38.7479 25.2939 38.5956V38.494C25.3134 38.3221 25.3134 38.1424 25.3056 37.9432V37.8143C25.2861 37.6737 25.2743 37.5448 25.2548 37.4041C25.2548 37.3534 25.2431 37.3026 25.2353 37.2635C24.4853 37.3221 23.7548 37.3846 23.0244 37.4549C22.7236 37.4862 22.4345 37.3963 22.2041 37.1932C21.9736 37.0018 21.8252 36.7323 21.8056 36.4315C21.7744 36.1307 21.8642 35.8417 22.0673 35.6112C22.2666 35.3807 22.5283 35.2401 22.8291 35.2127C23.3486 35.162 23.8877 35.1229 24.4189 35.0838L24.79 35.0526C24.8017 34.9745 24.8212 34.8807 24.8681 34.8026C25.0087 34.5135 25.2782 34.2909 25.5868 34.2127C29.3056 33.2245 28.618 29.9119 28.5868 29.7713C28.5087 29.4198 28.6064 29.0409 28.8486 28.7831C29.0986 28.5018 29.4501 28.3729 29.8095 28.4237C33.0907 28.7948 34.7587 25.3143 34.8212 25.162C34.9501 24.8729 35.2001 24.6425 35.5126 24.5409C35.8212 24.4393 36.1532 24.4901 36.4345 24.6503C39.6064 26.5722 41.5126 24.0018 41.7236 23.7011C41.9345 23.3925 42.2626 23.2206 42.6533 23.2206C43.0244 23.2206 43.372 23.412 43.583 23.7089C43.7939 24.0096 45.7041 26.5683 48.8721 24.6503C49.1416 24.4784 49.4814 24.4393 49.7939 24.5409C50.1025 24.6425 50.3525 24.8612 50.4854 25.162C50.6455 25.5135 52.087 28.4511 54.9971 28.4511C55.1572 28.4511 55.3252 28.4511 55.5088 28.4198C55.8681 28.369 56.2197 28.5097 56.4697 28.7792C56.708 29.0487 56.8096 29.4198 56.7314 29.7675C56.6611 30.1191 56.1103 33.248 59.7314 34.2089C60.0517 34.287 60.3096 34.5097 60.4502 34.8105C60.4892 34.8886 60.5088 34.9823 60.5205 35.0605L60.7197 35.08C61.4814 35.1386 62.2314 35.2011 62.958 35.2714C63.5791 35.33 64.0283 35.8808 63.9697 36.5019C63.9189 37.0917 63.4307 37.5214 62.8486 37.5214H62.7471C61.9072 37.4433 61.0088 37.3612 60.0557 37.2909L60.0361 37.4315C60.0166 37.5722 60.0049 37.7128 59.9971 37.8534V37.9823C59.9775 38.1737 59.9775 38.3534 59.9971 38.5331V38.5839V38.6425C60.0088 38.7909 60.0283 38.9511 60.0557 39.0917C60.0557 39.1503 60.0752 39.2011 60.0869 39.2636C60.1182 39.4042 60.1572 39.5448 60.208 39.6855V39.7245C60.208 39.7245 60.2392 39.7831 60.2588 39.8261C60.3291 40.0175 60.4189 40.1855 60.5088 40.3456C60.5088 40.3652 60.5283 40.3769 60.54 40.3847C60.5517 40.4042 60.5596 40.4159 60.5791 40.4355C60.6377 40.5253 60.708 40.6152 60.79 40.7167C61.9111 41.1152 62.4814 41.7167 62.4814 42.4862C62.4814 43.7948 60.8798 44.2557 60.2002 44.4471C60.169 44.4471 60.1416 44.4666 60.1221 44.4666C58.8409 44.8377 56.8213 45.1463 54.294 45.3885C50.9932 45.6971 46.8643 45.869 42.673 45.869L42.649 45.8142ZM31.04 45.0838C34.3408 45.3924 38.4619 45.5642 42.649 45.5642C46.8404 45.5642 50.9498 45.3924 54.251 45.0838C56.7627 44.8533 58.7705 44.533 60.0518 44.1736C60.0831 44.1736 60.1026 44.1619 60.1222 44.1541C60.7511 43.9744 62.2316 43.5525 62.2316 42.4353C62.2316 41.7634 61.712 41.2439 60.673 40.8845H60.6417L60.6222 40.8454C60.5323 40.736 60.4425 40.6267 60.3722 40.5173L60.3409 40.4782C60.3409 40.4782 60.3097 40.4392 60.3019 40.4196C60.2003 40.2478 60.1026 40.0603 60.0323 39.861C60.0206 39.822 60.0011 39.7907 59.9933 39.7517V39.7126C59.9347 39.572 59.8917 39.4235 59.8527 39.2712C59.8409 39.2126 59.8214 39.1501 59.8136 39.0915C59.7823 38.9431 59.7628 38.7829 59.755 38.611V38.5603V38.5017V37.9314V37.8532V37.8024C59.7667 37.654 59.7862 37.5134 59.8058 37.3728L59.8644 36.9938H59.9855C60.9737 37.0837 61.9152 37.1657 62.7863 37.2438H62.8644C63.3136 37.2438 63.6925 36.9157 63.7355 36.4548C63.7745 35.9743 63.4269 35.5446 62.9464 35.5056C62.2277 35.4353 61.4659 35.3767 60.7081 35.3142L60.298 35.2829V35.1813C60.2784 35.0798 60.2589 34.9899 60.2198 34.9001C60.1105 34.6696 59.8995 34.5017 59.6612 34.4392C55.8214 33.4197 56.3995 30.0798 56.4815 29.7009C56.5401 29.4196 56.462 29.1423 56.2706 28.9313C56.0792 28.7204 55.8019 28.611 55.5206 28.6501C52.0987 29.0407 50.4308 25.6306 50.2511 25.2517C50.1495 25.0212 49.9503 24.8415 49.712 24.7712C49.4738 24.7009 49.212 24.7321 48.9933 24.861C45.6339 26.9001 43.5949 24.1696 43.3722 23.8493C43.212 23.6111 42.9425 23.4704 42.6534 23.4704C42.3527 23.4704 42.1027 23.5993 41.9347 23.8493C41.7159 24.1697 39.6652 26.9079 36.3136 24.8688C36.1027 24.7399 35.8448 24.7087 35.5948 24.779C35.3566 24.8571 35.1534 25.029 35.0558 25.2595C34.9855 25.4196 33.2472 29.0603 29.7863 28.6697C29.505 28.6384 29.2355 28.74 29.0363 28.9509C28.8449 29.1619 28.7668 29.4509 28.8253 29.7205C28.8566 29.8689 29.5949 33.4119 25.6456 34.4588C25.3956 34.5291 25.1964 34.6892 25.0871 34.9197C25.048 34.9978 25.0363 35.0994 25.0167 35.2009V35.3025L24.4386 35.3416C23.8995 35.3806 23.3683 35.4197 22.8488 35.4705C22.6183 35.49 22.4074 35.5994 22.259 35.7791C22.1105 35.9587 22.0402 36.1892 22.0597 36.4197C22.0793 36.6502 22.1887 36.8611 22.3683 37.0095C22.548 37.158 22.7785 37.2283 23.009 37.2087C23.7707 37.1384 24.5481 37.0798 25.3293 37.0173H25.4386L25.4699 37.1658C25.4699 37.197 25.4699 37.2166 25.4816 37.2439C25.4816 37.2947 25.4933 37.3455 25.5011 37.3923C25.5207 37.5213 25.5324 37.6736 25.5402 37.8142V37.865V37.9431V38.5134V38.5838V38.6228C25.5207 38.783 25.5011 38.9431 25.4816 39.1033C25.4816 39.1619 25.4621 39.2127 25.4503 39.2752C25.4191 39.4236 25.38 39.5759 25.3214 39.7361V39.7752C25.3214 39.7752 25.2902 39.8338 25.2824 39.8767C25.2043 40.0759 25.1105 40.2673 25.0128 40.447C25.0011 40.4666 24.9933 40.4861 24.9738 40.4978L24.9543 40.5369C24.8761 40.658 24.7824 40.7673 24.7043 40.8767L24.6847 40.908H24.6535C23.6223 41.2791 23.0949 41.7986 23.0949 42.4666C23.0949 43.5877 24.5637 44.0057 25.1965 44.1854C25.216 44.1854 25.2355 44.1971 25.2551 44.2049C25.3644 44.2361 25.4738 44.2635 25.5832 44.2947L25.7551 44.3338C25.8957 44.3651 26.0441 44.4041 26.1965 44.4354L26.3371 44.4666C26.466 44.4979 26.5988 44.5174 26.7355 44.5447L27.2473 44.6346C28.3254 44.826 29.6067 44.9861 31.0559 45.1151L31.04 45.0838ZM42.649 43.7947C38.8795 43.7947 35.0982 43.6658 32.028 43.404H31.9187V43.2947C31.8991 42.9744 31.8796 42.6931 31.8796 42.4353C31.8796 41.9236 31.9187 41.3767 32.0007 40.7947C32.2624 39.1228 32.9109 37.5252 33.8796 36.1658C35.9108 33.3455 39.1882 31.6541 42.6491 31.6541C43.821 31.6541 44.9694 31.8455 46.0593 32.2049C46.5202 32.3533 47.0202 32.1033 47.1687 31.6541C47.3171 31.1931 47.0671 30.7049 46.6179 30.5447C45.3484 30.1228 44.0085 29.9041 42.6491 29.9041C38.6179 29.9041 34.821 31.865 32.4581 35.1346C31.3292 36.7127 30.5675 38.576 30.2589 40.5252C30.1691 41.1853 30.1183 41.826 30.1183 42.4236C30.1183 42.6345 30.1183 42.8533 30.1378 43.072V43.2204L29.8488 43.1892C29.4699 43.1501 29.1105 43.0994 28.759 43.0603H28.7277C28.3879 43.0095 28.0676 42.9587 27.7668 42.9118L27.5558 42.8728C27.2668 42.822 26.9855 42.7712 26.7277 42.7243L26.5871 42.6931C26.3566 42.6423 26.1379 42.5915 25.9465 42.5447L25.8176 42.4939L25.6691 42.365L25.8176 42.2165C26.048 41.9665 26.259 41.697 26.4387 41.4157C26.4699 41.365 26.4973 41.3142 26.5168 41.2556C26.5363 41.2165 26.5558 41.1775 26.5754 41.1345L26.6144 41.0564C26.7043 40.8962 26.7941 40.7282 26.8644 40.5681C26.8957 40.4978 26.9152 40.4275 26.9347 40.3572C26.9465 40.3181 26.966 40.2673 26.9738 40.2282L27.0129 40.1189C27.0637 39.9704 27.1027 39.8376 27.1418 39.697C27.1613 39.6267 27.173 39.5564 27.1808 39.4782C27.1808 39.4274 27.1926 39.3884 27.2004 39.3376L27.2199 39.2282C27.2394 39.0876 27.2707 38.9587 27.2785 38.8181V38.5876V38.3571C27.2902 38.2282 27.298 38.0954 27.2902 37.9782C27.2902 37.9079 27.2902 37.8298 27.2785 37.7595V37.5681C27.259 37.4391 27.2473 37.3063 27.2277 37.1892C27.216 37.111 27.2082 37.029 27.1887 36.9509L27.1691 36.822C27.1496 36.7009 27.1301 36.5837 27.1105 36.4704C27.091 36.3688 27.0715 36.279 27.0402 36.1813L27.009 36.072C26.9973 36.0212 26.9894 35.9626 26.9699 35.9118L26.9387 35.8024L27.0402 35.7634C30.2394 34.4548 30.6105 31.6423 30.6183 30.4939V30.3728H30.7394C33.5792 30.1736 35.3175 28.0642 36.1105 26.822L36.1691 26.7321L36.2707 26.7712C39.4113 28.1618 41.6926 26.4899 42.5324 25.7009L42.6105 25.6228L42.6886 25.7009C43.5285 26.4821 45.8097 28.1618 48.9503 26.7712L49.0519 26.7321L49.1105 26.822C49.8995 28.0603 51.6496 30.1736 54.4816 30.3728H54.6027V30.4939C54.6027 31.6423 54.9737 34.4431 58.1808 35.7634L58.2823 35.8024L58.2511 35.9118C58.2511 35.9118 58.2315 35.9899 58.2198 36.0329L58.1808 36.2048C58.1612 36.2946 58.1417 36.3767 58.1222 36.4665C58.1104 36.5368 58.0909 36.6149 58.0831 36.697L58.044 36.9157C58.0323 37.0056 58.0128 37.0876 58.005 37.1774C57.9933 37.279 57.9854 37.3688 57.9737 37.4665L57.9542 37.6852C57.9542 37.7751 57.9425 37.8649 57.9347 37.9665V38.2946V38.5446C57.9347 38.6227 57.9464 38.7048 57.9542 38.7946C57.9659 38.9235 57.9854 39.0563 58.0128 39.1852L58.0323 39.2946C58.0323 39.2946 58.044 39.3845 58.0518 39.4235C58.0518 39.5016 58.0714 39.572 58.0909 39.654C58.13 39.8024 58.1808 39.9548 58.2315 40.1227L58.2628 40.2009C58.2628 40.2009 58.294 40.2907 58.3018 40.3298C58.3214 40.3884 58.3409 40.4587 58.3604 40.5212C58.4386 40.7321 58.5597 40.9313 58.669 41.1423C58.6886 41.1813 58.7081 41.2126 58.7198 41.2517C58.7393 41.2907 58.7589 41.3298 58.7784 41.3727C58.9581 41.6618 59.169 41.9313 59.3995 42.1735L59.5479 42.3337L59.3487 42.4821L59.2706 42.5017C59.0714 42.5524 58.8604 42.6032 58.63 42.6501L58.4893 42.6813C58.2393 42.7321 57.9581 42.7829 57.6612 42.8298L57.4503 42.8689C57.1495 42.9196 56.8409 42.9587 56.5206 43.0095H56.462C56.1222 43.0602 55.7628 43.111 55.3839 43.1501L55.0831 43.1813V43.0329C55.1027 42.8141 55.1144 42.5915 55.1144 42.3845C55.1144 41.7946 55.0636 41.1462 54.9738 40.4626C54.673 38.5212 53.9152 36.6618 52.7824 35.0915C52.5324 34.7516 52.2628 34.4118 51.9738 34.0798C51.8136 33.9001 51.6027 33.7985 51.3722 33.7907C51.1417 33.779 50.9113 33.8493 50.7433 34.0094C50.5636 34.1696 50.462 34.3805 50.4542 34.611C50.4425 34.8415 50.5128 35.0719 50.673 35.2399C50.9113 35.5094 51.1417 35.7985 51.3722 36.111C52.341 37.4704 52.9933 39.0602 53.2511 40.7204C53.3292 41.3102 53.3722 41.8688 53.3722 42.3806C53.3722 42.6423 53.3605 42.9314 53.3331 43.24V43.3494H53.2238C50.1457 43.6111 46.3722 43.74 42.6028 43.74L42.649 43.7947ZM32.149 43.1736C38.2584 43.6736 47.04 43.6736 53.137 43.1736C53.1566 42.904 53.1683 42.654 53.1683 42.4353C53.1683 41.9353 53.1292 41.3845 53.0472 40.8064C52.7972 39.1853 52.1566 37.6345 51.2074 36.3064C50.9887 36.0056 50.7582 35.7283 50.5277 35.4548C50.3285 35.2244 50.2269 34.9431 50.2465 34.6462C50.266 34.3455 50.3949 34.0681 50.6254 33.8767C50.8441 33.6775 51.1371 33.5759 51.434 33.5955C51.7347 33.615 52.0121 33.7439 52.2152 33.9744C52.5043 34.3025 52.7855 34.6541 53.0355 35.0056C54.1839 36.615 54.9652 38.5056 55.2738 40.4861C55.3754 41.1775 55.4144 41.8377 55.4144 42.447C55.4144 42.6189 55.4144 42.7868 55.4027 42.9665C55.7738 42.9274 56.141 42.8767 56.473 42.8376H56.5238C56.8519 42.7868 57.1644 42.736 57.4535 42.6892L57.6644 42.6579C57.9535 42.6071 58.223 42.5563 58.4847 42.5095L58.6254 42.4782C58.8363 42.4392 59.0238 42.3884 59.2035 42.3493C58.9847 42.111 58.7933 41.8493 58.6254 41.5798C58.5941 41.529 58.5746 41.4782 58.5472 41.4313C58.5355 41.4001 58.516 41.3727 58.4965 41.3415C58.3754 41.1306 58.2582 40.9196 58.1683 40.6931C58.1371 40.6227 58.1176 40.5524 58.098 40.4821C58.0863 40.443 58.0785 40.404 58.059 40.361L58.0277 40.2829C57.9769 40.1227 57.9183 39.9626 57.8793 39.7946C57.8597 39.7165 57.848 39.6227 57.8402 39.5446C57.8402 39.5056 57.8285 39.4665 57.8207 39.4157L57.8012 39.3063C57.7816 39.1657 57.7504 39.0251 57.7426 38.8962C57.7426 38.8063 57.7426 38.7165 57.7308 38.6344V38.3844C57.7191 38.2634 57.7113 38.1462 57.7191 38.0329C57.7191 37.9313 57.7308 37.8337 57.7387 37.7438L57.7582 37.5329C57.7582 37.4313 57.7699 37.322 57.7894 37.2243C57.8012 37.1227 57.8207 37.0446 57.8285 36.9548L57.8676 36.736C57.8793 36.6579 57.8988 36.5641 57.9066 36.4977C57.9262 36.3962 57.9457 36.3063 57.9652 36.2282L58.0043 36.0563V36.0251C54.8559 34.6853 54.4027 31.9353 54.3754 30.6853C51.5668 30.4353 49.8051 28.3962 48.977 27.115C45.8481 28.4431 43.5473 26.8767 42.6254 26.0369C41.6957 26.865 39.3949 28.4471 36.2738 27.115C35.4457 28.3845 33.6957 30.4353 30.8754 30.6853C30.8441 31.9353 30.3949 34.6853 27.2465 36.0251C27.2465 36.0446 27.2465 36.0641 27.2582 36.0837L27.2777 36.1618C27.309 36.2829 27.3285 36.3727 27.348 36.4821C27.3676 36.5915 27.3871 36.7204 27.4066 36.8415L27.4262 36.9626C27.4379 37.0407 27.4574 37.1345 27.4652 37.2126C27.4848 37.3415 27.4848 37.4743 27.4965 37.611V37.8024C27.516 37.8805 27.5277 37.9509 27.5277 38.0329V38.4313V38.6501C27.5277 38.7282 27.5277 38.822 27.5082 38.9001C27.4965 39.0407 27.4691 39.1813 27.4496 39.3298L27.4301 39.4313C27.4301 39.4313 27.4184 39.5212 27.4105 39.5602C27.3988 39.6384 27.391 39.7204 27.3715 39.7985C27.3402 39.947 27.2934 40.0993 27.2426 40.2477L27.2035 40.3571C27.2035 40.3571 27.1723 40.4353 27.1644 40.4782C27.1449 40.5563 27.1254 40.6267 27.0863 40.7087C27.016 40.8884 26.9144 41.0602 26.8246 41.2282L26.7855 41.3063C26.7855 41.3063 26.7465 41.3767 26.7348 41.4157C26.7035 41.4743 26.6762 41.5368 26.6332 41.5954C26.4613 41.8649 26.2621 42.1267 26.0551 42.3649C26.2348 42.4157 26.4262 42.4548 26.6332 42.5056L26.7738 42.5368C27.0238 42.5876 27.3051 42.6384 27.5941 42.6853L27.8051 42.7165C28.1058 42.7673 28.4144 42.8181 28.7465 42.8571L28.7777 42.986L28.7973 42.8649C29.1371 42.9157 29.5082 42.9548 29.8754 42.9939C29.8754 42.8142 29.8636 42.6423 29.8636 42.4743C29.8636 41.865 29.9144 41.2126 30.0043 40.5446C30.3129 38.5563 31.0941 36.654 32.2426 35.0446C34.641 31.7048 38.5317 29.7048 42.6336 29.7048C44.0125 29.7048 45.3836 29.9236 46.6727 30.3533C47.2625 30.5525 47.5828 31.1814 47.3836 31.7752C47.1922 32.365 46.5555 32.6853 45.9617 32.4861C44.8914 32.1267 43.7703 31.947 42.6336 31.947C39.2547 31.947 36.0438 33.5954 34.0633 36.3454C33.1141 37.6657 32.4852 39.236 32.2235 40.8649C32.1454 41.4235 32.1024 41.9665 32.1024 42.4743C32.1024 42.7048 32.1024 42.9431 32.1337 43.2126L32.149 43.1736Z" fill="white"/>
<path d="M69.399 49.1073C69.4186 48.9276 69.4576 48.8183 69.5006 48.7558C85.1486 46.5449 85.1726 43.455 85.1726 42.4355C85.1726 41.416 85.1609 38.4238 70.2746 36.2363C69.6535 35.6152 69.5558 34.6269 69.5363 34.3144C70.2082 31.9863 75.3761 25.9863 78.7472 22.4624C79.0675 22.1225 79.1183 21.603 78.8566 21.2124C78.5949 20.8217 78.0949 20.6616 77.6652 20.8334C69.8371 23.8646 64.3642 24.2045 61.8562 21.8022C58.6453 18.7319 60.8562 11.9741 60.8757 11.9116C61.0242 11.4624 60.8367 10.9702 60.4265 10.7319C60.0163 10.4936 59.4968 10.5717 59.1765 10.9311C55.6765 14.8295 52.696 16.4311 50.3249 15.6616C45.946 14.2397 44.0163 4.89162 43.6335 1.41162C43.5827 0.899896 43.153 0.520996 42.6452 0.520996C42.1335 0.520996 41.7038 0.911616 41.6569 1.41162C41.6452 1.51318 40.5358 11.5596 36.4069 14.8726C35.446 15.6421 34.4264 15.9507 33.2858 15.8218C32.7351 15.7515 32.2467 16.15 32.1764 16.7007C32.1178 17.2515 32.5046 17.7398 33.0554 17.8101C34.7273 18.0016 36.2742 17.5406 37.657 16.4312C40.2586 14.3414 41.7976 10.2593 42.657 6.90005C43.7273 11.0406 45.8289 16.2984 49.7156 17.56C52.2664 18.3804 55.114 17.4116 58.2351 14.6811C57.9069 17.3295 58.0436 20.9311 60.4538 23.2397C63.1335 25.7983 67.8758 26.06 74.5829 24.0093C71.872 27.0484 68.1024 31.6109 67.5517 33.9507C67.5321 34.021 67.5321 34.0913 67.5204 34.1616C67.5204 34.2202 67.5204 35.0327 67.829 35.9507C67.4306 36.0406 67.0985 36.3609 67.0477 36.7906C66.9774 37.3413 67.3681 37.8414 67.9071 37.9117C80.3481 39.5211 83.1451 41.7633 83.1451 42.4234C83.1451 43.0835 80.5553 45.2046 68.7351 46.8218H68.6843C65.9148 47.2007 63.0241 47.5014 60.0827 47.7124C57.5515 47.9233 54.8522 48.0835 52.0632 48.1928C46.032 48.4311 39.2112 48.4311 33.1842 48.1928C30.3951 48.0835 27.6959 47.9233 25.153 47.7124C24.5827 47.6733 24.0241 47.6225 23.4733 47.5835C22.9421 47.5249 22.4421 47.9428 22.3952 48.4936C22.3444 49.0444 22.7546 49.5248 23.3054 49.5717C23.6648 49.603 24.0359 49.6303 24.3952 49.6616C24.485 49.7202 24.5749 49.771 24.6764 49.8022C25.1647 49.9428 29.4459 51.3334 28.2975 55.2241C28.196 55.5522 28.2858 55.9155 28.5163 56.1733C28.7468 56.435 29.0944 56.5522 29.4382 56.4819C29.4577 56.4819 31.7468 56.0718 33.1999 57.1733C33.9186 57.7124 34.321 58.5444 34.4187 59.7045C34.4499 60.0326 34.6491 60.3334 34.9499 60.4936C35.2507 60.6537 35.5984 60.6537 35.8991 60.4936C35.9187 60.4819 38.278 59.2319 40.0788 59.8139C40.7976 60.0444 41.3288 60.5326 41.7194 61.3256C41.8913 61.6654 42.239 61.8842 42.6179 61.8842C42.9968 61.8842 43.3483 61.6654 43.5163 61.3256C43.8952 60.5365 44.4382 60.0444 45.1452 59.8139C46.9538 59.2358 49.3171 60.4858 49.3366 60.4936C49.6374 60.6537 49.9851 60.6537 50.2858 60.4936C50.5866 60.3334 50.7858 60.0326 50.8171 59.7045C50.9265 58.5443 51.3288 57.7162 52.0359 57.1733C53.4851 56.0717 55.7664 56.4819 55.7859 56.4819C56.1257 56.5405 56.4773 56.4311 56.7156 56.1733C56.946 55.9116 57.0359 55.5522 56.9343 55.2241C55.7859 51.3335 60.0632 49.9546 60.5554 49.8022C60.657 49.771 60.7546 49.7241 60.8367 49.6538C63.0555 49.4819 65.2469 49.2553 67.3875 48.9819C67.2078 51.56 69.7273 55.6538 74.9383 61.2119C66.4266 59.4228 61.4893 59.3721 60.2663 61.0713C58.8444 63.0322 58.9382 67.9424 59.1257 70.8213C55.5866 68.5401 50.864 65.9619 49.1452 67.2002C48.9655 67.3291 45.1452 70.1494 42.6257 79.3482C40.1062 70.1373 36.2976 67.3282 36.114 67.2002C34.3952 65.9502 29.6648 68.5283 26.1257 70.8096C26.3171 67.9307 26.4069 63.0205 24.9851 61.0596C23.7663 59.3604 18.8445 59.4112 10.3251 61.2002C15.5946 55.6221 18.2353 51.5283 18.2157 49.0202C18.7157 49.0202 19.1454 48.6491 19.204 48.1413C19.2743 47.5905 18.8836 47.0905 18.3329 47.0319C17.8133 46.9733 17.3134 46.903 16.8134 46.8326C16.7352 46.8209 16.6532 46.8131 16.5751 46.8014H16.5243C4.6963 45.1803 2.1023 43.0709 2.1023 42.403C2.1023 42.3835 2.25074 40.0046 15.5823 38.1335C15.6136 38.1335 15.6331 38.114 15.6604 38.1022C15.7307 38.0827 15.801 38.0632 15.8714 38.0319C15.9221 38.0124 15.9729 37.9812 16.012 37.9538C16.0432 37.9343 16.0628 37.9226 16.0901 37.903C18.0315 36.2428 17.7307 34.1022 17.7112 33.9342C17.1604 31.5944 13.3831 27.0358 10.68 23.9928C17.3792 26.0319 22.129 25.7819 24.809 23.2233C27.2387 20.903 27.3598 17.2741 27.0278 14.6217C27.4184 14.8209 27.9184 14.7506 28.2387 14.403C28.6098 13.9928 28.5785 13.3639 28.1684 12.9928C27.4965 12.3912 26.809 11.692 26.0981 10.903C25.7778 10.5514 25.2583 10.4615 24.8481 10.7037C24.4379 10.942 24.2465 11.4342 24.3989 11.8834C24.4184 11.9537 26.6372 18.7115 23.4184 21.774C20.9067 24.1724 15.4379 23.8326 7.60941 20.8053C7.168 20.6334 6.67972 20.7936 6.41801 21.1842C6.1563 21.5748 6.20707 22.0944 6.52739 22.4342C9.94929 26.0123 15.2383 32.153 15.7462 34.3052C15.7462 34.3443 15.8477 35.3247 14.9767 36.2154C1.65666 38.1138 0.0976562 40.6646 0.0976562 42.4146C0.0976562 43.4458 0.0976562 46.5748 16.1677 48.7935C16.3161 49.3521 16.3981 52.3638 6.63646 62.1455C6.39818 62.3252 6.24584 62.6142 6.24584 62.9346C6.24584 63.4853 6.69506 63.9346 7.24584 63.9346C7.35522 63.9346 7.46459 63.9033 7.57396 63.8642C17.4529 61.5439 22.746 61.5244 23.344 62.2431C24.4651 63.7939 24.3049 69.4736 23.9338 72.6921C23.8947 73.0828 24.0744 73.4617 24.4143 73.6609C24.7541 73.8601 25.176 73.8523 25.4924 73.6296C29.633 70.7898 34.0627 68.5398 34.9221 68.8288C34.9611 68.8601 39.4416 72.278 41.6213 84.0478C41.7111 84.5166 42.1213 84.8681 42.6017 84.8681C43.0822 84.8681 43.5002 84.5283 43.5822 84.0478C45.7541 72.2778 50.2424 68.8568 50.2306 68.8568C51.1408 68.5678 55.5704 70.7865 59.7111 73.638C60.0314 73.8568 60.4611 73.8763 60.7892 73.6693C61.129 73.4701 61.3087 73.0912 61.2697 72.7005C60.8986 69.4896 60.7306 63.8099 61.8595 62.2515C62.4611 61.5211 67.7501 61.5523 77.6295 63.8804L77.7194 63.9H77.7897C77.8483 63.9117 77.9108 63.9312 77.9694 63.9312C78.0084 63.9312 78.0475 63.9117 78.0983 63.9H78.1373C78.6061 63.8218 78.9772 63.4312 78.9772 62.9312C78.9772 62.6109 78.8287 62.3218 78.5983 62.1422C69.9381 53.4625 69.2585 50.1222 69.3678 49.0832L69.399 49.1073ZM39.348 50.3768C40.4378 50.3885 41.5394 50.3963 42.6488 50.3963C43.7582 50.3963 44.8597 50.3963 45.9496 50.3768H46.6098C47.6996 50.3573 48.7817 50.3378 49.8403 50.3065C47.8911 52.0877 45.3286 53.0956 42.6489 53.0956C39.9692 53.0956 37.4106 52.0761 35.4575 50.3065C36.5161 50.3378 37.5981 50.3573 38.688 50.3768H39.348ZM55.418 51.3846C54.9063 52.326 54.6876 53.3455 54.7774 54.4354C53.6758 54.4354 52.1172 54.6464 50.8672 55.5956C50.0078 56.2441 49.4063 57.1268 49.086 58.2245C47.9454 57.8144 46.1876 57.4042 44.5665 57.9237C43.8165 58.162 43.1681 58.5722 42.6368 59.1346C42.1056 58.5643 41.4571 58.1659 40.7071 57.9237C39.086 57.4042 37.3282 57.8144 36.1876 58.2245C35.8673 57.1229 35.2657 56.244 34.4064 55.5956C33.1447 54.6464 31.5978 54.4354 30.4962 54.4354C30.5861 53.3456 30.3751 52.326 29.8556 51.3846C29.5665 50.8534 29.1837 50.3963 28.7853 49.994C30.047 50.0721 31.3439 50.1346 32.6564 50.1932C35.0548 53.2518 38.7345 55.0838 42.6252 55.0838C46.5158 55.0838 50.2033 53.2557 52.594 50.1932C53.9026 50.1425 55.2034 50.0721 56.4651 49.994C56.0667 50.3925 55.6956 50.8456 55.3948 51.3846H55.418Z" fill="white"/>
<path d="M42.6491 85.0132C42.11 85.0132 41.6373 84.6226 41.5396 84.0913C39.4381 72.7713 35.1999 69.2003 34.8991 68.9623C34.86 68.9623 34.8209 68.9506 34.7701 68.9506C33.731 68.9506 29.7193 70.9311 25.5982 73.7592C25.2389 74.0092 24.7584 74.0209 24.3794 73.7983C24.0005 73.5678 23.7896 73.1498 23.8404 72.7085C24.2115 69.5093 24.3794 63.8687 23.2701 62.3495C22.7115 61.6776 17.3482 61.7284 7.62907 64.0292L7.51969 64.0604C7.44157 64.08 7.35953 64.0917 7.26969 64.0917C6.6486 64.0917 6.14859 63.5917 6.14859 62.9706C6.14859 62.619 6.30875 62.2909 6.59 62.08C15.9298 52.7206 16.1994 49.619 16.09 48.939C0 46.7085 0 43.5093 0 42.4507C0 40.6616 1.5508 38.0523 14.941 36.1304C15.7496 35.2788 15.6519 34.3687 15.6519 34.3609C15.1402 32.232 9.75354 25.9898 6.46054 22.5599C6.10116 22.181 6.05038 21.5911 6.33945 21.1615C6.62851 20.7201 7.17929 20.5404 7.67925 20.7396C15.4605 23.7513 20.8782 24.099 23.3592 21.7396C26.4998 18.7513 24.328 12.0404 24.3007 11.9779C24.1288 11.4779 24.3397 10.9193 24.8007 10.6498C25.2616 10.3803 25.8515 10.4779 26.1991 10.8686C26.8983 11.6498 27.5897 12.3491 28.2577 12.9467C28.7186 13.3568 28.7577 14.0756 28.3358 14.5365C28.0467 14.8646 27.5975 14.9857 27.1874 14.8646C27.4882 17.513 27.3085 21.0638 24.9062 23.3646C22.2578 25.8958 17.6054 26.2162 11.0782 24.2943C13.9376 27.5326 17.3165 31.724 17.8477 33.9662C17.8672 34.0677 18.2188 36.3256 16.1875 38.0678C16.168 38.0873 16.1367 38.099 16.1172 38.1068C16.0469 38.1459 15.9961 38.1771 15.9453 38.2084C15.8672 38.2475 15.7851 38.2787 15.707 38.2865C15.6758 38.2982 15.6484 38.3178 15.6172 38.3178C2.63717 40.1381 2.23817 42.4467 2.23817 42.4662C2.23817 43.056 4.86707 45.1381 16.5472 46.7357L16.5784 46.8646L16.5979 46.7435L16.887 46.7826C17.3753 46.8411 17.8558 46.9115 18.3675 46.974C18.9886 47.0521 19.4183 47.6146 19.348 48.224C19.2894 48.7435 18.8675 49.1537 18.348 49.2044C18.2894 51.7044 15.7191 55.6927 10.6996 61.0634C19.141 59.3251 23.8476 59.3134 25.0976 61.0517C26.5078 63.0009 26.4492 67.7822 26.2773 70.6298C29.8867 68.3212 34.457 65.8993 36.1992 67.1493C36.3593 67.2587 40.0976 70.0087 42.6406 78.9383C45.1718 70.0164 48.9297 67.2583 49.0898 67.1493C50.8086 65.8993 55.3906 68.3212 59 70.6298C58.8203 67.7782 58.7695 62.9892 60.1797 61.0517C61.4102 59.3408 66.2578 59.3408 74.5897 61.0634C69.6483 55.7431 67.1913 51.7548 67.2694 49.1844C65.0897 49.454 62.9413 49.6727 60.8983 49.8251C60.7967 49.8954 60.7069 49.9461 60.6092 49.9735C60.3709 50.0438 58.199 50.7235 57.2889 52.3837C56.828 53.2118 56.7577 54.1728 57.0702 55.2353C57.1796 55.6064 57.0897 56.0165 56.8202 56.3056C56.5585 56.5947 56.16 56.7275 55.7811 56.6572C55.7615 56.6572 53.5311 56.2587 52.1327 57.329C51.4413 57.8486 51.0624 58.6493 50.953 59.7704C50.9139 60.1493 50.6913 60.4814 50.3631 60.6611C50.035 60.8407 49.6327 60.8407 49.2928 60.6611C49.2733 60.6493 46.9647 59.4228 45.203 59.9892C44.5233 60.2079 44.0116 60.6806 43.6444 61.4384C43.453 61.8173 43.0663 62.0673 42.6327 62.0673C42.203 62.0673 41.8124 61.8173 41.621 61.4384C41.2499 60.6767 40.7421 60.2079 40.0624 59.9892C38.3124 59.4306 36.0038 60.6493 35.9843 60.6611C35.6445 60.8407 35.2461 60.8525 34.914 60.6611C34.5742 60.4814 34.3554 60.1493 34.3242 59.7704C34.2226 58.6493 33.8359 57.8485 33.1445 57.329C31.7461 56.2704 29.5039 56.6572 29.4843 56.6572C29.0937 56.7275 28.703 56.5986 28.4452 56.3056C28.1835 56.0165 28.0858 55.6064 28.1952 55.2353C28.6639 53.6572 28.2733 52.3134 27.035 51.2548C26.0662 50.415 24.8866 50.0439 24.6561 49.9736C24.5545 49.9423 24.4647 49.9033 24.367 49.833H24.1952C23.8944 49.7939 23.6053 49.7744 23.3045 49.7548C23.0037 49.7236 22.7342 49.583 22.5428 49.3564C22.3514 49.1259 22.2537 48.8369 22.2811 48.5361C22.3123 48.2353 22.453 47.958 22.6912 47.7666C22.9217 47.5752 23.2108 47.4853 23.4998 47.5166C24.0506 47.5556 24.6092 47.6064 25.1795 47.6455C27.7186 47.8564 30.4178 48.0166 33.199 48.1259C39.199 48.3564 46.078 48.3564 52.07 48.1259C54.8591 48.0166 57.5505 47.8564 60.0817 47.6455C63.0231 47.4267 65.9098 47.1259 68.6715 46.7548H68.7301C80.4021 45.1532 83.0311 43.0751 83.0311 42.4736C83.0311 41.9619 80.4608 39.7236 67.9021 38.0947C67.281 38.0166 66.8513 37.4463 66.9334 36.833C66.9842 36.4112 67.2849 36.0635 67.6834 35.9229C67.3943 35.001 67.4021 34.2237 67.4021 34.212C67.4021 34.1339 67.4138 34.0518 67.4334 33.9815C67.9646 31.7432 71.3436 27.5518 74.2029 24.3096C67.6717 26.2315 63.0229 25.919 60.3749 23.3799C58.0038 21.1182 57.7968 17.6494 58.0741 15.0283C55.0155 17.6299 52.1835 18.54 49.6757 17.7197C45.8749 16.4892 43.7655 11.5478 42.6445 7.43072C41.7929 10.5596 40.2734 14.5205 37.7226 16.5596C36.3124 17.6885 34.7421 18.1612 33.0312 17.958C32.7304 17.9268 32.4609 17.7783 32.2812 17.5361C32.0898 17.3057 32.0117 17.0049 32.0429 16.708C32.0742 16.4072 32.2226 16.1377 32.4648 15.9463C32.7031 15.7549 32.996 15.6768 33.2929 15.7158C34.4023 15.8447 35.3827 15.5361 36.3241 14.794C40.4139 11.5128 41.5233 1.52396 41.535 1.42296C41.5936 0.852645 42.0741 0.411255 42.6561 0.411255C43.2342 0.411255 43.7147 0.840945 43.7772 1.42296C44.1483 4.88386 46.0584 14.173 50.3788 15.564C52.6874 16.314 55.6288 14.7358 59.0976 10.8648C59.4492 10.4663 60.039 10.3765 60.496 10.646C60.9569 10.9155 61.1679 11.4741 60.996 11.9741C60.9765 12.0444 58.8046 18.7436 61.9452 21.7358C64.4257 24.0952 69.8436 23.7553 77.6252 20.7358C78.1252 20.5444 78.676 20.7163 78.965 21.1577C79.2541 21.5991 79.2033 22.1772 78.8439 22.5561C75.5236 26.0249 70.3556 32.0053 69.672 34.3371C69.6837 34.5754 69.7736 35.5285 70.3439 36.1262C85.3049 38.3254 85.3049 41.3176 85.3049 42.4465C85.3049 43.4856 85.3049 46.6457 69.5939 48.8762C69.5744 48.927 69.5431 49.0168 69.5353 49.1262C69.4259 50.1457 70.1134 53.4465 78.7345 62.0872C78.9962 62.2981 79.1564 62.6184 79.1564 62.9661C79.1564 63.5052 78.7579 63.9661 78.215 64.0559H78.1759H78.1368C78.0782 64.0754 77.9572 64.0676 77.8868 64.0559C77.8673 64.0559 77.8478 64.0559 77.8361 64.0442H77.7579C77.7579 64.0442 77.7462 64.0442 77.7072 64.0325H77.6681C67.9376 61.7317 62.5781 61.6731 62.0201 62.3528C60.9185 63.8723 61.0904 69.513 61.4615 72.7118C61.5123 73.1532 61.3013 73.5828 60.9224 73.8016C60.5435 74.032 60.0709 74.0125 59.7036 73.7625C55.5434 70.9031 51.602 68.9813 50.5044 68.9813C50.4459 68.9813 50.3951 68.9813 50.356 68.993C49.8443 69.4149 45.7974 73.0946 43.7662 84.095C43.6646 84.6263 43.2076 85.0169 42.6568 85.0169L42.6491 85.0132ZM34.7896 68.7042C34.8678 68.7042 34.9381 68.7042 35.0006 68.7355L35.0397 68.755C35.0397 68.755 39.5983 72.2433 41.7897 84.056C41.8678 84.4662 42.2311 84.7669 42.649 84.7669C43.0709 84.7669 43.4303 84.4662 43.5084 84.0482C45.4772 73.3762 49.36 69.5172 50.11 68.8572L50.071 68.8064L50.2428 68.7478C51.3014 68.4197 56.0514 70.947 59.8209 73.5369C60.1022 73.7283 60.4694 73.7479 60.7702 73.5682C61.0592 73.3885 61.2311 73.0565 61.192 72.7166C60.8209 69.4861 60.6608 63.7674 61.8014 62.1776C62.5319 61.2987 68.3522 61.5565 77.6994 63.7557C77.6994 63.7557 77.7111 63.7557 77.7502 63.7674H77.7893H77.8596C77.8908 63.7674 77.9103 63.7792 77.9377 63.787C77.9768 63.7987 77.9963 63.8065 78.0588 63.787C78.0783 63.787 78.0978 63.7752 78.1291 63.7674H78.1603C78.5822 63.6893 78.8908 63.3377 78.8908 62.9159C78.8908 62.6463 78.7697 62.3963 78.551 62.2245C69.8401 53.494 69.1604 50.1035 69.2698 49.0525C69.2893 48.8923 69.3284 48.7517 69.3909 48.654L69.4221 48.6032H69.4807C85.0397 46.3923 85.0397 43.3923 85.0397 42.404C85.0397 41.4157 85.0397 38.4938 70.2507 36.3259H70.2116L70.1804 36.2869C69.5202 35.6267 69.4187 34.5877 69.3991 34.2869V34.2673V34.2478C70.071 31.8962 75.2897 25.8376 78.6374 22.3498C78.9187 22.0608 78.9578 21.5998 78.7273 21.26C78.4968 20.9202 78.0671 20.7795 77.6882 20.9319C69.8093 23.9827 64.2972 24.3108 61.7472 21.8733C58.4972 18.7717 60.716 11.9241 60.7355 11.8533C60.8644 11.4627 60.7042 11.0252 60.3449 10.8142C59.9855 10.6033 59.5363 10.6736 59.2551 10.9861C55.716 14.9275 52.6965 16.5369 50.2746 15.7556C45.8254 14.3142 43.8762 4.90359 43.5051 1.40359C43.4543 0.954368 43.0832 0.622338 42.634 0.622338C42.1848 0.622338 41.8137 0.962178 41.7629 1.40359C41.7512 1.50515 40.634 11.6026 36.4621 14.9426C35.4738 15.7316 34.4309 16.052 33.2512 15.9231C33.0324 15.8918 32.7902 15.9621 32.6106 16.1027C32.4309 16.2512 32.3098 16.4543 32.2824 16.6926C32.2512 16.9231 32.3215 17.1535 32.4621 17.3332C32.6106 17.5129 32.8137 17.634 33.0402 17.6535C34.6691 17.8449 36.1886 17.384 37.5402 16.3019C40.1691 14.1925 41.6886 9.99333 42.5011 6.84103L42.6222 6.37228L42.7433 6.84103C43.8136 10.9816 45.8917 16.1691 49.7238 17.411C52.2121 18.2196 55.0441 17.2509 58.1222 14.5594L58.3722 14.3407L58.3332 14.661C58.0128 17.2626 58.1339 20.8407 60.5246 23.1219C63.1652 25.6414 67.8762 25.8914 74.5246 23.8602L74.9464 23.7313L74.6574 24.0594C72.2785 26.7313 68.216 31.5711 67.6574 33.95C67.6457 34.0086 67.6378 34.0711 67.6378 34.1297C67.6378 34.1297 67.6378 34.95 67.9464 35.8797L67.9855 36.0086L67.8449 36.0398C67.4855 36.118 67.2042 36.4109 67.1652 36.7703C67.1066 37.2508 67.4464 37.6922 67.9152 37.7508C80.5172 39.3797 83.2672 41.6492 83.2672 42.3797C83.2672 43.2586 80.2281 45.3289 68.7472 46.9109H68.6964C65.9347 47.2898 63.0362 47.5906 60.0948 47.8093C57.5636 48.0203 54.8643 48.1804 52.0753 48.2898C46.0753 48.5202 39.1843 48.5202 33.1843 48.2898C30.4031 48.1804 27.696 48.0203 25.1531 47.8093C24.5828 47.7702 24.0242 47.7195 23.4734 47.6804C23.2546 47.6609 23.0242 47.7312 22.8445 47.8796C22.6648 48.0281 22.5437 48.2507 22.5242 48.4812C22.5046 48.7116 22.575 48.9421 22.7234 49.1218C22.8718 49.3015 23.0828 49.4109 23.3132 49.4304C23.6023 49.4616 23.9031 49.4812 24.1921 49.5007L24.4304 49.5202L24.4617 49.5398C24.5515 49.5984 24.6336 49.6413 24.7117 49.6609C24.95 49.7312 26.1726 50.1218 27.1805 50.989C28.4813 52.1101 28.8993 53.5671 28.4188 55.2273C28.3289 55.5163 28.3992 55.8288 28.6102 56.0554C28.8094 56.2858 29.1219 56.3757 29.4188 56.3366C29.4383 56.3366 31.7704 55.9147 33.2704 57.0476C34.0204 57.6179 34.4306 58.4695 34.5399 59.6687C34.5711 59.9577 34.7391 60.2194 35.0008 60.3601C35.2625 60.5007 35.5711 60.5007 35.8289 60.3601C35.8485 60.3484 38.2586 59.071 40.1101 59.6687C40.8601 59.9069 41.4187 60.4187 41.821 61.2468C41.9695 61.5475 42.282 61.735 42.6101 61.735C42.9382 61.735 43.2507 61.5436 43.3992 61.2468C43.7976 60.4265 44.3601 59.9187 45.1101 59.6687C46.989 59.0593 49.3718 60.3484 49.3992 60.3601C49.6609 60.5007 49.9695 60.5085 50.2273 60.3601C50.489 60.2195 50.657 59.9616 50.6882 59.6687C50.7976 58.4773 51.2195 57.6179 51.9577 57.0476C53.4382 55.9265 55.7858 56.3288 55.8093 56.3366C56.1101 56.3952 56.4187 56.2858 56.6179 56.0671C56.8171 55.8483 56.8992 55.528 56.8093 55.239C56.4812 54.1179 56.5593 53.0984 57.0476 52.1999C57.989 50.4811 60.0984 49.7897 60.5085 49.6608C60.5866 49.6412 60.657 49.6022 60.7468 49.5319L60.778 49.5123H60.8171C62.9069 49.3405 65.1062 49.1217 67.3562 48.8405L67.5046 48.8209V48.9694C67.3132 51.5085 69.8444 55.5905 75.0046 61.1104L75.2742 61.3994L74.8836 61.3213C66.4227 59.5401 61.5246 59.4697 60.3446 61.1299C58.9462 63.0713 59.0438 68.0205 59.2235 70.8018L59.243 71.0518L59.032 70.9229C53.9734 67.6534 50.4734 66.3721 49.1922 67.3018C49.0321 67.4111 45.2313 70.212 42.7234 79.3918L42.6024 79.8332L42.4813 79.3918C39.9618 70.2004 36.1805 67.4228 36.0204 67.3138C34.7313 66.3841 31.2313 67.6653 26.1688 70.9349L25.9578 71.0638L25.9774 70.8138C26.1688 68.0326 26.2664 63.095 24.868 61.1419C23.6883 59.4935 18.7977 59.5638 10.329 61.3333L9.93832 61.4114L10.2079 61.1224C15.4384 55.5716 18.0868 51.5013 18.0595 49.0324V48.9035H18.1805C18.6298 48.9035 19.0009 48.5753 19.0516 48.1339C19.1102 47.6535 18.7704 47.212 18.2899 47.1535C17.7704 47.0949 17.2704 47.0245 16.7704 46.9542L16.4814 46.9152C4.99335 45.3371 1.95035 43.2668 1.95035 42.384C1.95035 42.2824 2.09879 39.8723 15.5404 37.9934C15.5716 37.9817 15.5911 37.9738 15.6107 37.9621C15.6693 37.9504 15.7318 37.9231 15.8021 37.8918C15.8411 37.8723 15.8802 37.8527 15.9232 37.8215C15.9427 37.8098 15.9622 37.802 15.9739 37.7902C17.9153 36.1418 17.5833 34.009 17.5637 33.9191C17.0052 31.548 12.9348 26.7082 10.5637 24.0402L10.2747 23.7121L10.6966 23.841C17.3568 25.8722 22.0676 25.6222 24.6966 23.1028C27.095 20.8137 27.2083 17.2122 26.8763 14.6028L26.845 14.3645L27.056 14.4738C27.4075 14.6653 27.845 14.5832 28.1068 14.2824C28.4271 13.9231 28.3958 13.3723 28.0364 13.0441C27.3646 12.4426 26.6653 11.7355 25.9583 10.9425C25.6771 10.6339 25.2279 10.5636 24.8685 10.7707C24.5092 10.9816 24.349 11.4113 24.4779 11.8019C24.4975 11.8722 26.7162 18.7238 23.4662 21.8219C20.9154 24.2516 15.4076 23.9313 7.52523 20.8805C7.14632 20.732 6.70492 20.8805 6.48613 21.2086C6.25566 21.5484 6.30644 22.0094 6.58769 22.2984C10.0174 25.8882 15.3182 32.0172 15.8377 34.2284C15.8377 34.2479 15.9666 35.2987 15.0369 36.2479L15.0057 36.2791H14.9666C1.72859 38.1775 0.196592 40.658 0.196592 42.3572C0.196592 43.3572 0.19659 46.408 16.1576 48.6072H16.2357L16.2552 48.6971C16.4467 49.4158 16.3256 52.5174 6.69665 62.1661C6.46618 62.3458 6.33727 62.5958 6.33727 62.877C6.33727 63.3575 6.72789 63.7559 7.21618 63.7559C7.31774 63.7559 7.42712 63.7247 7.50524 63.6973L7.62633 63.6583V63.6778C16.9271 61.4981 22.7043 61.2481 23.4273 62.1192C24.5757 63.709 24.4156 69.4278 24.0484 72.6582C24.0094 72.998 24.1695 73.3301 24.4703 73.5098C24.7593 73.6894 25.1304 73.6816 25.4195 73.4785C28.9078 71.0801 33.4 68.6269 34.7398 68.6269L34.7896 68.7042ZM42.6491 59.3253L42.5592 59.2238C42.0475 58.673 41.4108 58.2746 40.6803 58.0441C39.1022 57.5324 37.3991 57.923 36.2389 58.3449L36.1178 58.3839L36.0788 58.255C35.7702 57.1847 35.1803 56.3136 34.3483 55.6847C33.11 54.755 31.5788 54.5558 30.5085 54.5441H30.3678V54.4035C30.4694 53.3449 30.2585 52.3449 29.7585 51.423C29.4967 50.9542 29.1569 50.5011 28.7194 50.0636L28.4811 49.8331L28.8092 49.8526C30.0084 49.923 31.3092 49.9933 32.6803 50.0519H32.7389L32.778 50.1026C35.1491 53.1338 38.8366 54.9424 42.6491 54.9424C46.4577 54.9424 50.1491 53.1338 52.5202 50.1026L52.5592 50.0636H52.6178C53.9889 50.005 55.2897 49.9347 56.4889 49.8644L56.817 49.8448L56.5787 50.0753C56.1373 50.5167 55.7897 50.9542 55.5279 51.4347C55.0279 52.3449 54.817 53.3566 54.9069 54.4152V54.5558H54.7858C53.7155 54.5558 52.1842 54.755 50.946 55.6964C50.1061 56.3253 49.5241 57.1847 49.2155 58.2667L49.1764 58.3956L49.0553 58.3566C47.8951 57.9347 46.1842 57.5558 44.6139 58.0558C43.8834 58.2863 43.2545 58.6847 42.735 59.2355L42.6452 59.337L42.6491 59.3253ZM39.0592 57.5558C39.6178 57.5558 40.1999 57.6261 40.7585 57.8058C41.4889 58.0363 42.1179 58.4269 42.6491 58.9542C43.1803 58.423 43.8092 58.0323 44.5396 57.8058C46.1177 57.2941 47.8288 57.6574 49.0202 58.0675C49.36 56.9972 49.9616 56.1378 50.8014 55.4972C52.0397 54.5558 53.5631 54.3254 54.653 54.3176C54.5944 53.259 54.8131 52.2473 55.3131 51.3293C55.5436 50.9191 55.8248 50.5285 56.1725 50.1496C55.0827 50.2081 53.903 50.2706 52.6842 50.3214C50.2623 53.3917 46.5123 55.212 42.6532 55.212C38.7941 55.212 35.0438 53.3839 32.6222 50.3214C31.3917 50.2706 30.2238 50.2121 29.1339 50.1496C29.4855 50.5285 29.7745 50.9191 29.9933 51.3293C30.4933 52.2511 30.712 53.2512 30.6534 54.3176C31.755 54.3371 33.2628 54.5675 34.505 55.4972C35.3566 56.1379 35.9542 56.9972 36.2862 58.0675C37.0558 57.798 38.0362 57.5558 39.0674 57.5558H39.0592ZM42.6491 53.216C39.9577 53.216 37.3796 52.216 35.3796 50.3957L35.1296 50.1653H35.4694C36.3991 50.2043 37.3913 50.2239 38.6999 50.2434H39.3601C41.5398 50.2824 43.782 50.2824 45.9499 50.2434H46.61C47.9108 50.2121 48.9108 50.1926 49.8405 50.1653H50.1804L49.9304 50.384C47.9304 52.2043 45.3523 53.2043 42.6609 53.2043L42.6491 53.216ZM35.7975 50.423C37.7194 52.0636 40.1256 52.9542 42.6491 52.9542C45.1686 52.9542 47.5788 52.0558 49.5007 50.423C48.6725 50.4426 47.7623 50.4621 46.6217 50.4816H45.9616C43.7819 50.5207 41.5397 50.5207 39.36 50.4816H38.6998C37.5514 50.4504 36.649 50.4308 35.8209 50.4113L35.7975 50.423Z" fill="white"/>
<path d="M83.86 48.4473L77.0084 50.6973C76.6998 50.7989 76.4577 51.0372 76.3678 51.3458C76.2663 51.6543 76.3288 51.9864 76.528 52.2442L81.6178 58.9551C81.8092 59.2051 82.1061 59.3535 82.4186 59.3535C82.4967 59.3535 82.567 59.3535 82.649 59.3223C83.0279 59.2324 83.3287 58.9238 83.4108 58.541L85.1724 49.5801C85.2428 49.2286 85.1217 48.8692 84.8521 48.6387C84.5826 48.4083 84.2115 48.3301 83.8834 48.4395L83.86 48.4473ZM81.86 55.9746L78.9694 52.166L82.86 50.8848L81.86 55.9864V55.9746Z" fill="white"/>
<path d="M82.4112 59.4863C82.0596 59.4863 81.7315 59.3144 81.5127 59.0371L76.4229 52.3262C76.2042 52.0371 76.1339 51.6543 76.2432 51.3145C76.3526 50.9629 76.6221 50.6934 76.962 50.584L83.8136 48.334C84.1925 48.2129 84.6144 48.2949 84.9034 48.5645C85.2042 48.8262 85.3448 49.2363 85.2628 49.6231L83.5011 58.584C83.4112 59.0136 83.0792 59.3652 82.6495 59.4629C82.5597 59.4824 82.4776 59.4941 82.3995 59.4941L82.4112 59.4863ZM83.8995 48.5643L77.0479 50.8143C76.7783 50.9041 76.5674 51.1151 76.4893 51.3846C76.4112 51.6541 76.458 51.9432 76.6299 52.1736L81.7197 58.8845C81.9189 59.1541 82.2588 59.283 82.6181 59.2048C82.9463 59.1267 83.208 58.8533 83.2783 58.5252L85.04 49.5643C85.0986 49.2635 84.9892 48.9432 84.7587 48.744C84.5283 48.5447 84.2001 48.4744 83.9072 48.5721L83.8995 48.5643ZM81.9307 56.2752L78.7588 52.0955L78.9306 52.0369L83.0322 50.6853L81.9424 56.2634L81.9307 56.2752ZM79.169 52.2244L81.7901 55.6736L82.7002 51.0642L79.1807 52.2244H79.169Z" fill="white"/>
<path d="M52.84 74.2873C52.551 73.9982 52.1213 73.9162 51.7502 74.0685C51.3713 74.217 51.1292 74.5881 51.1292 74.9904V83.9006C51.1292 84.2287 51.2893 84.5412 51.5588 84.7209C51.7307 84.842 51.9299 84.9006 52.1292 84.9006C52.2502 84.9006 52.3674 84.8811 52.4885 84.8303L58.8987 82.3811C59.219 82.26 59.4495 81.9905 59.5198 81.6623C59.5901 81.3342 59.4886 80.9905 59.2503 80.7405L52.8401 74.2796L52.84 74.2873ZM53.1291 82.4475V77.4163L56.7502 81.0569L53.1291 82.4358V82.4475Z" fill="white"/>
<path d="M52.1291 85.0133C51.8987 85.0133 51.6799 84.943 51.4885 84.8141C51.1877 84.6031 51.0002 84.2555 51.0002 83.8844V74.9742C51.0002 74.5132 51.2698 74.1031 51.6995 73.9351C52.1213 73.7632 52.5979 73.857 52.93 74.1851L59.3402 80.646C59.6097 80.9155 59.7191 81.3062 59.6409 81.6772C59.5628 82.0483 59.3011 82.3569 58.9417 82.4975L52.5315 84.9467C52.4026 84.9975 52.2698 85.017 52.1331 85.017L52.1291 85.0133ZM52.1291 74.1153C52.0198 74.1153 51.8987 74.1348 51.801 74.1856C51.4729 74.3262 51.262 74.6348 51.262 74.9942V83.9044C51.262 84.1935 51.4026 84.463 51.6409 84.6232C51.8792 84.7833 52.1799 84.8224 52.4495 84.7247L58.8597 82.2755C59.1409 82.1661 59.3401 81.9357 59.3987 81.6466C59.4573 81.3575 59.3675 81.0568 59.1683 80.8458L52.7581 74.3849C52.5862 74.213 52.3674 74.1232 52.137 74.1232L52.1291 74.1153ZM53.0081 82.627V77.1153L56.9769 81.1153L56.7972 81.1856L53.0081 82.6348L53.0081 82.627ZM53.2581 77.7168V82.2559L56.5276 81.0059L53.2581 77.7168Z" fill="white"/>
<path d="M18.239 67.2363H10.8992C10.5203 67.2363 10.1688 67.4551 10.0008 67.7949C9.82893 68.1347 9.87971 68.5449 10.1102 68.8457L16.8602 77.4551C17.0516 77.7051 17.3485 77.834 17.6492 77.834C17.7508 77.834 17.8485 77.8223 17.9383 77.7949C18.3367 77.6738 18.618 77.3262 18.6375 76.9043L19.2274 68.2949C19.2469 68.0137 19.1492 67.7441 18.9578 67.5449C18.7664 67.3457 18.5086 67.2246 18.2274 67.2246L18.239 67.2363ZM16.8288 74.1855L12.9499 69.2441H17.1608L16.821 74.1855H16.8288Z" fill="white"/>
<path d="M17.6491 77.9743C17.2976 77.9743 16.9772 77.8141 16.7585 77.5446L10.0085 68.9352C9.74678 68.5953 9.69991 68.1344 9.87959 67.7438C10.0593 67.3532 10.4577 67.1149 10.8913 67.1149H18.2311C18.5397 67.1149 18.8405 67.2438 19.0514 67.4742C19.2623 67.7047 19.3717 68.0055 19.3522 68.3141L18.7623 76.9235C18.7311 77.3844 18.4108 77.7829 17.9733 77.9235C17.8639 77.9547 17.7545 77.9743 17.6452 77.9743L17.6491 77.9743ZM10.8991 67.3653C10.571 67.3653 10.2585 67.5567 10.1101 67.8535C9.96162 68.1543 10.0007 68.5137 10.2116 68.7754L16.9616 77.3848C17.1804 77.6661 17.5632 77.7833 17.9108 77.6856C18.2507 77.5762 18.5007 77.2637 18.5319 76.9044L19.1218 68.295C19.1413 68.0567 19.0515 67.8145 18.8913 67.6348C18.7194 67.4551 18.4929 67.3535 18.2507 67.3535H10.9109L10.8991 67.3653ZM16.9303 74.5137L12.6998 69.1153H17.3014L16.9303 74.5137ZM13.2076 69.3653L16.7271 73.8458L17.0357 69.3653H13.2076Z" fill="white"/>
<path d="M1.12944 37.0563C1.20757 37.0563 1.30132 37.0446 1.37944 37.0251L11.1489 34.486C11.5396 34.3844 11.8286 34.0641 11.8872 33.6657C11.9458 33.2672 11.7583 32.8766 11.4185 32.6657L3.39897 27.7751C3.12944 27.6032 2.78959 27.5836 2.48881 27.7047C2.18803 27.8258 1.97709 28.0836 1.89897 28.3961L0.148974 35.8375C0.0708495 36.1774 0.168505 36.5368 0.430224 36.779C0.621634 36.9704 0.871635 37.0602 1.12944 37.0602V37.0563ZM3.53964 30.1969L8.36774 33.1461L2.48884 34.6773L3.53964 30.1969Z" fill="white"/>
<path d="M1.12955 37.1853C0.828766 37.1853 0.551426 37.0759 0.340486 36.865C0.0592363 36.5955 -0.0579537 36.1853 0.0318963 35.8064L1.7819 28.365C1.86002 28.0134 2.11003 27.7244 2.44206 27.5837C2.77018 27.4431 3.153 27.4744 3.46156 27.6619L11.4811 32.5525C11.8717 32.7907 12.0709 33.2321 12.0123 33.6736C11.942 34.1228 11.6217 34.4821 11.1842 34.5954L1.41469 37.1345C1.32484 37.1541 1.22328 37.1736 1.13344 37.1736L1.12955 37.1853ZM2.87955 27.7439C2.77017 27.7439 2.64908 27.7634 2.53971 27.8142C2.27799 27.9236 2.09049 28.1423 2.02799 28.4236L0.277986 35.865C0.207674 36.1658 0.297518 36.4744 0.516266 36.6931C0.735016 36.904 1.05533 36.9939 1.34439 36.9119L11.1139 34.3728C11.4537 34.2829 11.7037 34.0017 11.7545 33.654C11.8053 33.3024 11.6451 32.9626 11.3443 32.7751L3.32485 27.8845C3.18423 27.8064 3.02407 27.7556 2.86391 27.7556L2.87955 27.7439ZM2.32096 34.8455L3.46156 29.9939L8.69206 33.1853L2.32096 34.8455ZM3.61786 30.3846L2.65692 34.494L8.05532 33.0838L3.62562 30.3846H3.61786Z" fill="white"/>
<path d="M25.989 6.45531L33.0281 11.2444C33.2 11.3655 33.3992 11.4163 33.5867 11.4163C33.7468 11.4163 33.907 11.3772 34.0554 11.2952C34.3835 11.1233 34.5867 10.7835 34.5867 10.4163V1.12719C34.5867 0.756103 34.3875 0.427972 34.0671 0.248282C33.7468 0.0764024 33.3562 0.0881224 33.0476 0.279532L26.0085 4.77953C25.7273 4.95922 25.5476 5.26781 25.5476 5.60765C25.5476 5.94749 25.7078 6.25609 25.989 6.44749L25.989 6.45531ZM32.5984 2.95531V8.53341L28.3679 5.65451L32.5984 2.95531Z" fill="white"/>
<path d="M33.598 11.5443C33.3675 11.5443 33.1487 11.474 32.9691 11.345L25.93 6.55595C25.6214 6.34501 25.43 5.98564 25.4417 5.60673C25.4417 5.22782 25.6409 4.87626 25.9612 4.67704L33.0003 0.177038C33.3519 -0.0417117 33.7894 -0.0612417 34.1487 0.137975C34.508 0.337192 34.7268 0.716095 34.7268 1.12626V10.4154C34.7268 10.8372 34.4964 11.2161 34.1253 11.4036C33.9651 11.4935 33.7854 11.5325 33.594 11.5325L33.598 11.5443ZM33.5902 0.255269C33.43 0.255269 33.262 0.30605 33.1214 0.395898L26.0823 4.8959C25.8323 5.05606 25.6839 5.32559 25.6839 5.61465C25.6839 5.90371 25.8245 6.18496 26.0628 6.35293L33.1019 11.142C33.3636 11.3217 33.723 11.3412 34.0003 11.1928C34.2894 11.0444 34.4691 10.7436 34.4691 10.4233V1.13418C34.4691 0.813869 34.2972 0.524799 34.0198 0.364649C33.8909 0.294336 33.7386 0.25527 33.598 0.25527L33.5902 0.255269ZM32.7191 8.77477L28.141 5.65367L32.7191 2.72397V8.77477ZM28.598 5.66537L32.4769 8.30597V3.19657L28.598 5.67707V5.66537Z" fill="white"/>
<path d="M67.3481 17.6853H74.5864C74.9966 17.6853 75.3677 17.4353 75.5161 17.0564C75.6646 16.6775 75.5747 16.2478 75.2778 15.9666L68.0395 9.01737C67.7505 8.73612 67.3208 8.66581 66.9614 8.81815C66.5903 8.97831 66.3521 9.33768 66.3521 9.74003V16.6892C66.3521 17.24 66.8013 17.6892 67.3521 17.6892L67.3481 17.6853ZM68.3481 12.0837L72.0981 15.6853H68.3481V12.0837Z" fill="white"/>
<path d="M74.5791 17.8143H67.3408C66.7197 17.8143 66.2197 17.3143 66.2197 16.6932V9.74399C66.2197 9.29477 66.4893 8.88461 66.8994 8.71279C67.3213 8.5331 67.79 8.62295 68.1182 8.93154L75.3565 15.8807C75.6846 16.2011 75.7979 16.6815 75.6182 17.1112C75.4464 17.5409 75.0401 17.8222 74.5791 17.8222L74.5791 17.8143ZM67.3486 8.86509C67.2275 8.86509 67.1182 8.88462 67.0088 8.9354C66.6885 9.07602 66.4775 9.38462 66.4775 9.73618V16.6854C66.4775 17.1659 66.8682 17.5643 67.3564 17.5643H74.5947C74.9541 17.5643 75.2744 17.3455 75.4033 17.0135C75.5322 16.6854 75.4541 16.3026 75.1924 16.0526L67.9541 9.10337C67.7822 8.94321 67.5752 8.86509 67.3447 8.86509L67.3486 8.86509ZM72.4111 15.8143H68.2197V11.7948L72.4111 15.8143ZM68.4697 15.5565H71.79L68.4697 12.3768V15.5565Z" fill="white"/>
<path d="M80.3989 32.9742H80.5981C81.1489 32.9742 81.5981 32.525 81.5981 31.9742C81.5981 31.4235 81.1489 30.9742 80.5981 30.9742H80.3989C79.8481 30.9742 79.3989 31.4235 79.3989 31.9742C79.3989 32.525 79.8481 32.9742 80.3989 32.9742Z" fill="white"/>
<path d="M80.5982 33.1073H80.3989C79.7778 33.1073 79.2778 32.6073 79.2778 31.9862C79.2778 31.3651 79.7778 30.8651 80.3989 30.8651H80.5982C81.2192 30.8651 81.7193 31.3651 81.7193 31.9862C81.7193 32.6073 81.2193 33.1073 80.5982 33.1073ZM80.3989 31.1073C79.9185 31.1073 79.52 31.4979 79.52 31.9862C79.52 32.4745 79.9106 32.8651 80.3989 32.8651H80.5982C81.0786 32.8651 81.4771 32.4745 81.4771 31.9862C81.4771 31.4979 81.0864 31.1073 80.5982 31.1073H80.3989Z" fill="white"/>
<path d="M56.0901 6.6653C56.3206 6.6653 56.5589 6.58718 56.7503 6.4153L56.8987 6.28639C57.1292 6.08717 57.2386 5.81764 57.2386 5.53639C57.2386 5.30592 57.1604 5.06764 56.9886 4.87623C56.6292 4.45435 55.9886 4.41529 55.5784 4.78639L55.4299 4.9153C55.1995 5.11452 55.0901 5.38405 55.0901 5.6653C55.0901 5.89577 55.1682 6.13405 55.3401 6.32546C55.5393 6.55593 55.8089 6.6653 56.0901 6.6653Z" fill="white"/>
<path d="M56.0901 6.79425C55.7698 6.79425 55.4612 6.65363 55.2385 6.41534C55.0588 6.2044 54.9573 5.94659 54.9573 5.67706C54.9573 5.35675 55.0979 5.04815 55.3362 4.8255L55.4846 4.69659C55.7034 4.49737 55.9846 4.39581 56.3049 4.41534C56.6057 4.43487 56.8752 4.5755 57.0745 4.79425C57.2542 5.00519 57.3557 5.263 57.3557 5.53253C57.3557 5.85284 57.2151 6.16144 56.9768 6.38409L56.8284 6.513C56.6291 6.69269 56.3596 6.79425 56.0901 6.79425ZM56.2385 4.66535C56.0276 4.66535 55.8166 4.74347 55.6604 4.8841L55.512 5.01301C55.3206 5.18489 55.2112 5.42317 55.2112 5.67317C55.2112 5.88411 55.2893 6.09505 55.4299 6.25129C55.7385 6.60285 56.3206 6.64191 56.6682 6.32941L56.8167 6.2005C57.0081 6.02862 57.1175 5.79034 57.1175 5.54034C57.1175 5.3294 57.0393 5.11846 56.8987 4.96222C56.7503 4.78253 56.5276 4.68097 56.2971 4.66144H56.2386L56.2385 4.66535Z" fill="white"/>
<path d="M67.4111 4.13424C67.6025 4.2944 67.833 4.36471 68.0517 4.36471C68.3408 4.36471 68.622 4.24362 68.8212 4.00533C69.1728 3.58346 69.122 2.95453 68.7002 2.59513L68.5517 2.46622C68.1298 2.11466 67.5009 2.16544 67.1415 2.58731C66.79 3.00919 66.8407 3.63811 67.2626 3.99751L67.411 4.12642L67.4111 4.13424Z" fill="white"/>
<path d="M68.047 4.49426C67.7852 4.49426 67.5274 4.40441 67.3282 4.23254L67.1798 4.10363C66.6993 3.70519 66.6407 2.99423 67.0391 2.52553C67.4376 2.05683 68.1485 1.98647 68.6172 2.38491L68.7657 2.51382C69.2462 2.91226 69.3047 3.62322 68.9063 4.09192C68.6954 4.35364 68.3751 4.49036 68.0469 4.49036L68.047 4.49426ZM67.4884 4.04504C67.8477 4.34582 68.4181 4.29504 68.7189 3.93566C69.0275 3.56457 68.9806 3.01378 68.6095 2.70516L68.4611 2.57625C68.09 2.26766 67.5392 2.31453 67.2305 2.68563C66.922 3.05672 66.9688 3.60751 67.3399 3.91613L67.4884 4.04504Z" fill="white"/>
<path d="M11.708 17.0253C12.2588 17.0253 12.708 16.5761 12.708 16.0253V15.826C12.708 15.2753 12.2588 14.826 11.708 14.826C11.1572 14.826 10.708 15.2753 10.708 15.826V16.0253C10.708 16.5761 11.1572 17.0253 11.708 17.0253Z" fill="white"/>
<path d="M11.708 17.1543C11.0869 17.1543 10.5869 16.6543 10.5869 16.0332V15.834C10.5869 15.5332 10.6963 15.2558 10.9072 15.0332C11.1182 14.8223 11.3955 14.7051 11.6963 14.7051C12.3174 14.7051 12.8252 15.2051 12.8252 15.8262V16.0254C12.8252 16.3262 12.7158 16.6035 12.5049 16.8262C12.2939 17.0371 12.0166 17.1543 11.7158 17.1543H11.708ZM11.708 14.9551C11.4697 14.9551 11.2471 15.0449 11.0869 15.2168C10.9268 15.3887 10.8369 15.6074 10.8369 15.8379V16.0371C10.8369 16.5176 11.2354 16.9082 11.7158 16.9082C11.9463 16.9082 12.1651 16.8184 12.3369 16.6465C12.5088 16.4746 12.5869 16.2559 12.5869 16.0254V15.8262C12.5869 15.3457 12.1885 14.9551 11.708 14.9551Z" fill="white"/>
<path d="M6.73904 10.1732C6.81717 10.1732 6.91092 10.1615 6.98904 10.142L7.18045 10.0912C7.7117 9.95059 8.03201 9.3998 7.8992 8.87241C7.75858 8.34116 7.20779 8.02085 6.6804 8.15366L6.48899 8.20444C5.95774 8.34506 5.63743 8.89586 5.77024 9.42325C5.89133 9.87247 6.28982 10.1732 6.73904 10.1732Z" fill="white"/>
<path d="M6.73895 10.3063C6.22723 10.3063 5.77801 9.95471 5.64915 9.46643C5.48899 8.86487 5.86009 8.24763 6.45774 8.09533L6.64915 8.04455C7.23899 7.89611 7.86795 8.25549 8.02025 8.85314C8.18041 9.4547 7.80931 10.0719 7.21166 10.2242L7.02025 10.275C6.9304 10.2945 6.82884 10.3141 6.739 10.3141L6.73895 10.3063ZM6.93817 8.25547C6.86785 8.25547 6.78973 8.25547 6.71942 8.28672L6.52801 8.3375C6.05926 8.45859 5.77801 8.93906 5.8991 9.4078C6.02019 9.86874 6.48894 10.1578 6.9694 10.0367L7.16081 9.98593C7.62956 9.86484 7.91081 9.38437 7.78972 8.91563C7.68816 8.52501 7.32878 8.26719 6.93816 8.26719L6.93817 8.25547Z" fill="white"/>
<path d="M15.5201 12.0563L15.692 12.1657C15.8638 12.2673 16.0435 12.3141 16.2232 12.3141C16.5513 12.3141 16.8834 12.1423 17.0748 11.8454C17.3638 11.3766 17.2232 10.7556 16.7545 10.4665L16.5826 10.3571C16.1138 10.0681 15.4928 10.2087 15.2037 10.6774C14.9146 11.1462 15.0552 11.7672 15.524 12.0563H15.5201Z" fill="white"/>
<path d="M16.2191 12.4353C16.0082 12.4353 15.7972 12.3767 15.6293 12.2634L15.4574 12.1541C14.9261 11.8259 14.766 11.1346 15.098 10.6033C15.4261 10.072 16.1175 9.91185 16.6488 10.2439L16.8207 10.3533C17.3519 10.6814 17.5121 11.3728 17.1801 11.9041C16.9691 12.2322 16.6215 12.4353 16.2191 12.4353ZM15.5785 11.947L15.7504 12.0564C15.891 12.1463 16.0511 12.1853 16.2113 12.1853C16.5121 12.1853 16.7894 12.0369 16.9496 11.7752C17.2113 11.365 17.0785 10.8259 16.6683 10.5643L16.4964 10.4549C16.0863 10.1932 15.5472 10.326 15.2855 10.7361C15.0238 11.1463 15.1566 11.6854 15.5668 11.947H15.5785Z" fill="white"/>
<path d="M71.5591 79.0763H71.3599C70.8091 79.0763 70.3599 79.5255 70.3599 80.0763C70.3599 80.6271 70.8091 81.0763 71.3599 81.0763H71.5591C72.1099 81.0763 72.5591 80.6271 72.5591 80.0763C72.5591 79.5255 72.1099 79.0763 71.5591 79.0763Z" fill="white"/>
<path d="M71.5591 81.2053H71.3599C70.7388 81.2053 70.2388 80.7053 70.2388 80.0842C70.2388 79.4631 70.7388 78.9631 71.3599 78.9631H71.5591C72.1802 78.9631 72.6802 79.4631 72.6802 80.0842C72.6802 80.7053 72.1802 81.2053 71.5591 81.2053ZM71.3599 79.2053C70.8794 79.2053 70.481 79.596 70.481 80.0842C70.481 80.5725 70.8716 80.9632 71.3599 80.9632H71.5591C72.0396 80.9632 72.438 80.5725 72.438 80.0842C72.438 79.596 72.0474 79.2053 71.5591 79.2053H71.3599Z" fill="white"/>
<path d="M67.1489 72.6152H66.9497C66.3989 72.6152 65.9497 73.0645 65.9497 73.6152C65.9497 74.166 66.3989 74.6152 66.9497 74.6152H67.1489C67.6997 74.6152 68.1489 74.166 68.1489 73.6152C68.1489 73.0645 67.6997 72.6152 67.1489 72.6152Z" fill="white"/>
<path d="M67.1489 74.7443H66.9497C66.3286 74.7443 65.8286 74.2443 65.8286 73.6232C65.8286 73.0021 66.3286 72.5021 66.9497 72.5021H67.1489C67.77 72.5021 68.27 73.0021 68.27 73.6232C68.27 74.2443 67.77 74.7443 67.1489 74.7443ZM66.9497 72.7443C66.4692 72.7443 66.0708 73.1349 66.0708 73.6232C66.0708 74.1115 66.4614 74.5021 66.9497 74.5021H67.1489C67.6294 74.5021 68.0278 74.1115 68.0278 73.6232C68.0278 73.1349 67.6372 72.7443 67.1489 72.7443H66.9497Z" fill="white"/>
<path d="M4.8291 79.5443H4.62988C4.0791 79.5443 3.62988 79.9935 3.62988 80.5443C3.62988 81.0951 4.0791 81.5443 4.62988 81.5443H4.8291C5.37988 81.5443 5.8291 81.0951 5.8291 80.5443C5.8291 79.9935 5.37988 79.5443 4.8291 79.5443Z" fill="white"/>
<path d="M4.82911 81.6653H4.62989C4.0088 81.6653 3.50879 81.1653 3.50879 80.5442C3.50879 79.9231 4.00879 79.4231 4.62989 79.4231H4.82911C5.4502 79.4231 5.95021 79.9231 5.95021 80.5442C5.95021 81.1653 5.45021 81.6653 4.82911 81.6653ZM4.62989 79.6653C4.14942 79.6653 3.75098 80.0559 3.75098 80.5442C3.75098 81.0325 4.14161 81.4231 4.62989 81.4231H4.82911C5.30958 81.4231 5.70802 81.0325 5.70802 80.5442C5.70802 80.0559 5.3174 79.6653 4.82911 79.6653H4.62989Z" fill="white"/>
<path d="M7.37915 72.6152H7.17993C6.62915 72.6152 6.17993 73.0645 6.17993 73.6152C6.17993 74.166 6.62915 74.6152 7.17993 74.6152H7.37915C7.92993 74.6152 8.37915 74.166 8.37915 73.6152C8.37915 73.0645 7.92993 72.6152 7.37915 72.6152Z" fill="white"/>
<path d="M7.37916 74.7443H7.17994C6.55885 74.7443 6.05884 74.2443 6.05884 73.6232C6.05884 73.0021 6.55884 72.5021 7.17994 72.5021H7.37916C8.00025 72.5021 8.50026 73.0021 8.50026 73.6232C8.50026 74.2443 8.00026 74.7443 7.37916 74.7443ZM7.17994 72.7443C6.69947 72.7443 6.30103 73.1349 6.30103 73.6232C6.30103 74.1115 6.69165 74.5021 7.17994 74.5021H7.37916C7.85963 74.5021 8.25807 74.1115 8.25807 73.6232C8.25807 73.1349 7.86745 72.7443 7.37916 72.7443H7.17994Z" fill="white"/>
<path d="M32.321 75.0642H32.1218C31.571 75.0642 31.1218 75.5134 31.1218 76.0642C31.1218 76.615 31.571 77.0642 32.1218 77.0642H32.321C32.8718 77.0642 33.321 76.615 33.321 76.0642C33.321 75.5134 32.8718 75.0642 32.321 75.0642Z" fill="white"/>
<path d="M32.3211 77.1973H32.1218C31.5007 77.1973 31.0007 76.6973 31.0007 76.0762C31.0007 75.4551 31.5007 74.9551 32.1218 74.9551H32.3211C32.9421 74.9551 33.4422 75.4551 33.4422 76.0762C33.4422 76.6973 32.9422 77.1973 32.3211 77.1973ZM32.1179 75.1973C31.6375 75.1973 31.239 75.5879 31.239 76.0762C31.239 76.5645 31.6296 76.9551 32.1179 76.9551H32.3172C32.7976 76.9551 33.1961 76.5645 33.1961 76.0762C33.1961 75.5879 32.8054 75.1973 32.3172 75.1973H32.1179Z" fill="white"/>
<path d="M4.92993 51.9742H4.73071C4.17993 51.9742 3.73071 52.4235 3.73071 52.9742C3.73071 53.525 4.17993 53.9742 4.73071 53.9742H4.92993C5.48071 53.9742 5.92993 53.525 5.92993 52.9742C5.92993 52.4235 5.48071 51.9742 4.92993 51.9742Z" fill="white"/>
<path d="M4.92994 54.1073H4.73072C4.10963 54.1073 3.60962 53.6073 3.60962 52.9862C3.60962 52.3651 4.10962 51.8651 4.73072 51.8651H4.92994C5.55103 51.8651 6.05104 52.3651 6.05104 52.9862C6.05104 53.6073 5.55104 54.1073 4.92994 54.1073ZM4.72682 52.1073C4.24635 52.1073 3.84791 52.4979 3.84791 52.9862C3.84791 53.4745 4.23853 53.8651 4.72682 53.8651H4.92604C5.40651 53.8651 5.80495 53.4745 5.80495 52.9862C5.80495 52.4979 5.41433 52.1073 4.92604 52.1073H4.72682Z" fill="white"/>
<path d="M74.9771 67.4153H74.7778C74.2271 67.4153 73.7778 67.8645 73.7778 68.4153C73.7778 68.9661 74.2271 69.4153 74.7778 69.4153H74.9771C75.5278 69.4153 75.9771 68.9661 75.9771 68.4153C75.9771 67.8645 75.5278 67.4153 74.9771 67.4153Z" fill="white"/>
<path d="M74.9771 69.5442H74.7778C74.1567 69.5442 73.6567 69.0442 73.6567 68.4231C73.6567 67.802 74.1567 67.302 74.7778 67.302H74.9771C75.5981 67.302 76.0982 67.802 76.0982 68.4231C76.0982 69.0442 75.5982 69.5442 74.9771 69.5442ZM74.7778 67.5442C74.2974 67.5442 73.8989 67.9348 73.8989 68.4231C73.8989 68.9114 74.2895 69.302 74.7778 69.302H74.9771C75.4575 69.302 75.856 68.9114 75.856 68.4231C75.856 67.9348 75.4653 67.5442 74.9771 67.5442H74.7778Z" fill="white"/>
</svg>
