<svg width="77" height="79" viewBox="0 0 77 79" fill="none" xmlns="http://www.w3.org/2000/svg">
<path d="M39.4848 11.9328C39.645 11.9328 39.8051 11.9133 39.9653 11.8742C41.7661 11.4133 41.8872 8.93283 41.9262 8.11253C42.0473 5.51093 41.3051 3.52273 39.727 2.20233C36.5161 -0.469572 31.0551 0.772627 30.8168 0.823427C30.5082 0.89374 30.2465 1.11249 30.1254 1.41327C30.0043 1.71405 30.0238 2.04218 30.1957 2.32343C32.0238 5.29223 36.4574 11.925 39.4965 11.925L39.4848 11.9328ZM38.4457 3.75312C39.516 4.65156 40.016 6.08122 39.9262 8.02262C39.8481 9.67102 39.4653 9.94452 39.4653 9.94452C38.7036 10.1945 35.6762 7.10472 32.7036 2.57342C34.2934 2.42498 36.8442 2.4328 38.4419 3.76482L38.4457 3.75312Z" fill="white"/>
<path d="M39.4848 12.4329C36.2934 12.4329 32.0239 6.26097 29.766 2.59307C29.516 2.18291 29.477 1.6712 29.6567 1.23367C29.8363 0.792257 30.227 0.464137 30.6958 0.354757C31.3051 0.214137 36.7153 -0.934343 40.0356 1.83526C41.7465 3.25716 42.5473 5.38606 42.4145 8.14386C42.3754 9.05402 42.2426 11.8041 40.0864 12.3627C39.8949 12.4134 39.688 12.4329 39.4848 12.4329ZM34.016 1.00287C32.3441 1.00287 31.0277 1.30365 30.9144 1.32318C30.766 1.36224 30.6332 1.47162 30.5746 1.61224C30.516 1.76068 30.5238 1.93255 30.6137 2.06146C34.4535 8.29976 37.9731 11.8623 39.8325 11.3818C41.2739 11.0107 41.3833 8.80366 41.4106 8.08096C41.5316 5.63956 40.852 3.79186 39.3911 2.58096C37.8599 1.31146 35.7505 0.991157 34.0122 0.991157L34.016 1.00287ZM39.4457 10.4209C37.8246 10.4209 34.3441 5.97947 32.2855 2.84277L31.8363 2.15136L32.6566 2.07323C34.516 1.89354 37.0863 1.97167 38.7582 3.37403C39.9574 4.37403 40.5199 5.95213 40.4184 8.05373C40.3403 9.81543 39.9184 10.2725 39.688 10.3935C39.6176 10.4131 39.5395 10.4326 39.4497 10.4326L39.4457 10.4209ZM33.6059 3.01067C36.184 6.81927 38.434 9.03017 39.2075 9.40127C39.2857 9.19033 39.3872 8.77236 39.4263 8.00287C39.5044 6.23337 39.0747 4.93257 38.1255 4.14347C36.9146 3.13177 35.0161 2.97157 33.606 3.01457L33.6059 3.01067Z" fill="white"/>
<path d="M8.8319 27.8508C9.29284 27.8508 9.70299 27.5305 9.80065 27.0696C9.83972 26.8977 10.7421 22.7493 8.53115 19.3001C7.22255 17.2493 5.12095 15.9095 2.28115 15.3001C1.80068 15.1985 1.33193 15.4485 1.14055 15.9016C1.07024 16.0735 -0.468846 19.9797 1.4218 23.4211C2.6835 25.7102 5.1132 27.1906 8.6327 27.8313C8.6913 27.843 8.75379 27.8509 8.81239 27.8509L8.8319 27.8508ZM7.98424 25.6399C5.64444 25.0501 4.03504 23.9797 3.19514 22.468C2.20686 20.6789 2.4842 18.6086 2.75373 17.4797C4.59353 18.0305 5.96463 18.9992 6.84353 20.3586C8.03493 22.1984 8.07414 24.3899 7.98424 25.6399Z" fill="white"/>
<path d="M8.83183 28.3509C8.74199 28.3509 8.65214 28.3509 8.5623 28.3314C4.8826 27.6595 2.3435 26.1009 1.0037 23.6712C-1.0158 20.011 0.624791 15.89 0.695111 15.722C0.964641 15.0501 1.68339 14.6712 2.39431 14.8235C5.36311 15.4642 7.57401 16.8743 8.96461 19.0423C11.2732 22.6517 10.3435 27.0032 10.3044 27.1829C10.156 27.8626 9.53488 28.3548 8.84351 28.3548L8.83183 28.3509ZM2.08183 15.7809C1.88261 15.7809 1.70292 15.902 1.62089 16.0895C1.60136 16.1286 0.0896907 19.9293 1.88261 23.1793C3.06231 25.3277 5.37091 26.7184 8.75371 27.3277H8.84355C9.07402 27.3277 9.28496 27.1675 9.33183 26.9488C9.3709 26.7769 10.2225 22.8277 8.13263 19.5582C6.89433 17.6285 4.90213 16.359 2.20293 15.777C2.16387 15.777 2.13262 15.7653 2.09355 15.7653L2.08183 15.7809ZM8.44513 26.2729L7.86701 26.1245C5.38651 25.4956 3.67561 24.3433 2.76541 22.7143C1.68731 20.7651 1.99588 18.5229 2.27713 17.3627L2.39822 16.851L2.89822 16.9994C4.84742 17.5892 6.32012 18.6283 7.25762 20.0892C8.53882 22.0775 8.56622 24.4408 8.47642 25.679L8.43736 26.2688L8.44513 26.2729ZM3.13263 18.1401C2.94122 19.2182 2.8631 20.8315 3.63263 22.2299C4.33185 23.4916 5.63263 24.4213 7.51153 24.9916C7.53106 23.8197 7.36309 22.0932 6.42173 20.64C5.69126 19.5111 4.59363 18.6713 3.13263 18.1401Z" fill="white"/>
<path d="M46.3239 12.8898C45.9333 12.7609 45.5036 12.8898 45.2458 13.1984C44.9841 13.507 44.9372 13.9601 45.1364 14.3195C46.7966 17.3898 47.3083 20.089 47.4372 21.8898C30.0542 3.44082 8.58224 4.79981 8.36324 4.81981C7.94136 4.85106 7.58199 5.14794 7.47262 5.5581C7.36325 5.96826 7.5234 6.40966 7.88278 6.6479C7.95309 6.69868 14.8047 11.4995 15.2617 24.8279C15.5703 33.7693 17.2305 38.3079 18.5312 40.5269C13.1914 39.8277 9.82028 35.8472 9.78118 35.7964C9.53118 35.4956 9.13274 35.3667 8.76168 35.4683C8.38277 35.5698 8.10152 35.8667 8.03121 36.2495C6.91011 42.1284 11.0312 53.6085 11.2109 54.0895C11.3593 54.4997 11.7422 54.7497 12.1523 54.7497C12.2617 54.7497 12.3828 54.7301 12.4922 54.6911C13.0117 54.4997 13.2812 53.9294 13.0937 53.4099C13.0547 53.3083 9.85542 44.3787 9.83202 38.6399C11.832 40.3508 15.6406 42.8391 20.703 42.6204C21.1249 42.6008 21.4726 42.3196 21.6015 41.9212C21.7304 41.5227 21.5819 41.0813 21.2499 40.8196C21.2108 40.7883 17.7108 37.9212 17.2499 24.7606C16.9101 14.9208 13.3397 9.40156 10.9999 6.81956C17.2499 7.08909 33.9999 9.35076 47.5779 25.0576C47.8279 25.3466 48.2185 25.4677 48.5974 25.3662C48.9685 25.2646 49.2458 24.9677 49.3161 24.5849C49.3474 24.4052 50.0154 20.7255 47.9567 15.663C55.3981 18.7919 78.1677 30.393 73.6677 53.542C73.5584 54.0811 73.9178 54.6123 74.4568 54.7139C74.9959 54.8233 75.5271 54.4639 75.6287 53.9248C81.3084 24.7338 46.6487 12.9838 46.3007 12.8738L46.3239 12.8898Z" fill="white"/>
<path d="M74.6718 55.2539C74.5703 55.2539 74.4804 55.2539 74.3828 55.2227C73.5742 55.0625 73.043 54.2735 73.2031 53.461C77.4414 31.672 56.9221 20.199 48.8751 16.602C50.4649 21.2114 49.8633 24.5317 49.836 24.6801C49.7266 25.2387 49.3048 25.6996 48.7462 25.852C48.1876 26.0004 47.6056 25.8207 47.2267 25.3832C34.5857 10.7622 19.2387 7.89523 12.1567 7.38323C14.395 10.2035 17.4575 15.6723 17.7778 24.7352C18.2192 37.4542 21.559 40.3952 21.5864 40.4262C22.0747 40.8051 22.2856 41.4653 22.0981 42.0668C21.9067 42.6684 21.3598 43.098 20.7387 43.1176C16.1293 43.309 12.5004 41.3168 10.3867 39.7192C10.7461 45.3598 13.5469 53.1602 13.5781 53.2392C13.8594 54.0205 13.457 54.8798 12.6797 55.1611C11.8984 55.4424 11.0313 55.0127 10.7578 54.2627C10.5781 53.7744 6.40619 42.1537 7.55859 36.1537C7.66797 35.5834 8.09765 35.1225 8.66019 34.9818C9.21878 34.8412 9.82039 35.0326 10.1914 35.4818C10.2226 35.5208 13.0703 38.8802 17.6328 39.8607C16.3945 37.3216 15.0625 32.7709 14.7812 24.8407C14.332 11.8797 7.67959 7.10268 7.60929 7.05168C7.08976 6.70012 6.83976 6.03999 6.99991 5.42279C7.17179 4.8017 7.69913 4.36419 8.33971 4.31339C8.55065 4.29385 29.5307 3.09459 46.7697 20.4614C46.508 18.8598 45.9299 16.813 44.6994 14.5395C44.4103 14.0004 44.4689 13.3403 44.8713 12.8598C45.2697 12.391 45.9025 12.1996 46.4924 12.3988C46.8439 12.5199 81.9224 24.4108 76.1644 54.0278C76.0863 54.4185 75.8636 54.7583 75.5238 54.9888C75.2738 55.1607 74.9847 55.2505 74.6956 55.2505L74.6718 55.2539ZM9.02383 35.9419C9.02383 35.9419 8.9457 35.9419 8.90274 35.9615C8.71133 36.0122 8.57462 36.1607 8.53165 36.3521C7.44185 42.0826 11.5121 53.4541 11.6918 53.9301C11.7817 54.1801 12.0708 54.3207 12.3325 54.2309C12.5942 54.141 12.7231 53.8519 12.6332 53.5902C12.602 53.5004 9.36375 44.4613 9.34415 38.6492V37.5594L10.1723 38.2704C11.9614 39.8016 15.6918 42.3485 20.6923 42.1298C20.9032 42.1298 21.0712 41.9813 21.1415 41.7782C21.2001 41.579 21.1298 41.3563 20.9618 41.2274C20.9305 41.1962 17.243 38.2586 16.7704 24.7974C16.4306 14.9693 12.7899 9.53544 10.6493 7.17644L9.84852 6.28582L11.0477 6.3366C17.618 6.61785 34.3567 8.9772 47.9887 24.7466C48.1176 24.895 48.3168 24.9575 48.5004 24.9068C48.6801 24.856 48.8286 24.7075 48.8598 24.5161C48.8911 24.3677 49.5317 20.7973 47.5317 15.8872L47.0825 14.7661L48.1919 15.2349C55.4536 18.2857 78.7819 30.0869 74.1919 53.6759C74.1411 53.9454 74.313 54.2071 74.5825 54.2657C74.7114 54.297 74.8442 54.2657 74.9536 54.1876C75.063 54.1095 75.145 53.9962 75.1645 53.8673C80.7661 25.1053 46.5165 13.4963 46.1645 13.3873C45.9731 13.3287 45.7544 13.3873 45.6255 13.5357C45.4966 13.6959 45.477 13.9146 45.5669 14.0943C47.2857 17.2857 47.7974 20.0748 47.9263 21.8638L48.0279 23.2622L47.0669 22.2427C29.8129 3.92272 8.61391 5.30172 8.40291 5.32072C8.19197 5.34025 8.01229 5.4926 7.95369 5.69181C7.90291 5.89103 7.98494 6.11369 8.16463 6.23087C8.46541 6.43009 15.2935 11.3207 15.7662 24.8089C16.067 33.5901 17.6764 38.0709 18.9654 40.2779L19.485 41.1568L18.4733 41.0279C12.8717 40.2974 9.43416 36.1568 9.40296 36.1177C9.31312 36.0083 9.16468 35.938 9.01234 35.938L9.02383 35.9419Z" fill="white"/>
<path d="M73.7148 57.4719C73.1835 57.3508 72.6445 57.6906 72.5234 58.2336C72.332 59.093 67.5234 79.3426 42.6134 76.1436C23.5434 73.7022 15.4844 58.1556 15.4024 58.0026C15.1524 57.5143 14.5508 57.3112 14.0626 57.5612C13.5744 57.8112 13.3712 58.4127 13.6212 58.901C13.961 59.5807 22.211 75.549 42.3712 78.131C44.2501 78.3692 46.0196 78.4825 47.6993 78.4825C69.8473 78.4825 74.4373 58.8805 74.4883 58.6625C74.6094 58.1235 74.2695 57.5922 73.7266 57.4711L73.7148 57.4719Z" fill="white"/>
<path d="M47.6837 78.9799C45.9649 78.9799 44.1446 78.8588 42.2931 78.6205C21.8831 76.0111 13.5121 59.8115 13.1641 59.1205C12.793 58.3823 13.0938 57.4799 13.8243 57.1088C14.5626 56.7378 15.4649 57.0385 15.836 57.769C15.9141 57.9174 23.9141 73.238 42.664 75.64C67.133 78.7806 71.836 58.96 72.023 58.12C72.1128 57.7294 72.3433 57.3895 72.6831 57.1786C73.023 56.9676 73.4214 56.8895 73.812 56.9794C74.2027 57.0692 74.5308 57.2997 74.7535 57.6395C74.9722 57.9794 75.0425 58.3778 74.9527 58.7684C74.9136 58.9677 70.2418 78.9794 47.6827 78.9794L47.6837 78.9799ZM14.5037 57.9529C14.4256 57.9529 14.3553 57.9725 14.285 58.0037C14.035 58.1248 13.9451 58.4334 14.0662 58.6756C14.4061 59.3475 22.5467 75.0856 42.4252 77.6366C44.2338 77.8671 46.0033 77.9881 47.6947 77.9881C69.3937 77.9881 73.9447 58.7581 73.9957 58.5661C74.0543 58.2966 73.8863 58.0349 73.6168 57.9763C73.4879 57.9451 73.3551 57.9763 73.2457 58.0349C73.1246 58.1052 73.0543 58.2146 73.027 58.3552C72.8473 59.1755 68.6364 76.9962 47.797 76.9962C46.1564 76.9962 44.4181 76.8868 42.5665 76.6446C23.2465 74.1758 15.0545 58.3946 14.9645 58.2346C14.8746 58.0628 14.7028 57.9651 14.5153 57.9651L14.5037 57.9529Z" fill="white"/>
<path d="M39.4339 69.2929L39.9847 70.9726C40.0863 71.2812 40.3245 71.5234 40.6331 71.6132L45.7034 73.1913C45.805 73.2226 45.9027 73.2304 46.0042 73.2304C46.2933 73.2304 46.5628 73.1093 46.7659 72.8788L47.8557 71.6171C48.1956 71.6367 48.5667 71.6484 48.9455 71.6484C60.1645 71.6484 69.2975 62.5195 69.2975 51.2964C69.2975 50.1948 69.2194 49.1245 69.0475 48.0972L70.5866 46.0191C70.8249 45.6988 70.8484 45.2574 70.6452 44.9175L66.8366 38.4761C66.6569 38.1753 66.3249 37.9878 65.9773 37.9878H64.3562C60.4851 33.4995 54.8953 30.937 48.9582 30.937C44.9973 30.937 41.1965 32.0659 37.9192 34.1987L35.9583 33.3472C35.5793 33.187 35.1379 33.269 34.8489 33.5581L29.6575 38.769C29.3762 39.0502 29.2864 39.4604 29.427 39.8276L30.5051 42.687C29.2434 45.3784 28.6067 48.2651 28.6067 51.2964C28.6067 58.9058 32.7473 65.7574 39.4467 69.2764L39.4339 69.2929ZM35.7737 35.4729L37.6018 36.2737L41.012 37.7542C41.1409 37.8128 41.2737 37.8323 41.4105 37.8323C41.8011 37.8323 42.1605 37.6019 42.3323 37.2308C42.5511 36.719 42.3206 36.1292 41.8128 35.9105L40.1722 35.1995C42.8519 33.7307 45.8441 32.9495 48.9417 32.9495C53.6917 32.9495 58.18 34.7698 61.5707 38.0003H59.4105C58.8597 38.0003 58.4105 38.4495 58.4105 39.0003C58.4105 39.5511 58.8597 40.0003 59.4105 40.0003H65.391L68.5707 45.3792L67.1801 47.2581L65.059 50.1175C64.7309 50.5589 64.8207 51.1878 65.27 51.5159C65.4496 51.6448 65.6606 51.7151 65.8598 51.7151C66.1684 51.7151 66.4692 51.5745 66.6606 51.3167L67.2504 50.5159C67.2621 50.7776 67.2895 51.0355 67.2895 51.305C67.2895 61.2152 59.3911 69.293 49.5595 69.625L49.6884 69.4648C50.0478 69.0429 49.997 68.414 49.579 68.0546C49.1571 67.6952 48.5282 67.746 48.1688 68.164L46.6493 69.9335L45.661 71.0819L41.7118 69.8514L41.1923 68.2733L40.3915 65.8514C40.2196 65.3319 39.6532 65.0428 39.1298 65.2108C38.6415 65.3709 38.3681 65.8827 38.4814 66.3827C33.5517 62.9921 30.583 57.4218 30.583 51.3047C30.583 49.2852 30.9033 47.3242 31.5322 45.4649L31.6533 45.793C31.8017 46.1914 32.1845 46.4414 32.5947 46.4414C32.7158 46.4414 32.833 46.4219 32.9463 46.3829C33.4658 46.1836 33.7275 45.6133 33.5244 45.0938L32.5049 42.4024L31.5049 39.754L35.7549 35.4845L35.7737 35.4729Z" fill="white"/>
<path d="M46.0037 73.7419C45.8553 73.7419 45.7029 73.7223 45.5623 73.6716L40.492 72.0935C40.0311 71.945 39.6639 71.5817 39.5115 71.1247L39.0233 69.6364C32.285 66.0075 28.0933 58.9954 28.0933 51.3084C28.0933 48.2772 28.7222 45.3787 29.9527 42.6795L28.9527 40.0193C28.7417 39.4685 28.8824 38.8474 29.2925 38.4295L34.4839 33.2186C34.9136 32.7889 35.5855 32.66 36.1441 32.8983L37.855 33.6483C41.1636 31.5585 44.9956 30.4491 48.945 30.4491C54.9333 30.4491 60.617 33.0194 64.566 37.4999H65.9644C66.4957 37.4999 66.9839 37.7811 67.2535 38.2382L71.0621 44.6796C71.3707 45.1991 71.3316 45.8515 70.984 46.3398L69.5738 48.25C69.7222 49.2383 69.8042 50.2812 69.8042 51.3203C69.8042 62.8203 60.4526 72.1723 48.9522 72.1723C48.6437 72.1723 48.3507 72.1723 48.0733 72.1527L47.1437 73.2308C46.8546 73.559 46.4444 73.7504 46.003 73.7504L46.0037 73.7419ZM35.5427 33.7809C35.4138 33.7809 35.281 33.8316 35.1912 33.9293L29.9998 39.1402C29.8591 39.2808 29.8201 39.4918 29.8904 39.6715L31.0388 42.7301L30.9489 42.9215C29.7184 45.5426 29.0895 48.3707 29.0895 51.3199C29.0895 58.7105 33.1403 65.4289 39.6595 68.8589L39.8392 68.9487L40.4486 70.8198C40.4994 70.9682 40.6205 71.0893 40.7767 71.1401L45.847 72.7182C46.0384 72.769 46.2455 72.7182 46.3783 72.5698L47.6283 71.1206L47.8783 71.1401C48.2064 71.1596 48.5697 71.1714 48.9369 71.1714C59.8859 71.1714 68.7889 62.273 68.7889 51.3194C68.7889 50.2491 68.7108 49.1983 68.5389 48.1983L68.5076 47.9873L70.1678 45.749C70.2889 45.5889 70.2967 45.3701 70.1991 45.1982L66.3905 38.7568C66.3006 38.6084 66.1405 38.5068 65.9608 38.5068H64.1092L63.9608 38.335C60.1913 33.9639 54.7108 31.4561 48.9408 31.4561C45.0892 31.4561 41.3704 32.5577 38.1707 34.6358L37.952 34.7842L35.7411 33.8233C35.6825 33.792 35.6122 33.7842 35.5419 33.7842L35.5427 33.7809ZM45.8437 71.6639L41.332 70.2537L39.9336 66.0037C39.8946 65.8748 39.8047 65.7732 39.6836 65.7146C39.5625 65.656 39.4336 65.6443 39.3125 65.6834C39.0743 65.7615 38.9336 66.0115 38.9922 66.2615L39.2813 67.5115L38.2227 66.781C33.1446 63.2927 30.1016 57.4919 30.1016 51.293C30.1016 49.2344 30.4297 47.2149 31.0821 45.293L31.5313 43.9649L32.1524 45.6055C32.2422 45.8555 32.543 45.9844 32.8008 45.8946C33.0625 45.793 33.1914 45.5039 33.0899 45.2461L30.9493 39.5977L35.6681 34.8594L41.2267 37.2696C41.4767 37.379 41.7774 37.2501 41.8868 37.0079C41.9376 36.8868 41.9454 36.7462 41.8868 36.629C41.8282 36.5079 41.7462 36.4102 41.6173 36.3477L39.0392 35.2266L39.9298 34.7384C42.6798 33.2267 45.8009 32.4298 48.9415 32.4298C53.7931 32.4298 58.4024 34.2696 61.9215 37.6212L62.8317 38.4805H59.4215C59.1402 38.4805 58.9215 38.6993 58.9215 38.9805C58.9215 39.2618 59.1402 39.4805 59.4215 39.4805H65.6832L69.1832 45.3907L65.4723 50.4024C65.3121 50.6212 65.3512 50.9415 65.5738 51.1017C65.7848 51.2618 66.1129 51.211 66.2731 51.0001L67.7145 49.0587L67.7848 50.7501C67.7848 50.9298 67.8043 51.1095 67.8043 51.2892C67.8043 61.5002 59.8043 69.7582 49.5933 70.1092L48.4527 70.1482L49.3316 69.1287C49.5113 68.9178 49.4918 68.5975 49.2808 68.4178C49.0699 68.2381 48.7613 68.2693 48.5699 68.4686L45.8511 71.6405L45.8437 71.6639ZM42.1132 69.4608L45.5038 70.5194L47.8046 67.8475C48.3437 67.2186 49.2929 67.1482 49.9257 67.6873C50.3476 68.0467 50.5156 68.5779 50.4257 69.0857C59.4765 68.3474 66.4957 61.0076 66.7847 51.9137C66.273 52.3121 65.5035 52.3356 64.9761 51.9332C64.316 51.445 64.1753 50.5035 64.6675 49.8316L67.9878 45.3511L65.1167 40.4995H59.4253C58.5972 40.4995 57.9253 39.8277 57.9253 38.9995C57.9253 38.1714 58.5972 37.4995 59.4253 37.4995H60.2652C57.0855 34.8784 53.1168 33.4487 48.9562 33.4487C46.3273 33.4487 43.7179 34.0386 41.3546 35.1596L42.0265 35.4487C42.3975 35.6089 42.6749 35.8979 42.8272 36.2768C42.9757 36.6479 42.9679 37.0581 42.8077 37.4252C42.4874 38.1635 41.5772 38.5268 40.8389 38.2065L35.9092 36.0659L32.1201 39.8667L34.0303 44.9058C34.3194 45.6753 33.9287 46.5464 33.1592 46.8472C32.6787 47.0269 32.128 46.937 31.7373 46.6479C31.3272 48.1596 31.1162 49.726 31.1162 51.3198C31.1162 56.9214 33.7256 62.1718 38.1357 65.5108C38.3076 65.1593 38.6045 64.8819 39.0068 64.7491C39.3779 64.6202 39.7881 64.6476 40.1474 64.8273C40.5068 65.0069 40.7763 65.3155 40.9091 65.7062L42.1474 69.4679L42.1132 69.4608Z" fill="white"/>
<path d="M55.4917 61.3118C58.5815 61.3118 61.0933 58.8001 61.0933 55.7102C61.0933 52.6203 58.5816 50.1086 55.4917 50.1086C52.4019 50.1086 49.8901 52.6203 49.8901 55.7102C49.8901 58.8001 52.4018 61.3118 55.4917 61.3118ZM55.4917 52.1126C57.4722 52.1126 59.0933 53.7337 59.0933 55.7142C59.0933 57.6947 57.4722 59.3158 55.4917 59.3158C53.5112 59.3158 51.8901 57.6947 51.8901 55.7142C51.8901 53.7337 53.5112 52.1126 55.4917 52.1126Z" fill="white"/>
<path d="M55.4917 61.8118C52.1323 61.8118 49.3901 59.0735 49.3901 55.7102C49.3901 52.3508 52.1284 49.6086 55.4917 49.6086C58.8511 49.6086 61.5933 52.3469 61.5933 55.7102C61.5933 59.0696 58.855 61.8118 55.4917 61.8118ZM55.4917 50.6128C52.6831 50.6128 50.3901 52.9019 50.3901 55.7144C50.3901 58.523 52.6792 60.816 55.4917 60.816C58.3003 60.816 60.5933 58.5269 60.5933 55.7144C60.5933 52.9058 58.3042 50.6128 55.4917 50.6128ZM55.4917 59.812C53.23 59.812 51.3901 57.9722 51.3901 55.7104C51.3901 53.4486 53.2299 51.6088 55.4917 51.6088C57.7534 51.6088 59.5933 53.4486 59.5933 55.7104C59.5933 57.9722 57.7535 59.812 55.4917 59.812ZM55.4917 52.6128C53.7808 52.6128 52.3901 54.0034 52.3901 55.7144C52.3901 57.4253 53.7807 58.816 55.4917 58.816C57.2026 58.816 58.5933 57.4254 58.5933 55.7144C58.5933 54.0035 57.2027 52.6128 55.4917 52.6128Z" fill="white"/>
<path d="M46.7928 44.3829C48.5311 44.3829 49.9412 42.9727 49.9412 41.2345C49.9412 39.4962 48.531 38.0861 46.7928 38.0861C45.0546 38.0861 43.6326 39.4963 43.6326 41.2345C43.6326 42.9728 45.0545 44.3829 46.7928 44.3829ZM46.7928 40.0821C47.4217 40.0821 47.9412 40.6016 47.9412 41.2305C47.9412 41.8594 47.4216 42.3789 46.7928 42.3789C46.1639 42.3789 45.6326 41.8593 45.6326 41.2305C45.6326 40.6016 46.1521 40.0821 46.7928 40.0821Z" fill="white"/>
<path d="M46.7928 44.8829C44.7733 44.8829 43.1326 43.2423 43.1326 41.2345C43.1326 39.2228 44.7732 37.5861 46.7928 37.5861C48.8124 37.5861 50.4412 39.2267 50.4412 41.2345C50.4412 43.2462 48.8006 44.8829 46.7928 44.8829ZM46.7928 38.5821C45.324 38.5821 44.1326 39.7735 44.1326 41.2305C44.1326 42.6914 45.324 43.8789 46.7928 43.8789C48.2616 43.8789 49.4412 42.6875 49.4412 41.2305C49.4412 39.7696 48.2498 38.5821 46.7928 38.5821ZM46.7928 42.8829C45.8709 42.8829 45.1326 42.1446 45.1326 41.2345C45.1326 40.3243 45.8826 39.5861 46.7928 39.5861C47.7029 39.5861 48.4412 40.3243 48.4412 41.2345C48.4412 42.1446 47.7029 42.8829 46.7928 42.8829ZM46.7928 40.5821C46.4334 40.5821 46.1326 40.8711 46.1326 41.2305C46.1326 41.5899 46.4334 41.8789 46.7928 41.8789C47.1522 41.8789 47.4412 41.5899 47.4412 41.2305C47.4412 40.8711 47.1522 40.5821 46.7928 40.5821Z" fill="white"/>
<path d="M40.0427 59.4529C42.1013 59.4529 43.7732 57.7732 43.7732 55.7146C43.7732 53.656 42.1013 51.9763 40.0427 51.9763C37.9841 51.9763 36.3044 53.656 36.3044 55.7146C36.3044 57.7732 37.9841 59.4529 40.0427 59.4529ZM40.0427 53.9724C40.992 53.9724 41.7732 54.7537 41.7732 55.7107C41.7732 56.6717 40.992 57.449 40.0427 57.449C39.0935 57.449 38.3044 56.6678 38.3044 55.7107C38.3044 54.7498 39.0662 53.9724 40.0427 53.9724Z" fill="white"/>
<path d="M40.0427 59.9529C37.7029 59.9529 35.8044 58.0545 35.8044 55.7146C35.8044 53.3747 37.7028 51.4763 40.0427 51.4763C42.3825 51.4763 44.2732 53.3747 44.2732 55.7146C44.2732 58.0545 42.3748 59.9529 40.0427 59.9529ZM40.0427 52.4724C38.2536 52.4724 36.8044 53.9216 36.8044 55.7107C36.8044 57.4998 38.2536 58.949 40.0427 58.949C41.8318 58.949 43.2732 57.4998 43.2732 55.7107C43.2732 53.9216 41.824 52.4724 40.0427 52.4724ZM40.0427 57.9529C38.8044 57.9529 37.8044 56.9529 37.8044 55.7146C37.8044 54.4763 38.7849 53.4763 40.0427 53.4763C41.3044 53.4763 42.2732 54.4763 42.2732 55.7146C42.2732 56.9529 41.2732 57.9529 40.0427 57.9529ZM40.0427 54.4724C39.3435 54.4724 38.8044 55.0115 38.8044 55.7107C38.8044 56.41 39.363 56.949 40.0427 56.949C40.7224 56.949 41.2732 56.3904 41.2732 55.7107C41.2732 55.031 40.7225 54.4724 40.0427 54.4724Z" fill="white"/>
<path d="M58.6248 41.4529C57.0154 41.4529 57.0154 43.9529 58.6248 43.9529C60.2342 43.9529 60.2342 41.4529 58.6248 41.4529Z" fill="white"/>
<path d="M58.6248 44.4529C58.1053 44.4529 57.656 44.2537 57.3357 43.8943C57.0662 43.574 56.9138 43.156 56.9138 42.7146C56.9138 41.8435 57.5037 40.9646 58.6247 40.9646C59.7458 40.9646 60.3356 41.8435 60.3356 42.7146C60.3356 43.5857 59.7458 44.4646 58.6247 44.4646L58.6248 44.4529ZM58.6248 41.9529C57.9334 41.9529 57.9139 42.6248 57.9139 42.7029C57.9139 42.781 57.9334 43.4529 58.6248 43.4529C59.3162 43.4529 59.3357 42.781 59.3357 42.7029C59.3357 42.6248 59.3162 41.9529 58.6248 41.9529Z" fill="white"/>
<path d="M38.6719 44.4799C37.0625 44.4799 37.0625 46.9799 38.6719 46.9799C40.2813 46.9799 40.2813 44.4799 38.6719 44.4799Z" fill="white"/>
<path d="M38.6719 47.4799C38.1524 47.4799 37.7032 47.2806 37.3828 46.9213C37.1133 46.601 36.9609 46.183 36.9609 45.7416C36.9609 44.8705 37.5508 43.9916 38.6718 43.9916C39.1914 43.9916 39.6406 44.1908 39.9609 44.5502C40.2305 44.8705 40.3828 45.2884 40.3828 45.7299C40.3828 46.601 39.793 47.4799 38.6719 47.4799ZM38.6719 44.9799C37.9805 44.9799 37.961 45.6517 37.961 45.7299C37.961 45.808 37.9805 46.4799 38.6719 46.4799C39.3633 46.4799 39.3828 45.808 39.3828 45.7299C39.3828 45.6517 39.3633 44.9799 38.6719 44.9799Z" fill="white"/>
<path d="M47.1839 61.6008C45.5745 61.6008 45.5745 64.1008 47.1839 64.1008C48.7933 64.1008 48.7933 61.6008 47.1839 61.6008Z" fill="white"/>
<path d="M47.1839 64.6008C46.6643 64.6008 46.2151 64.4016 45.8948 64.0422C45.6252 63.7219 45.4729 63.304 45.4729 62.8625C45.4729 61.9915 46.0627 61.1125 47.1838 61.1125C47.7033 61.1125 48.1526 61.3118 48.4729 61.6711C48.7424 61.9914 48.8948 62.4094 48.8948 62.8508C48.8948 63.7219 48.3049 64.6008 47.1839 64.6008ZM47.1839 62.1008C46.4925 62.1008 46.4729 62.7727 46.4729 62.8508C46.4729 62.929 46.4925 63.6008 47.1839 63.6008C47.8753 63.6008 47.8948 62.929 47.8948 62.8508C47.8948 62.7727 47.8753 62.1008 47.1839 62.1008Z" fill="white"/>
</svg>
