<svg width="9" height="8" viewBox="0 0 9 8" fill="none" xmlns="http://www.w3.org/2000/svg">
<path fill-rule="evenodd" clip-rule="evenodd" d="M3.50969 0.160004C3.18344 0.261629 2.87353 0.409826 2.58964 0.600006C1.82805 1.14856 1.30562 1.96804 1.12968 2.88998C1.0332 3.34794 1.03314 3.82099 1.12956 4.27896C1.22597 4.73693 1.41675 5.1698 1.68968 5.54999C2.16272 6.1869 2.85301 6.62813 3.62968 6.79001C4.02055 6.8657 4.42277 6.86039 4.8115 6.77438C5.20024 6.68838 5.56716 6.52352 5.88963 6.29001C6.40521 5.88629 6.75981 5.31185 6.88963 4.67001C6.94903 4.34482 6.94062 4.01084 6.86491 3.68906C6.78919 3.36727 6.64786 3.06458 6.44969 2.79999C6.16221 2.42096 5.75813 2.14691 5.29966 2.01999C5.45186 2.05667 5.59945 2.11035 5.73967 2.17999C6.25424 2.43778 6.65633 2.87546 6.86967 3.41C6.86967 3.41 6.86967 3.41 6.86967 3.47C6.99325 3.8097 7.04289 4.17187 7.0153 4.53229C6.98771 4.89271 6.88349 5.24307 6.70964 5.56C6.36022 6.21004 5.78346 6.70847 5.08964 6.95999C4.66887 7.10275 4.22294 7.15606 3.78038 7.11646C3.33781 7.07685 2.90837 6.94522 2.51963 6.73001C1.72518 6.29647 1.11958 5.58394 0.819683 4.73001C0.698001 4.40918 0.623852 4.07229 0.599651 3.73001C0.596529 4.36733 0.769494 4.99311 1.09947 5.53836C1.42944 6.08361 1.9036 6.52714 2.46965 6.82001C2.87304 7.05343 3.32121 7.19903 3.78477 7.24728C4.24833 7.29554 4.71683 7.24535 5.15965 7.10001C5.90849 6.85098 6.53659 6.32993 6.91966 5.63998C7.1183 5.29461 7.24153 4.91109 7.28117 4.51465C7.32081 4.11821 7.27595 3.71786 7.14964 3.34C7.14867 3.32334 7.14867 3.30666 7.14964 3.29001C6.91905 2.67506 6.47066 2.16616 5.88963 1.85999C5.60076 1.70425 5.28264 1.61048 4.95549 1.58466C4.62833 1.55883 4.29939 1.60152 3.98967 1.70999C3.54155 1.85821 3.15714 2.15443 2.89964 2.54999C2.98454 2.41514 3.0853 2.29093 3.19969 2.17999C3.60356 1.76262 4.14979 1.51271 4.72966 1.48001C5.09202 1.46937 5.4525 1.53611 5.78703 1.67578C6.12156 1.81546 6.42245 2.02485 6.66966 2.29001C7.19243 2.82566 7.48956 3.54161 7.49968 4.29001C7.50897 4.73167 7.42465 5.1703 7.2523 5.57706C7.07995 5.98381 6.82346 6.34947 6.49968 6.64999C5.8432 7.28164 4.97062 7.63926 4.05967 7.64999C3.72378 7.66659 3.38721 7.6363 3.05967 7.56C3.3843 7.66103 3.72019 7.72148 4.05967 7.73999C4.99556 7.73552 5.89533 7.37845 6.57963 6.73999C6.93303 6.43407 7.21745 6.05657 7.41398 5.63248C7.61051 5.20838 7.71468 4.74739 7.71965 4.28C7.715 3.48822 7.41142 2.72743 6.86967 2.14999C6.60245 1.85688 6.27641 1.62343 5.91282 1.4649C5.54924 1.30638 5.15631 1.22635 4.75969 1.23001H4.70964C4.05551 1.25468 3.43302 1.51789 2.95964 1.97C2.71823 2.19599 2.5275 2.47057 2.39994 2.77567C2.27239 3.08076 2.21092 3.40942 2.21965 3.73999C2.23613 4.21358 2.40445 4.66934 2.69969 5.04001C2.5919 4.92326 2.501 4.79197 2.42967 4.64999C2.16623 4.13469 2.09872 3.54132 2.23967 2.98001C2.23967 2.98001 2.23967 2.97999 2.23967 2.92999C2.34218 2.58586 2.51513 2.26682 2.74754 1.9931C2.97994 1.71938 3.26669 1.49696 3.58964 1.34C4.25632 1.01798 5.01855 0.95388 5.72966 1.16C6.15439 1.29099 6.54673 1.5101 6.88102 1.80304C7.21531 2.09597 7.48404 2.45612 7.66966 2.85999C8.06241 3.67066 8.13039 4.60083 7.85966 5.45999C7.77198 5.78292 7.64076 6.09244 7.46965 6.38C7.84127 5.86349 8.06549 5.25566 8.11833 4.62155C8.17117 3.98744 8.05064 3.3509 7.76963 2.78C7.57992 2.35616 7.30418 1.97639 6.95988 1.66479C6.61558 1.3532 6.21024 1.11661 5.76963 0.970001C5.0142 0.726251 4.19385 0.783573 3.47966 1.13C3.11694 1.29135 2.79282 1.52822 2.52897 1.82483C2.26513 2.12144 2.06767 2.47096 1.94969 2.85001C1.94969 2.85001 1.94969 2.85 1.94969 2.91C1.77093 3.53699 1.8352 4.20833 2.12968 4.79001C2.26954 5.08707 2.46986 5.35169 2.71781 5.56693C2.96577 5.78216 3.25591 5.94329 3.56968 6.04001C4.01743 6.19017 4.50194 6.19017 4.94969 6.04001C4.80375 6.09392 4.65308 6.13409 4.49968 6.16C3.93432 6.25051 3.3553 6.13327 2.86967 5.82999H2.80967C2.51271 5.62696 2.26206 5.36342 2.0742 5.05664C1.88634 4.74986 1.7655 4.40678 1.71965 4.04999C1.60703 3.31934 1.78272 2.57354 2.20964 1.97C2.4661 1.60852 2.79507 1.30445 3.17558 1.07718C3.55609 0.849908 3.9798 0.704418 4.41966 0.649994C5.31109 0.528613 6.21538 0.750207 6.94969 1.26999C7.23287 1.44511 7.48609 1.6646 7.69969 1.92001C7.49753 1.65156 7.26233 1.40965 6.99968 1.20001C6.24192 0.645476 5.30207 0.398898 4.36967 0.51001C3.90616 0.560258 3.45837 0.707283 3.05528 0.941559C2.65219 1.17583 2.30274 1.49213 2.02964 1.87C1.5703 2.51342 1.36708 3.30487 1.45964 4.09C1.50188 4.48721 1.62805 4.87094 1.82975 5.21573C2.03146 5.56052 2.30413 5.85851 2.62968 6.09C3.17377 6.45261 3.83233 6.60214 4.47966 6.51001C4.80662 6.46352 5.12066 6.35086 5.40263 6.17892C5.6846 6.00699 5.92861 5.77939 6.11967 5.51001C6.3802 5.11959 6.5162 4.65932 6.50969 4.19C6.52506 4.34295 6.52506 4.49705 6.50969 4.64999C6.41875 5.22104 6.12384 5.73975 5.67967 6.10999C5.3956 6.32048 5.07239 6.47223 4.72898 6.55637C4.38558 6.6405 4.02887 6.65535 3.67967 6.60001C2.95394 6.46759 2.30243 6.07241 1.84965 5.48999C1.5818 5.13793 1.39164 4.73311 1.29167 4.30219C1.19169 3.87126 1.18416 3.42402 1.26963 2.98999C1.42609 2.10221 1.91625 1.30791 2.63963 0.769989C2.88181 0.579875 3.14327 0.415656 3.41966 0.279999C3.48966 0.199999 3.48967 0.199993 3.48967 0.179993L3.50969 0.160004ZM3.69969 3.10001C3.62876 3.17815 3.57418 3.26971 3.53923 3.36929C3.50427 3.46887 3.48961 3.57445 3.49614 3.67978C3.50266 3.78511 3.53028 3.88807 3.57725 3.98257C3.62423 4.07708 3.68961 4.16121 3.76963 4.23001C3.81304 4.2648 3.85998 4.29496 3.90965 4.32001C3.81024 4.17961 3.76284 4.00895 3.77562 3.8374C3.78839 3.66585 3.86055 3.50413 3.97966 3.38C4.01543 3.35283 4.04885 3.32273 4.07963 3.29001C4.27385 3.17934 4.49954 3.13693 4.72068 3.16956C4.94182 3.20218 5.14568 3.30796 5.29966 3.47C5.37907 3.55572 5.44038 3.65655 5.47996 3.76648C5.51954 3.87641 5.5366 3.9932 5.53007 4.10986C5.52354 4.22652 5.49355 4.34067 5.44194 4.4455C5.39033 4.55032 5.31813 4.64368 5.22966 4.72C5.30189 4.6425 5.3576 4.55111 5.39335 4.45139C5.4291 4.35166 5.44415 4.24569 5.4376 4.13995C5.43105 4.03422 5.40299 3.93092 5.35521 3.83636C5.30742 3.74181 5.24089 3.65799 5.15965 3.59C5.11532 3.5565 5.06851 3.52642 5.01963 3.5C5.12094 3.63968 5.16953 3.81074 5.15672 3.98282C5.1439 4.1549 5.07057 4.31687 4.94969 4.44C4.94969 4.44 4.87965 4.44 4.84965 4.53C4.65544 4.64067 4.42974 4.68308 4.2086 4.65045C3.98746 4.61782 3.78366 4.51205 3.62968 4.35001C3.48485 4.18564 3.40489 3.97408 3.40489 3.755C3.40489 3.53593 3.48485 3.32437 3.62968 3.16C3.62968 3.16 3.62969 3.16001 3.69969 3.10001Z" fill="white"/>
</svg>
