<svg width="9" height="8" viewBox="0 0 9 8" fill="none" xmlns="http://www.w3.org/2000/svg">
<path d="M4.27 0C1.91 0 0 1.17998 0 2.63998V4.87C0 6.33 1.91 7.50998 4.27 7.50998C6.63 7.50998 8.54001 6.33 8.54001 4.87V2.63998C8.51001 1.17998 6.6 0 4.27 0ZM0.62001 2.63998C0.62001 2.35998 0.75001 1.80999 1.62001 1.29999C2.44636 0.853617 3.37079 0.619904 4.31 0.619904C5.2492 0.619904 6.17365 0.853617 7 1.29999C7.83 1.80999 8 2.35998 8 2.63998C8 2.91998 7.87 3.46 7 3.97C6.17365 4.41637 5.2492 4.65009 4.31 4.65009C3.37079 4.65009 2.44636 4.41637 1.62001 3.97C0.72001 3.46 0.590012 2.91998 0.590012 2.63998H0.62001ZM4.62001 6.87997V5.26999C5.22548 5.24054 5.82422 5.12952 6.40001 4.93997V6.50998C5.8096 6.74012 5.18351 6.86533 4.55 6.87997H4.62001ZM2.23001 6.50998V4.93997C2.80238 5.12946 3.3978 5.24049 4 5.26999V6.87997C3.39323 6.85835 2.79463 6.73322 2.23001 6.50998ZM0.660004 4.00998C0.937787 4.2794 1.2547 4.5053 1.60001 4.67999V6.19998C0.790006 5.68998 0.660004 5.15 0.660004 4.87V4.00998ZM7.02 4.67999C7.36681 4.50779 7.68409 4.28163 7.96001 4.00998V4.87C7.96001 5.15 7.84 5.68998 7.02 6.19998V4.67999Z" fill="#BDBDBD"/>
</svg>
