<svg width="10" height="8" viewBox="0 0 10 8" fill="none" xmlns="http://www.w3.org/2000/svg">
<path d="M4.99998 0.420013C2.63998 0.420013 0.72998 1.6 0.72998 3.06V5.29001C0.72998 6.75001 2.63998 7.92999 4.99998 7.92999C7.35998 7.92999 9.26999 6.75001 9.26999 5.29001V3.06C9.23999 1.6 7.32998 0.420013 4.99998 0.420013ZM1.34999 3.06C1.34999 2.78 1.47999 2.23 2.34999 1.72C3.17634 1.27363 4.10077 1.03992 5.03998 1.03992C5.97918 1.03992 6.90363 1.27363 7.72998 1.72C8.55998 2.23 8.72998 2.78 8.72998 3.06C8.72998 3.34 8.59998 3.88001 7.72998 4.39001C6.90363 4.83639 5.97918 5.0701 5.03998 5.0701C4.10077 5.0701 3.17634 4.83639 2.34999 4.39001C1.44999 3.88001 1.31999 3.34 1.31999 3.06H1.34999ZM5.34999 7.29999V5.69C5.95546 5.66055 6.5542 5.54953 7.12999 5.35999V6.92999C6.53958 7.16013 5.91349 7.28534 5.27998 7.29999H5.34999ZM2.95999 6.92999V5.35999C3.53236 5.54948 4.12778 5.66051 4.72998 5.69V7.29999C4.12321 7.27837 3.52461 7.15324 2.95999 6.92999ZM1.38998 4.42999C1.66777 4.69941 1.98468 4.92531 2.32999 5.10001V6.62C1.51999 6.10999 1.38998 5.57001 1.38998 5.29001V4.42999ZM7.74998 5.10001C8.09679 4.9278 8.41407 4.70164 8.68999 4.42999V5.29001C8.68999 5.57001 8.56998 6.10999 7.74998 6.62V5.10001Z" fill="#F1F2F2"/>
</svg>
